<?xml version="1.0" encoding="utf-8" standalone="yes"?>
<?xml-stylesheet href="SVGStyle.css" type="text/css"?>
<svg xmlns="http://www.w3.org/2000/svg" version="1.2" baseProfile="tiny" xml:space="preserve" style="shape-rendering:geometricPrecision; fill-rule:evenodd;" width="8.58mm" height="9.440001mm" viewBox="-4.29 -8.43 8.58 9.440001">
  <title>CostGuardStattion_v2</title>
  <desc>pattern of symbol</desc>
  <metadata>
    <S100SVG xmlns:iho="http://www.iho.int/SVGMetadata">
      <Description publisher="IHB" creationDate="2019-08-22" source="S52Preslib4.0" format="S100SVG" version="0.1" />
    </S100SVG>
  </metadata>
  <rect class="symbolBox layout" fill="none" x="-4.29" y="1.01" height="9.440001" width="8.58" />
  <rect class="svgBox layout" fill="none" x="-4.29" y="-8.43" height="9.440001" width="8.58" />
  <path d=" M -0.05,-7.4 L -0.01,-1.4" class="sl f0 sTESTD" style="stroke-width:0.64;" />
  <path d=" M -3.29,-0.15 L -3.29,-1.86 L -3.29,-3.56 L 3.29,-3.58 L 3.28,-0.01 L -3.29,0.01" class="fTESTD" style="stroke-width:0.64;" />
  <path d=" M -0.09,-6.09 L -0.09,-7.43 L 2.87,-7.43 L 2.86,-6.02 L -0.09,-6.02" class="fTESTD" style="stroke-width:0.64;" />
  <path d=" M 1.86,-2.57 L 1.86,-2.85 L 1.75,-2.94 L 0.49,-2.94 L 0.36,-2.79 L 0.36,-0.84 L 0.51,-0.73 L 1.75,-0.72 L 1.87,-0.87 L 1.88,-1.72 L 1.29,-1.72" class="sl f0 sTESTA" style="stroke-width:0.32;" />
  <path d=" M -0.43,-2.59 L -0.43,-2.86 L -0.54,-2.95 L -1.77,-2.95 L -1.93,-2.8 L -1.93,-0.85 L -1.78,-0.74 L -0.56,-0.73 L -0.42,-0.9 L -0.42,-1.16" class="sl f0 sTESTA" style="stroke-width:0.32;" />
</svg>