<?xml version="1.0" encoding="UTF-8"?>
<?xml-stylesheet href="svgStyle.css" type="text/css"?>
<svg xmlns="http://www.w3.org/2000/svg" version="1.0" baseProfile="tiny" xml:space="preserve" style="shape-rendering:geometricPrecision; fill-rule:evenodd;" width="11.1mm" height="7.04mm" viewBox="-5.55 -6.62 11.1 7.04">
		<title>NavigatoinalWarningFeaturePart_point</title>
		<desc>NavigatoinalWarningFeaturePart_point description.</desc>
		<metadata>
			<S100SVG xmlns:iho="http://www.iho.int/SVGMetadata">
				<Description publisher="KHOA" creationDate="2020-06-26" source="S52Preslib4.0" format="S100SVG" version="0.1" />
			</S100SVG>
		</metadata>
		<rect class="symbolBox layout" fill="none" x="-5.49" y="-6.56" height="6.92" width="10.98" />
		<rect class="svgBox layout" fill="none" x="-5.49" y="-6.56" height="6.92" width="10.98" />
		<path d=" M -5.49,-6.56 L -5.49,-6.56 L -5.49,-1.19 L 5.49,-1.19 L 5.49,-6.56 L -5.49,-6.56 Z" class="f00011" style="stroke-width:0.12;" />
		<path d=" M 1.19,-1.19 L 0,0 L -1.19,-1.19 L 1.19,-1.19 Z" class="f00011" style="stroke-width:0.12;" />
		<path d=" M -2.97,-2.14 L -3.51,-2.14 L -3.51,-5.6 L -2.88,-5.6 L -1.51,-3.16 L -1.51,-5.6 L -0.97,-5.6 L -0.97,-2.18 L -1.58,-2.18 L -2.97,-4.66 L -2.97,-2.14 Z" class="f00015" style="stroke-width:0.12;" />
		<path d=" M 3.14,-2.15 L 2.4,-2.15 L 1.76,-4.59 L 1.17,-2.15 L 0.4,-2.15 L -0.24,-5.57 L 0.39,-5.57 L 0.39,-5.14 L 0.8,-2.93 L 1.45,-5.57 L 2.07,-5.57 L 2.75,-2.93 L 3.21,-5.15 L 3.21,-5.57 L 3.84,-5.57 L 3.14,-2.15 Z" class="f00015" style="stroke-width:0.12;" />
		<circle class="pivotPoint layout" fill="none" cx="0" cy="0" r="0.36" />
	</svg>