<?xml version="1.0" encoding="utf-8" standalone="yes"?>
<?xml-stylesheet href="SVGStyle.css" type="text/css"?>
<svg xmlns="http://www.w3.org/2000/svg" version="1.2" baseProfile="tiny" xml:space="preserve" style="shape-rendering:geometricPrecision; fill-rule:evenodd;" width="10.86mm" height="10.86mm" viewBox="-5.42 -5.44 10.86 10.86">
  <title>NW</title>
  <desc>pattern of symbol</desc>
  <metadata>
    <S100SVG xmlns:iho="http://www.iho.int/SVGMetadata">
      <Description publisher="IHB" creationDate="2019-08-01" source="S52Preslib4.0" format="S100SVG" version="0.1" />
    </S100SVG>
  </metadata>
  <rect class="symbolBox layout" fill="none" x="-5.42" y="5.420001" height="10.86" width="10.86" />
  <rect class="svgBox layout" fill="none" x="-5.42" y="-5.44" height="10.86" width="10.86" />
  <path d=" M 1.38,-4.75 L 1.07,-4.82 L 0.76,-4.88 L 0.5,-4.91 L 0.23,-4.92 L 0.01,-4.94 L -0.34,-4.92 L -0.64,-4.89 L -0.94,-4.84 L -1.25,-4.77 L -1.52,-4.69 L -1.82,-4.58 L -2.08,-4.46 L -2.29,-4.36 L -2.59,-4.19 L -2.89,-3.99 L -3.15,-3.79 L -3.32,-3.64 L -3.49,-3.47 L -3.68,-3.27 L -3.84,-3.08 L -4.02,-2.84 L -4.19,-2.59 L -4.35,-2.31 L -4.48,-2.05 L -4.59,-1.78 L -4.69,-1.5 L -4.79,-1.14 L -4.86,-0.8 L -4.9,-0.51 L -4.92,-0.2 L -4.92,0.08 L -4.91,0.4 L -4.87,0.72 L -4.82,0.99 L -4.77,1.22 L -4.67,1.54 L -4.57,1.84 L -4.48,2.04 L -4.38,2.25 L -4.27,2.45 L -4.11,2.71 L -3.95,2.94 L -3.77,3.17 L -3.58,3.38 L -3.4,3.56 L -3.24,3.71 L -3.05,3.87 L -2.84,4.03 L -2.53,4.23 L -2.28,4.37 L -1.93,4.54 L -1.64,4.65 L -1.34,4.75 L -1.04,4.82 L -0.68,4.89 L -0.34,4.92 L 0.01,4.92 L 0.28,4.92 L 0.67,4.89 L 1.03,4.83 L 1.32,4.76 L 1.66,4.65 L 2.1,4.46 L 2.43,4.3 L 2.75,4.1 L 3.04,3.9 L 3.33,3.66 L 3.57,3.43 L 3.84,3.13 L 4.11,2.76 L 4.28,2.49 L 4.44,2.19 L 4.6,1.85 L 4.69,1.56 L 4.79,1.27 L 4.86,0.95 L 4.91,0.66 L 4.94,0.4 L 4.94,0.01 L 4.94,-0.32 L 4.92,-0.57 L 4.86,-0.96 L 4.78,-1.3 L 4.69,-1.59 L 4.59,-1.86 L 4.48,-2.08 L 4.36,-2.34 L 4.15,-2.7 L 3.98,-2.94 L 3.77,-3.21 L 3.56,-3.44 L 3.32,-3.67 L 3.08,-3.87 L 2.82,-4.06 L 2.56,-4.23 L 2.27,-4.39 L 1.94,-4.55 L 1.62,-4.67 L -0.69,-2.24 L -1.08,-2.24 L -1.08,0.81 L -2.87,-2.24 L -3.77,-2.24 L -3.78,2.22 L -2.87,2.22 L -2.87,1.16 L -2.87,-0.71 L -1.07,2.24 L -0.16,2.24 L -0.17,-2.24 L -0.69,-2.24 L 1.62,-4.67 L 0.51,-2.24 L 0.4,-2.24 L 0.28,-2.24 L 1.19,2.24 L 1.79,2.24 L 2.2,-0.4 L 2.64,2.24 L 3.24,2.24 L 4.1,-2.24 L 3.36,-2.24 L 2.94,0.42 L 2.51,-2.24 L 1.88,-2.24 L 1.48,0.42 L 1.04,-2.24 L 0.51,-2.24 L 1.62,-4.67 L 1.62,-4.67" class="fMARMG" style="stroke-width:0.32;" />
</svg>