<?xml version="1.0" encoding="utf-8"?>
<?xml-stylesheet type='text/css' href='daySvgStyle.css'?>
<svg version="1.2" baseProfile="tiny" style="shape-rendering:geometricPrecision; fill-rule:evenodd;" width="4.64mm" height="4.64mm" viewBox="-2.32 -2.32 4.64 4.64" xmlns="http://www.w3.org/2000/svg">
  <title>HRBFAC96</title>
  <desc>harbour facility pilotage service</desc>
  <metadata>
    <iho:S100SVG xmlns:iho="http://www.iho.int/SVGMetadata">
      <iho:Description iho:publisher="IHO" iho:creationDate="2022-12-31" iho:source="NIPWG" iho:format="S100SVG" iho:version="0.1" />
    </iho:S100SVG>
  </metadata>
  <g>
    <circle cx="0.00" cy="0.00" r="2.00" class="fLITYW" />
    <circle cx="0.00" cy="0.00" r="2.00" class="f0 sOUTLL" style="stroke-width: 0.16" />
    <path class="fCHMGD sCHMGD" style="stroke-width:0.16" d="M -0.32,0.75 L -0.32,-0.75 L 0.10,-0.75 L 0.14,-0.74 L 0.22,-0.73 L 0.25,-0.73 L 0.30,-0.70 L 0.35,-0.68 L 0.37,-0.66 L 0.40,-0.63 L 0.44,-0.58 L 0.48,-0.52 L 0.50,-0.46 L 0.51,-0.41 L 0.52,-0.36 L 0.52,-0.30 L 0.51,-0.26 L 0.51,-0.20 L 0.48,-0.12 L 0.45,-0.07 L 0.42,-0.02 L 0.38,0.02 L 0.34,0.05 L 0.30,0.08 L 0.26,0.10 L 0.22,0.12 L 0.18,0.13 L 0.13,0.14 L 0.05,0.15 L 0.00,0.15 L -0.22,0.15 L -0.22,0.05 L 0.04,0.05 L 0.12,0.04 L 0.19,0.02 L 0.24,0.00 L 0.29,-0.04 L 0.33,-0.08 L 0.37,-0.14 L 0.39,-0.20 L 0.40,-0.26 L 0.40,-0.33 L 0.40,-0.38 L 0.40,-0.42 L 0.38,-0.46 L 0.37,-0.49 L 0.35,-0.53 L 0.33,-0.55 L 0.31,-0.57 L 0.28,-0.59 L 0.24,-0.62 L 0.19,-0.64 L 0.13,-0.65 L 0.08,-0.65 L -0.22,-0.65 L -0.22,0.75 L -0.32,0.75 Z" />
    <circle class="pivotPoint layout" fill="none" cx="0" cy="0" r="0.2" />
  </g>
</svg>