<?xml version="1.0" encoding="UTF-8"?>
<?xml-stylesheet href="daySvgStyle.css" type="text/css"?><svg xmlns="http://www.w3.org/2000/svg" version="1.2" baseProfile="tiny" xml:space="preserve" style="shape-rendering:geometricPrecision; fill-rule:evenodd;" width="7.52mm" height="3.36mm" viewBox="-3.83 -1.58 7.52 3.36">
  <title>HRBSEC97</title>
  <desc>Berth pocket</desc>
  <metadata>
    <iho:S100SVG xmlns:iho="http://www.iho.int/SVGMetadata">
      <iho:Description iho:publisher="IHB" iho:creationDate="2022-12-31" iho:source="NIPWG" iho:format="S100SVG" iho:version="0.1"/>
    </iho:S100SVG>
  </metadata>
  <rect class="symbolBox layout" fill="none" x="-3.67" y="-1.42" height="3.04" width="7.2"/>
  <rect class="svgBox layout" fill="none" x="-3.67" y="-1.42" height="3.04" width="7.2"/>
      <path
         d="m -3.4642375,-1.3123028 l 0.4881904,0 0.4881904,0 0.3405153,0.018269 0.2217664,0.054807 0.1497049,0.1009872 0.1243312,0.1568098 0.083733,0.19690007 0.027911,0.22125884 -0.023851,0.20501966 -0.071554,0.18472069 -0.1096144,0.15021243 -0.1380331,0.10555468 0.1933478,0.10453973 0.1456451,0.15934696 0.092868,0.20704956 0.030956,0.24764751 -0.039076,0.29991737 -0.1172266,0.2501849 -0.1705114,0.1806609 -0.1989299,0.095405 -0.2461251,0.027403 -0.4420102,0.00913 l -0.4151141,0 -0.4151141,0 l -10e-8,-1.48791475 z m 0.4912353,0.49529501 l 0.0,0.34406765 0.0,0.34406765 0.1623918,0 0.1623918,0 0.2364831,-0.002537 0.1248387,-0.007612 0.1121518,-0.0365382 0.084748,-0.0690165 0.053285,-0.10250983 0.017762,-0.13295829 -0.014717,-0.11925649 -0.04415,-0.0938828 -0.063434,-0.0674941 -0.076629,-0.0360307 -0.1583321,-0.0152243 -0.3126042,-0.005075 -0.1420931,1e-8 z m 0,1.18343033 V 0.76428247 1.1621424 h 0.2283634 0.2283635 l 0.2466326,-0.00761 0.139048,-0.022837 0.078151,-0.047195 0.063942,-0.076629 0.04415,-0.10555468 0.014717,-0.12991346 -0.015732,-0.13295829 -0.047195,-0.10656963 -0.071554,-0.080181 -0.092868,-0.0497325 -0.1552872,-0.0274036 -0.2628717,-0.009135 -0.1989298,2.2e-7 z"
         class="sl fCHMGD sCHMGD" style="stroke-width: 0.08;"
         id="path882"/>
      <path
         d="M -1.0040016,1.6635271 V 0.17561215 -1.3123028 h 0.39583002 0.39583003 l 0.36588905,0.010657 0.21263178,0.031971 0.19791502,0.1080923 0.15934697,0.18624289 0.10656962,0.257797 0.0355232,0.32275373 -0.0304485,0.29687253 L 0.74374024,0.14719379 0.60672215,0.3324218 0.4392556,0.45370813 0.19059314,0.51917233 -0.19001267,0.54099373 H -0.35138954 -0.5127664 V 1.1022604 1.6635271 H -0.758384 Z m 0.4912352,-2.4724153 v 0.42221871 0.42221871 h 0.13600314 0.13600315 l 0.22988591,-0.009642 0.14158536,-0.02892605 0.0903305,-0.05379229 0.0720614,-0.08424075 0.0471951,-0.11265932 0.0157317,-0.13498819 -0.0162392,-0.13651062 -0.0487175,-0.11316679 -0.0725688,-0.0847482 -0.0877931,-0.0512549 -0.14869001,-0.0258812 -0.25525963,-0.008627 -0.11976396,2e-8 z"
          class="sl fCHMGD sCHMGD" style="stroke-width: 0.08;"
         id="path884" />
      <path
         d="M 1.2755735,1.6635271 V -1.3123028 H 1.7668087 V 0.00916055 L 2.7634885,-1.3123028 H 3.427265 L 2.5077214,-0.15323126 3.4759825,1.6635271 H 2.8385947 L 2.1666986,0.26695755 1.7668087,0.76428247 V 1.6635271 Z"
          class="sl fCHMGD sCHMGD" style="stroke-width: 0.08;"
         id="path886" />
  <circle class="pivotPoint layout" fill="none" cx="0" cy="0" r="1"/>
</svg>
