<?xml version="1.0" encoding="UTF-8" standalone="no"?>
<?xml-stylesheet href="daySvgStyle.css" type="text/css"?>
<svg version="1.2" baseProfile="tiny" style="shape-rendering:geometricPrecision; fill-rule:evenodd;" width="13.34mm" height="8.14mm" viewBox="-6.67 -0.32 13.34 8.14" xmlns="http://www.w3.org/2000/svg">  
  <title>HRBSEC95C</title>
  <desc>lay-by berth area symbol</desc>
  <metadata>
    <iho:S100SVG xmlns:iho="http://www.iho.int/SVGMetadata">
      <iho:Description iho:publisher="IHO" iho:creationDate="2022-12-31" iho:source="S131Demo" iho:format="S100SVG" iho:version="0.1" />
    </iho:S100SVG>
  </metadata>
  <rect class="symbolBox layout" fill="none" x="-6.35" y="2.5" height="5" width="12.7"/>
  <rect class="svgBox layout" fill="none" x="-6.35" y="0" height="7.5" width="12.7"/>
  <path
    d="m -5.8699999,7.2199988 v -4.463165 h 0.4585458 v 3.7049794 h 1.1444698 v 0.7581856 z" 
    class="sl fCHMGF sCHMGF" style="stroke-width: 0.16;"
    id="path830" />
  <path
    d="M -1.7491167,7.2199988 H -2.2493485 L -2.4483043,6.1978297 H -3.3578168 L -3.5454037,7.2199988 H -4.0342666 L -3.147492,2.719999 h 0.4869681 z M -2.5961001,5.4396441 -2.908745,3.7697943 -3.2176003,5.4396441 Z"     class="sl fCHMGF sCHMGF" style="stroke-width: 0.16;"
    id="path832" />
  <path
    d="M -1.0635378,7.2199988 V 5.3260698 L -1.8972575,2.719999 h 0.5381282 l 0.5362334,1.7803545 0.52675928,-1.7803545 h 0.5286541 l -0.83750936,2.61221 v 1.8877898 z" 
    class="sl fCHMGF sCHMGF" style="stroke-width: 0.16;"
    id="path834"/>
  <path
    d="M 0.29091195,6.0197942 V 5.1572431 H 1.1492643 v 0.8625511 z"
    class="sl fCHMGF sCHMGF" style="stroke-width: 0.16;"
    id="path836" />
  <path
    d="m 1.618834,2.719999 h 0.4557036 0.4557037 l 0.3178556,0.027626 0.2070089,0.082879 0.1397427,0.1527113 0.1160576,0.237125 0.078161,0.2977489 0.026054,0.3345839 -0.022264,0.3100272 -0.066792,0.2793316 -0.1023201,0.2271487 -0.1288476,0.159618 0.1804814,0.1580835 0.1359531,0.2409616 0.086688,0.3130968 0.028896,0.3744884 -0.036475,0.45353 L 3.3810144,6.7472838 3.2218497,7.0204761 3.0361576,7.1647463 2.806411,7.206186 2.3938144,7.2199993 H 2.0063242 1.618834 V 4.9699991 Z M 2.0773799,3.4689757 V 3.9892689 4.5095622 H 2.2289653 2.3805507 L 2.6012969,4.5057254 2.7178282,4.494215 2.8225169,4.4389626 2.9016255,4.334597 2.9513643,4.1795833 2.9679438,3.9785261 2.9542064,3.7981885 2.9129943,3.6562205 2.853781,3.5541568 2.7822518,3.4996721 2.634456,3.4766502 l -0.2918018,-0.00767 -0.1326372,-4e-7 z m 0,1.7895634 v 0.6016371 0.601637 h 0.2131669 0.213167 L 2.7339342,6.4503072 2.8637291,6.4157753 2.9366793,6.3444076 2.9963665,6.2285305 3.0375786,6.068908 3.0513159,5.872455 3.036631,5.6713978 2.9925763,5.5102451 2.9257843,5.3889962 2.8390966,5.3137915 2.694143,5.2723521 2.4487641,5.2585391 H 2.263072 Z"
    class="sl fCHMGF sCHMGF" style="stroke-width: 0.16;"
    id="path838"/>
  <path
    d="M 4.6464069,7.2199988 V 5.3260698 L 3.8126872,2.719999 H 4.3508154 L 4.8870487,4.5003535 5.413808,2.719999 h 0.5286541 l -0.8375093,2.61221 v 1.8877898 z"
    class="sl fCHMGF sCHMGF" style="stroke-width: 0.16;"
    id="path840" />
  <circle class="pivotPoint layout" fill="none" cx="0" cy="0" r="1" id="circle828" />
</svg>