<?xml version="1.0" encoding="UTF-8" standalone="no"?>
<?xml-stylesheet href="daySvgStyle.css" type="text/css"?>
<svg version="1.2" baseProfile="tiny" style="shape-rendering:geometricPrecision; fill-rule:evenodd;" width="13.34mm" height="8.14mm" viewBox="-6.67 -0.32 13.34 8.14" xmlns="http://www.w3.org/2000/svg">  
  <title>HRBSEC97C</title>
  <desc>berth pocket area symbol</desc>
  <metadata>
    <iho:S100SVG xmlns:iho="http://www.iho.int/SVGMetadata">
      <iho:Description iho:publisher="IHO" iho:creationDate="2022-12-31" iho:source="S131Demo" iho:format="S100SVG" iho:version="0.1" />
    </iho:S100SVG>
  </metadata>
  <rect class="symbolBox layout" fill="none" x="-6.35" y="2.5" height="5" width="12.7"/>
  <rect class="svgBox layout" fill="none" x="-6.35" y="0" height="7.5" width="12.7"/>
<!--  <path
    id="path842"
    class="sl fCHMGF sCHMGF" style="stroke-width: 0.16;"    d="M -6.3316731,7.2908334 V 2.5608338 h 0.8061522 q 0.4506184,0 0.5891112,0.067756 0.2211751,0.1096998 0.363802,0.4678376 0.144694,0.3581377 0.144694,0.9227693 0,0.5130082 -0.1240234,0.8614666 -0.1240234,0.3452318 -0.3100585,0.4871964 -0.1860351,0.138738 -0.6407876,0.138738 h -0.3286621 v 1.7842359 z m 0.5002278,-3.929836 v 1.3422099 h 0.2769856 q 0.2790527,0 0.3782714,-0.061302 0.1012858,-0.061302 0.1653646,-0.2193997 0.064078,-0.1613233 0.064078,-0.3936289 0,-0.235532 -0.066146,-0.3968553 -0.066145,-0.1613238 -0.1632971,-0.2161738 -0.097152,-0.05485 -0.4113443,-0.05485 z" />
  <path
    id="path844"
    class="sl fCHMGF sCHMGF" style="stroke-width: 0.16;"    d="M -3.2446217,7.2908334 V 3.3609974 H -3.9825609 V 2.5608338 h 1.9740393 v 0.8001636 h -0.7358723 v 3.929836 z" />
  <path
    id="path846"
    class="sl fCHMGF sCHMGF" style="stroke-width: 0.16;"    d="M -1.4639503,7.2908334 V 2.5608338 h 1.70325485 v 0.8001636 h -1.20302707 v 1.1195839 h 1.03972958 v 0.8001636 h -1.03972958 v 2.0100885 z" />
  <path
    id="path848"
    class="sl fCHMGF sCHMGF" style="stroke-width: 0.16;"    d="M 1.2200251,7.2908334 0.62677978,2.5608338 H 1.1414769 L 1.5135472,5.8098853 1.9682997,2.5608338 H 2.5656791 L 3.0018281,5.8647353 3.3842336,2.5608338 H 3.8885955 L 3.2850149,7.2908334 H 2.7517142 L 2.2556206,3.7546263 1.7636611,7.2908334 Z" />
  <path
    id="path850"
    class="sl fCHMGF sCHMGF" style="stroke-width: 0.16;"    d="M 5.0078085,7.2908334 V 5.3001036 L 4.0983035,2.5608338 H 4.6853476 L 5.2703247,4.4321842 5.8449666,2.5608338 H 6.4216754 L 5.5080363,5.3065566 v 1.9842768 z" />
  
--> 
  <path
    id="path863"
    class="sl fCHMGF sCHMGF" style="stroke-width: 0.16;"
    d="m -6.3770001,2.3150004 h 0.8285455 q 0.339342,0 0.4771458,0.1233969 0.1378038,0.1233969 0.232544,0.4353172 0.09474,0.3119201 0.09474,0.7061049 0,0.3633356 -0.08096,0.6581173 -0.08096,0.291354 -0.2101508,0.4318895 0.1843127,0.1302526 0.2876655,0.4456001 0.1050754,0.315348 0.1050754,0.7678036 0,0.5484311 -0.1326361,0.9289051 -0.1326362,0.3770464 -0.3135038,0.4661664 -0.125746,0.061698 -0.5839438,0.061698 h -0.704522 z m 0.4168565,0.8363574 v 1.1619884 h 0.2756077 q 0.2480469,0 0.3066136,-0.017139 0.1067979,-0.034277 0.1670871,-0.1782401 0.060289,-0.1473908 0.060289,-0.3976125 0,-0.2228001 -0.049954,-0.3599079 Q -5.2487315,3.2199103 -5.3193559,3.185634 -5.3882581,3.151357 -5.718987,3.151357 Z m 0,1.9983456 v 1.3436562 h 0.3875734 q 0.2549371,0 0.3272841,-0.051415 0.072347,-0.054843 0.1205783,-0.2090894 0.049954,-0.1576738 0.049954,-0.3976125 0,-0.2467939 -0.053399,-0.4044678 -0.051677,-0.1611017 -0.1395264,-0.2193724 -0.086127,-0.061699 -0.3548449,-0.061699 z" />
  <path
    id="path865"
    class="sl fCHMGF sCHMGF" style="stroke-width: 0.16;"
    d="M -3.5578782,7.34 V 3.1650686 H -4.1728278 V 2.3150004 h 1.6450333 V 3.1650686 H -3.1410216 V 7.34 Z" />
  <path
    id="path867"
    class="sl fCHMGF sCHMGF" style="stroke-width: 0.16;"
    d="M -1.9876034,7.34 V 2.3150004 h 0.4168566 v 1.9777795 h 0.81993289 V 2.3150004 h 0.41857914 V 7.34 H -0.75081391 V 5.1428481 H -1.5707468 V 7.34 Z" />
  <path
    id="path869"
    class="sl fCHMGF sCHMGF" style="stroke-width: 0.16;"
    d="M 0.36298553,7.34 V 2.3150004 H 1.0347793 q 0.3755154,0 0.4909261,0.071982 0.1843127,0.1165412 0.3031685,0.4970158 0.1205783,0.3804735 0.1205783,0.98032 0,0.5450033 -0.1033528,0.9151944 Q 1.7427465,5.1462757 1.5877171,5.2970943 1.4326878,5.4444851 1.0537273,5.4444851 H 0.77984214 V 7.34 Z M 0.77984214,3.1650686 V 4.5909893 H 1.0106636 q 0.2325439,0 0.3152263,-0.065126 0.084405,-0.065126 0.1378038,-0.2330832 0.053399,-0.1713847 0.053399,-0.4181787 0,-0.2502216 -0.055122,-0.4216063 -0.055121,-0.171385 -0.1360808,-0.2296557 -0.08096,-0.058271 -0.34278708,-0.058271 z" />
  <path
    id="path871"
    class="sl fCHMGF sCHMGF" style="stroke-width: 0.16;"
    d="M 2.5619903,7.34 V 2.3150004 H 2.9788469 V 4.5464293 L 3.8246179,2.3150004 H 4.3878912 L 3.6075769,4.2722138 4.4292323,7.34 h -0.54088 L 3.3181888,4.9817465 2.9788469,5.8215316 V 7.34 Z" />
  <path
    id="path873"
    class="sl fCHMGF sCHMGF" style="stroke-width: 0.16;"
    d="M 5.3759447,7.34 V 3.1650686 H 4.760995 V 2.3150004 H 6.4060284 V 3.1650686 H 5.7928013 V 7.34 Z" /> 
  <circle class="pivotPoint layout" fill="none" cx="0" cy="0" r="1" id="circle828" />
</svg>