<?xml version="1.0" encoding="UTF-8" standalone="no"?>
<?xml-stylesheet href="daySvgStyle.css" type="text/css"?>
<svg version="1.2" baseProfile="tiny" style="shape-rendering:geometricPrecision; fill-rule:evenodd;" width="13.34mm" height="8.14mm" viewBox="-6.67 -0.32 13.34 8.14" xmlns="http://www.w3.org/2000/svg">  
  <title>HRBSEC94C</title>
  <desc>port safety zone area symbol</desc>
  <metadata>
    <iho:S100SVG xmlns:iho="http://www.iho.int/SVGMetadata">
      <iho:Description iho:publisher="IHO" iho:creationDate="2022-12-31" iho:source="S131Demo" iho:format="S100SVG" iho:version="0.1" />
    </iho:S100SVG>
  </metadata>
  <rect class="symbolBox layout" fill="none" x="-6.35" y="2.5" height="5" width="12.7"/>
  <rect class="svgBox layout" fill="none" x="-6.35" y="0" height="7.5" width="12.7"/>
  <path
    id="path842"
    class="sl fCHMGF sCHMGF" style="stroke-width: 0.16;"
    d="M -5.6312935,7.3430942 V 5.1384958 2.9338973 H -5.2617 -4.8921064 l 0.3416371,0.01579 0.198538,0.04737 0.1847967,0.1601569 0.1487851,0.2759505 0.099506,0.38197 0.033169,0.4782144 -0.02843,0.439867 -0.085291,0.3631724 -0.1279362,0.2744469 -0.1563665,0.1797063 -0.2321806,0.096996 -0.3553783,0.032332 H -5.021938 -5.1726185 V 6.5114821 7.343094 l -0.2293375,1e-7 z m 0.458675,-3.6633026 v 0.6255886 0.6255886 h 0.1269886 0.1269885 l 0.2146486,-0.014286 0.1322007,-0.042859 0.084343,-0.079702 0.067285,-0.1248171 0.044067,-0.1669239 0.014689,-0.2000079 -0.015163,-0.2022636 -0.045489,-0.1676759 -0.067759,-0.1255688 -0.081974,-0.075943 -0.1388347,-0.038347 -0.2383402,-0.012783 -0.1118254,1e-7 z"
  />
  <path
    id="path844"
    class="sl fCHMGF sCHMGF" style="stroke-width: 0.16;"
    d="M -1.9432874,7.3430942 V 3.6797916 H -2.6199278 V 2.9338973 h 1.81006052 V 3.6797916 H -1.4846124 v 3.6633026 z" />
  />
  <path
    id="path848"
    class="sl fCHMGF sCHMGF" style="stroke-width: 0.16;"
    d="M 0.4729382,5.908451 0.58523777,5.8873975 0.69753735,5.866344 0.80983693,5.8452905 0.92213651,5.824237 0.98160315,6.1939885 1.084189,6.4580967 l 0.1457052,0.158465 0.1888244,0.052822 0.098677,-0.010715 0.087542,-0.032144 0.076406,-0.053573 0.065271,-0.075003 0.05224,-0.092297 0.037315,-0.1024476 0.022389,-0.1125984 0.00746,-0.1227492 -0.0026,-0.072371 -0.00782,-0.066732 L 1.842564,5.8676601 1.8243234,5.8122064 1.8007501,5.7620165 1.7717274,5.7167144 1.7372557,5.6762993 1.6973352,5.6407714 1.639527,5.6005442 1.5513931,5.5490384 1.4329337,5.4862539 1.2841486,5.4121908 1.147091,5.3400075 1.0296977,5.2648165 0.93196868,5.1866179 0.85390388,5.1054118 0.78910654,5.0163105 0.73117985,4.9144268 0.68012381,4.7997606 0.63593843,4.6723119 0.60111135,4.5345245 0.57623486,4.3918498 0.56130896,4.2442875 l -0.004975,-0.1524496 0.006397,-0.1759468 0.0191904,-0.1669239 0.0319841,-0.1579009 0.0447776,-0.1488781 0.056979,-0.1355319 0.0666927,-0.1178617 0.0764064,-0.100192 0.0861201,-0.082522 0.0963075,-0.064476 0.1069689,-0.046054 0.1176301,-0.027633 0.1282918,-0.00921 0.1898905,0.021617 0.1678571,0.064853 0.1458234,0.1080871 0.1237903,0.1513217 0.099506,0.1915489 0.072971,0.2287685 0.046436,0.2659879 0.019901,0.3032075 -0.1151426,0.00978 -0.1151426,0.00977 -0.1151426,0.00978 -0.1151426,0.00977 -0.019545,-0.1641049 -0.028312,-0.1374115 -0.037078,-0.1107187 -0.045844,-0.084026 -0.055557,-0.061844 -0.066219,-0.044175 -0.07688,-0.026505 -0.087541,-0.00884 -0.087542,0.00771 -0.07688,0.023121 -0.066219,0.038536 -0.055557,0.053949 -0.043949,0.065416 -0.031391,0.072935 -0.018835,0.080454 -0.006278,0.087973 0.005686,0.086658 0.017058,0.079514 0.028431,0.072371 0.039802,0.065228 0.060296,0.063161 0.089911,0.066168 0.1195255,0.069175 0.1491405,0.072183 0.1613418,0.08083 0.137176,0.083086 0.1130101,0.085342 0.088845,0.087597 0.07309,0.093801 0.06385,0.106959 0.05461,0.1201174 0.04537,0.133276 0.035656,0.1458704 0.025468,0.1609087 0.015281,0.1759468 0.00509,0.190985 L 2.3107187,6.3406106 2.2687841,6.5934402 2.1988927,6.8233373 2.1010449,7.0303004 1.9744117,7.2013597 1.8162683,7.3235449 1.6266147,7.3968561 1.4054509,7.4212931 1.0330143,7.3267405 0.75344998,7.0430826 0.56675794,6.5703194 Z"
  />
  <path
    id="path850"
    class="sl fCHMGF sCHMGF" style="stroke-width: 0.16;"
    d="M 3.6112927,7.3430942 V 6.540055 L 4.8091548,3.6797916 H 3.7458626 V 2.9338973 H 5.4137719 V 3.625654 L 4.1666306,6.6002078 H 5.463051 v 0.7428864 z" />
  />
  
  <circle class="pivotPoint layout" fill="none" cx="0" cy="0" r="1" id="circle828" />
</svg>