<?xml version="1.0" encoding="UTF-8" standalone="no"?>
<?xml-stylesheet href="daySvgStyle.css" type="text/css"?>
<svg version="1.2" baseProfile="tiny" style="shape-rendering:geometricPrecision; fill-rule:evenodd;" width="6.68mm" height="6.68mm" viewBox="-3.34 -3.34 6.68 6.68" xmlns="http://www.w3.org/2000/svg">  
  <title>HRBSEC94</title>
  <desc>port safety zone point symbol</desc>
  <metadata>
    <iho:S100SVG xmlns:iho="http://www.iho.int/SVGMetadata">
      <iho:Description iho:publisher="IHO" iho:creationDate="2022-12-31" iho:source="S131Demo" iho:format="S100SVG" iho:version="0.1" />
    </iho:S100SVG>
  </metadata>
  <rect class="symbolBox layout" fill="none" x="-3.34" y="-3.34" height="6.68" width="6.68" id="rect4546" />
  <rect class="svgBox layout" fill="none" x="-3.34" y="-3.34" height="6.68" width="6.68" id="rect4548" />
  <circle class="fCHGRF sCHMGD" style="stroke-width:0.32" cx="0" cy="0" r="3" id="circle4550" />
  <circle class="pivotPoint layout" fill="none" cx="0" cy="0" r="1" id="circle828" />
  <path
    d="m -0.47466266,-1.1398021 v 0.084836 0.0848355 0.0848355 0.0848355 l -0.0976469,-0.0443556 -0.0948478,-0.0383267 -0.0920487,-0.0322978 -0.0892495,-0.0262689 -0.0870963,-0.0203476 -0.0855891,-0.014534 -0.084082,-0.00872 -0.082575,-0.002907 -0.1340358,0.00689 -0.1178868,0.0206706 -0.101738,0.0344509 -0.085589,0.0482313 -0.067072,0.0609351 -0.047908,0.0725623 -0.028745,0.0841895 -0.00958,0.0958167 0.00635,0.0800985 0.019056,0.0697632 0.031759,0.0594279 0.044463,0.0490926 0.063088,0.0410182 0.085912,0.0369271 0.1087358,0.0328361 0.1315596,0.028745 0.052538,0.0107659 0.052538,0.0107659 0.052538,0.0107659 0.052538,0.0107659 0.18183644,0.04414029 0.15621354,0.05835131 0.13059065,0.07256232 0.10496775,0.08677335 0.0813904,0.10098436 0.058136,0.11691794 0.0348816,0.13285149 0.0116272,0.14878507 -0.0157183,0.17559221 -0.0471547,0.15298378 -0.0785912,0.13037536 -0.11002774,0.1077669 -0.13952638,0.084405 -0.16880968,0.060289 -0.19809301,0.036174 -0.2273763,0.012058 -0.092802,-0.00258 -0.095817,-0.00775 -0.098831,-0.012919 -0.1018456,-0.018087 -0.1034605,-0.023147 -0.1053984,-0.028099 -0.1073363,-0.033051 -0.1092741,-0.038004 v -0.089573 -0.089573 -0.0895725 -0.0895725 l 0.1053984,0.0557675 0.1043218,0.0484467 0.1032452,0.0411258 0.1021686,0.033805 0.1011997,0.026376 0.1003384,0.01884 0.099477,0.011304 0.098616,0.00377 0.1404953,-0.00732 0.1234852,-0.021962 0.10647495,-0.036604 0.0894648,-0.0512458 0.0708398,-0.0648109 0.0505998,-0.0772993 0.0303599,-0.0897878 0.01012,-0.10227627 -0.007321,-0.0895725 -0.0219625,-0.0792372 -0.0366041,-0.0689019 -0.0512458,-0.0585666 -0.0670717,-0.0500615 -0.0858044,-0.0433866 -0.10453718,-0.0367118 -0.1232698,-0.0300369 -0.052968,-0.0103353 -0.052968,-0.0103353 -0.052968,-0.0103353 -0.052968,-0.0103353 -0.1811905,-0.0442479 -0.1542757,-0.05522919 -0.1273609,-0.0662104262 -0.1004461,-0.0771916737 -0.076115,-0.09075672 -0.054368,-0.10690563 -0.032621,-0.12305451 -0.010874,-0.1392034 0.014965,-0.16148886 0.044894,-0.1434021 0.074823,-0.12531535 0.1047524,-0.10722859 0.1318826,-0.085912 0.154491,-0.061366 0.1770995,-0.03682 0.1997079,-0.012273 0.090864,0.00205 0.091726,0.00614 0.092587,0.010228 0.0934482,0.014318 0.0944171,0.01841 0.0954937,0.022501 0.0965703,0.026592 z"
    class="fCHRED sCHRED" style="stroke-width:0.32"
    id="path4532"/>
  <path
    d="M 0.07483012,-1.2242069 H 2.0953787 v 0.26527233 L 0.46929356,1.0547238 H 2.1349973 V 1.3475569 H 0.03521152 V 1.0822846 L 1.6612966,-0.9313738 H 0.07483012 Z"
    class="fCHRED sCHRED" style="stroke-width:0.32"
    id="path4534"/>
  
</svg>