<?xml version="1.0" encoding="UTF-8"?>
<?xml-stylesheet href="daySvgStyle.css" type="text/css"?><svg xmlns="http://www.w3.org/2000/svg" version="1.2" baseProfile="tiny" xml:space="preserve" style="shape-rendering:geometricPrecision; fill-rule:evenodd;" width="4.14mm" height="4.14mm" viewBox="-2.12 -2.12 4.30 4.30">
  <title>MORFAC92</title>
  <desc>tie-up wall</desc>
  <metadata>
    <iho:S100SVG xmlns:iho="http://www.iho.int/SVGMetadata">
      <iho:Description iho:publisher="IHO" iho:creationDate="2022-12-31" iho:source="NIPWG, S131, RMM" iho:format="S100SVG" iho:version="0.1"/>
    </iho:S100SVG>
  </metadata>
  <rect class="symbolBox layout" fill="none" x="-2.12" y="-2.12" height="4.14" width="4.14"/>
  <rect class="svgBox layout" fill="none" x="-2.12" y="-2.12" height="4.14" width="4.14"/>
  <path d=" M -1.96,-1.96 L 1.96,-1.96 L 1.96,1.96 L -1.96,1.96 L -1.96,-1.96 Z" class="fCHWHT sCHMGD" style="stroke-width: 0.32;"/>
  <path
    class="sl fCHMGD sCHMGD" style="stroke-width: 0.64;"   
    d="m 0.30208554,-0.92402125 -0.007518,0.11639972 -0.0215623,0.10841513 -0.0341185,0.098108 -0.0451867,0.0854782 -0.0547666,0.0705259 -0.0628586,0.0532512 c -0.13921822,0.00463 -0.15518894,0.003216 -0.28808174,0 l -0.0628586,-0.0532513 -0.0547666,-0.070526 -0.0451866,-0.0854782 -0.0341186,-0.098108 -0.0215625,-0.1084151 -0.007517,-0.11639975 0.007518,-0.11639975 0.0215623,-0.1084151 0.0341186,-0.098107 0.0451866,-0.085478 0.0547666,-0.070525 0.0628587,-0.053251 c 0.1109538,-0.0041 0.11017795,-1.14e-5 0.28808176,0 l 0.0628586,0.053251 0.0547666,0.070525 0.0451867,0.085478 0.0341186,0.098107 0.0215624,0.1084152 z"/>
  <path
    class="sl f0 sCHMGD" style="stroke-width: 0.32;"   
    d="m 0.85165961,-0.73184204 c 0.058296,0.0540082 0.11103306,0.11316711 0.15734629,0.17667685 0.046313,0.0635096 0.086203,0.13137023 0.1188055,0.20278144 0.032603,0.0714113 0.057919,0.14637306 0.075083,0.22408555 0.017164,0.0777125 0.02618,0.15817557 0.02618,0.24058919 0,0.0824136 -0.009,0.16287671 -0.02618,0.24058921 -0.017165,0.0777124 -0.04248,0.15267436 -0.075083,0.22408555 -0.032602,0.0714113 -0.072492,0.13927173 -0.1188055,0.20278146 -0.046312,0.0635096 -0.09905,0.12266878 -0.15734629,0.1766768 C 0.79336356,1.0104317 0.72950677,1.0592895 0.6609542,1.1021958 0.5924016,1.1451018 0.51915284,1.1820568 0.44207142,1.212262 0.36498992,1.242465 0.28407597,1.265919 0.20019291,1.281822 c -0.0838831,0.015902 -0.1707351,0.024253 -0.25969254,0.024253 -0.0889575,0 -0.17580951,-0.00836 -0.25969255,-0.024253 C -0.40307518,1.26592 -0.48398928,1.242467 -0.5610707,1.212262 -0.6381521,1.182059 -0.71140093,1.145103 -0.7799535,1.1021958 -0.848506,1.0592893 -0.91236239,1.0104321 -0.97065886,0.95642401 -1.0289555,0.90241631 -1.0816921,0.84325693 -1.1280053,0.77974721 -1.1743184,0.71623751 -1.2142074,0.64837694 -1.246811,0.57696575 -1.279413,0.50555445 -1.30473,0.43059269 -1.321895,0.3528802 -1.33906,0.2751677 -1.348075,0.19470462 -1.348075,0.11229099 c 0,-0.08241362 0.009,-0.16287671 0.02618,-0.24058919 0.017164,-0.0777124 0.04248,-0.15267435 0.075084,-0.22408555 0.032601,-0.0714113 0.072492,-0.1392717 0.1188057,-0.20278144 0.046313,-0.0635097 0.09905,-0.12266872 0.15734644,-0.17667685"/>

  <circle class="pivotPoint layout" fill="none" cx="0" cy="0" r="1"/>
</svg>
