<?xml version="1.0" encoding="UTF-8"?>
<?xml-stylesheet href="daySvgStyle.css" type="text/css"?><svg xmlns="http://www.w3.org/2000/svg" version="1.2" baseProfile="tiny" xml:space="preserve" style="shape-rendering:geometricPrecision; fill-rule:evenodd;" width="4.14mm" height="4.14mm" viewBox="-2.12 -2.12 4.30 4.30">
  <title>MORFAC91</title>
  <desc>mooring cable</desc>
  <metadata>
    <iho:S100SVG xmlns:iho="http://www.iho.int/SVGMetadata">
      <iho:Description iho:publisher="IHO" iho:creationDate="2022-12-31" iho:source="NIPWG, S131, RMM" iho:format="S100SVG" iho:version="0.1"/>
    </iho:S100SVG>
  </metadata>
  <rect class="symbolBox layout" fill="none" x="-2.12" y="-2.12" height="4.14" width="4.14"/>
  <rect class="svgBox layout" fill="none" x="-2.12" y="-2.12" height="4.14" width="4.14"/>
  <path d=" M -1.96,-1.96 L 1.96,-1.96 L 1.96,1.96 L -1.96,1.96 L -1.96,-1.96 Z" class="fCHWHT sCHMGD" style="stroke-width: 0.32;"/>
<path
class="sl f0 sCHMGD" style="stroke-width: 0.32;"
     d="m -0.07736901,-0.55346772 0.21604089,0.12573332 0.12150567,0.10551201 0.0880619,0.11625682 0.0535906,0.12451304 0.0180919,0.13028064 L 0.40183005,0.17910874 0.34823945,0.30362176 0.26017755,0.41987858 0.13867187,0.5253906 -0.01367329,0.6157374 -0.19187127,0.6853972 -0.39132112,0.7302295 -0.60742189,0.7460937 -0.82382783,0.7302295 -1.0239491,0.6853972 -1.2028185,0.6157374 -1.3554688,0.5253906 -1.4769745,0.41987861 l -0.088062,-0.11625682 -0.053591,-0.12451304 -0.018092,-0.13028064 0.018092,-0.13028064 0.053591,-0.12451302 0.088062,-0.11625683 0.1215058,-0.10551202 0.1951142,-0.10450131 0.24256517,-0.0908917"
     id="path846" />
<path
class="sl f0 sCHMGD" style="stroke-width: 0.32;"
     d="m 0.77078618,0.07354761 0.19533323,-0.0383838 0.17853209,-0.0615834 0.1580632,-0.0828279 0.1337746,-0.10332586 0.1037164,-0.12217823 0.067065,-0.13772669 0.02382,-0.1499712 -0.02382,-0.14975854 -0.067065,-0.13725881 -0.1037164,-0.12171028 -0.1337747,-0.1031131 -0.1580632,-0.082828 -0.1785321,-0.061583 -0.19533322,-0.038384 -0.20846628,-0.013229 -0.20870842,0.013229 -0.19586568,0.038384 -0.17906461,0.061583 -0.1583052,0.082828 -0.13377466,0.103113 -0.10371637,0.12171035 -0.0670649,0.13725881 -0.0238201,0.14975854 0.0238201,0.14997123 0.0670649,0.13772675 0.10371638,0.12217825 0.13377465,0.10332575 0.1583052,0.0828277"
     id="ellipse848" />
  <circle class="pivotPoint layout" fill="none" cx="0" cy="0" r="1"/>
</svg>
