<?xml version="1.0" encoding="UTF-8" standalone="no"?>
<?xml-stylesheet href="daySvgStyle.css" type="text/css"?>
<svg version="1.2" baseProfile="tiny" style="shape-rendering:geometricPrecision; fill-rule:evenodd;" width="13.34mm" height="8.14mm" viewBox="-6.67 -0.32 13.34 8.14" xmlns="http://www.w3.org/2000/svg">  
  <title>MULTIC91C</title>
  <desc>miscellaneous facilities area symbol</desc>
  <metadata>
    <iho:S100SVG xmlns:iho="http://www.iho.int/SVGMetadata">
      <iho:Description iho:publisher="IHO" iho:creationDate="2022-12-31" iho:source="S131Demo" iho:format="S100SVG" iho:version="0.1" />
    </iho:S100SVG>
  </metadata>
  <rect class="symbolBox layout" fill="none" x="-6.35" y="2.5" height="5" width="12.7"/>
  <rect class="svgBox layout" fill="none" x="-6.35" y="0" height="7.5" width="12.7"/>
  <path
    id="path835"
    class="sl fCHMGF sCHMGF" style="stroke-width: 0.16;"
    d="m -3.7304365,6.6671551 -0.067342,0.1632112 -0.067342,0.1632112 -0.067342,0.1632113 L -3.999806,7.32 l -0.097286,-0.09928 -0.095602,-0.1173319 -0.093919,-0.1353824 -0.092235,-0.1534339 -0.073115,0.1162027 -0.075039,0.098905 -0.076963,0.081605 -0.078886,0.064307 -0.082134,0.047384 -0.088628,0.033846 -0.095121,0.020307 -0.1016148,0.00676 -0.1952928,-0.02482 -0.1683561,-0.07446 -0.1414189,-0.1241005 -0.1144821,-0.173741 -0.087545,-0.204578 -0.062532,-0.2166122 -0.03752,-0.2286462 -0.012507,-0.24068 0.03295,-0.4037034 0.098849,-0.3597041 0.1647483,-0.3157047 0.2306477,-0.2717053 -0.103539,-0.2591073 -0.073956,-0.2478252 -0.044374,-0.2365435 -0.014791,-0.2252616 0.011063,-0.2021337 0.03319,-0.1822024 0.055317,-0.1622711 0.077444,-0.1423397 0.095722,-0.117143 0.1101529,-0.083675 0.1245835,-0.050204 0.1390138,-0.016735 0.1348051,0.017486 0.1215771,0.05246 0.1083491,0.087435 0.095121,0.1224087 0.078286,0.1489207 0.055919,0.1699805 0.033551,0.19104 0.011183,0.2120993 -0.00565,0.1400833 -0.016957,0.1344425 -0.02826,0.1288012 -0.039564,0.1231602 -0.053874,0.1222211 -0.073115,0.1289893 -0.092355,0.1357585 -0.1115961,0.1425279 0.08033,0.2023217 0.08033,0.2023218 0.08033,0.2023218 0.08033,0.2023217 0.026335,-0.1013486 0.025133,-0.1175194 0.023931,-0.1336901 0.022728,-0.1498612 0.1000516,0.043623 0.1000515,0.043623 0.1000516,0.043623 0.1000515,0.043623 -0.04714,0.2982177 -0.049064,0.2508338 -0.050988,0.20345 -0.052912,0.156066 0.039323,0.066562 0.044855,0.070324 0.050386,0.074084 0.055918,0.077845 0.055678,0.072956 0.047741,0.059417 0.039804,0.04588 0.031867,0.032342 8e-7,2e-7 z m -1.2063907,-2.3977761 0.029823,-0.043623 0.029823,-0.043623 0.029823,-0.043623 0.029823,-0.043623 0.058082,-0.0974 0.041488,-0.096648 0.024893,-0.095897 0.0083,-0.095144 -0.00421,-0.08311 -0.012626,-0.074837 -0.021045,-0.066562 -0.029462,-0.058291 -0.036005,-0.048596 -0.039996,-0.03489 -0.044494,-0.020871 -0.048823,-0.00695 -0.047741,0.00601 -0.043171,0.01805 -0.038602,0.030084 -0.034032,0.042119 -0.027105,0.050659 -0.019072,0.056142 -0.011544,0.061298 -0.00385,0.066564 0.00625,0.083673 0.01876,0.091572 0.031267,0.099469 0.043772,0.1073658 0.027418,0.06017 0.027418,0.06017 0.027418,0.060169 z m -0.1750901,0.9175932 -0.069747,0.076152 -0.061089,0.08405 -0.052431,0.091948 -0.043772,0.099844 -0.033757,0.1035732 -0.023965,0.1062704 -0.01443,0.10887 -0.00481,0.1115023 0.00601,0.1342543 0.018038,0.119964 0.030064,0.105674 0.042089,0.091383 0.052089,0.072591 0.059507,0.05151 0.0659,0.031025 0.072633,0.010341 0.099931,-0.02106 0.1016148,-0.063178 0.1032985,-0.1052975 0.104982,-0.1474166 -0.2260786,-0.5310013 z" />
  <path
    id="path837"
    class="sl fCHMGF sCHMGF" style="stroke-width: 0.16;"
    d="m -1.8802663,4.9553176 -0.2183817,0.075212 -0.2183818,0.075213 -0.099571,-0.3768149 -0.202508,-0.125605 -0.1476722,0.054153 -0.1159252,0.1624591 -0.075039,0.2910725 -0.025013,0.4399935 0.025013,0.4851209 0.075039,0.3181491 0.1168872,0.1759974 0.1505583,0.058666 0.1140011,-0.033093 0.091874,-0.09928 0.069266,-0.1865271 0.046178,-0.2888162 0.2183818,0.0707 0.2183817,0.0707 L -2.1183693,6.9890663 -2.6325765,7.2778824 -2.9894911,7.1560377 -3.240582,6.7905049 -3.3892162,6.2534872 -3.438761,5.617189 l 0.055798,-0.7227926 0.1673939,-0.5257357 0.2597492,-0.3226619 0.3290156,-0.1075533 0.2669644,0.060922 0.2121285,0.1827666 0.1601787,0.3151405 z" />
  <path
    id="path839"
    class="sl fCHMGF sCHMGF" style="stroke-width: 0.16;"
    d="M -0.41954104,7.2056769 V 2.7952131 H 1.165891 V 3.5413216 H 0.04608341 V 4.5852717 H 1.0138896 V 5.3313802 H 0.04608341 v 1.8742967 z" />
  <path
    id="path841"
    class="sl fCHMGF sCHMGF" style="stroke-width: 0.16;"
    d="M 3.5740406,7.2056769 H 3.0660867 L 2.8640595,6.2038457 H 1.9405069 L 1.7500241,7.2056769 H 1.2536146 L 2.1540784,2.7952131 H 2.6485639 Z M 2.7139822,5.4607458 2.396511,3.8241207 2.0828879,5.4607458 Z" />
  <path
    id="path843"
    class="sl fCHMGF sCHMGF" style="stroke-width: 0.16;"
    d="M 5.4126671,5.5840944 5.638745,5.7209813 5.864823,5.8578681 5.7238851,6.498679 5.5127186,6.9409288 5.2380578,7.1958993 4.9066371,7.2808895 4.4972917,7.1447548 4.1735673,6.7363507 3.9311347,5.9977635 3.8503239,5.0395556 3.9316158,4.0339638 4.1754913,3.273565 4.506912,2.8583916 4.9354982,2.7200005 5.2924128,2.8237938 5.5858331,3.1351739 5.7474548,3.5014589 5.8590508,4.0106479 5.6281627,4.1159454 5.3972745,4.221243 5.3308942,3.9053503 5.2202603,3.6736957 5.0773982,3.5292876 4.9104853,3.4811515 4.6781541,3.568398 4.4929626,3.8301377 4.3717462,4.292695 4.3313408,4.982394 4.3707842,5.6954089 4.4891144,6.1677437 4.6704579,6.4317398 4.8989409,6.5197385 5.071145,6.4640812 5.2183362,6.2971094 5.3342613,6.0060368 Z" />
  
  <circle class="pivotPoint layout" fill="none" cx="0" cy="0" r="1" id="circle828" />
</svg>