<?xml version="1.0" encoding="UTF-8" standalone="no"?>
<?xml-stylesheet href="daySvgStyle.css" type="text/css"?>
<svg version="1.2" baseProfile="tiny" style="shape-rendering:geometricPrecision; fill-rule:evenodd;" width="6.68mm" height="6.68mm" viewBox="-3.34 -3.34 6.68 6.68" xmlns="http://www.w3.org/2000/svg">
  <title>MULTIC91</title>
  <desc>multiple categories point symbol</desc>
   <metadata xmlns:iho="http://www.iho.int/SVGMetadata">
    <iho:S100SVG>
      <iho:Description iho:publisher="IHO" iho:creationDate="2022-12-20" iho:source="S131Demo"  iho:format="S100SVG" iho:version="0.1" />
    </iho:S100SVG>
  </metadata>
  <rect class="symbolBox layout" fill="none" x="-3.34" y="-3.34" height="6.68" width="6.68" id="rect4546" />
  <rect class="svgBox layout" fill="none" x="-3.34" y="-3.34" height="6.68" width="6.68" id="rect4548" />
  <circle class="f0 sCHGRD" style="stroke-width:0.31999999" cx="0" cy="0" r="3" id="circle4550" />
  <circle class="pivotPoint layout" fill="none" cx="0" cy="0" r="1" id="circle828" />
   <path
      d="M 0.19313943,1.1893904 -0.03613168,1.4622419 Q -0.21803272,1.3428694 -0.46246225,1.0700178 -0.7921579,1.4432939 -1.2582793,1.4432939 q -0.3960138,0 -0.6385485,-0.2482191 -0.2425347,-0.24821915 -0.2425347,-0.56275638 0,-0.25579834 0.1648478,-0.46422662 0.1648478,-0.20842828 0.4945435,-0.3675917 -0.153479,-0.17621663 -0.2330607,-0.31832683 -0.077687,-0.14211019 -0.077687,-0.28990479 0,-0.25390358 0.1989542,-0.43769938 0.1989543,-0.1837959 0.4926487,-0.1837959 0.27853597,0 0.46043701,0.1743219 0.18379585,0.172427 0.18379585,0.41875134 0,0.20084908 -0.13263618,0.37138131 -0.13074138,0.16863742 -0.39222413,0.30506321 l 0.50212268,0.63665365 q 0.0738973,-0.1553738 0.13074137,-0.38843452 l 0.35432808,0.0738973 Q -0.08539654,0.52810428 -0.24077035,0.7630598 -0.03423688,1.0264374 0.19313943,1.1893904 Z M -1.1540652,-0.37761134 q 0.20463869,-0.11558295 0.27664119,-0.21790229 0.0738973,-0.10231934 0.0738973,-0.23306071 0,-0.144005 -0.0947401,-0.23116596 -0.0928453,-0.089056 -0.21979709,-0.089056 -0.1288466,0 -0.2254815,0.085266 -0.096635,0.0852662 -0.096635,0.21979713 0,0.0473701 0.024633,0.12126737 0.024632,0.0720025 0.2614822,0.34485446 z M -0.67657494,0.79906105 -1.3018598,0.022192 q -0.2349555,0.14021539 -0.3524333,0.28800999 -0.1155829,0.1458998 -0.1155829,0.297484 0,0.18569065 0.1402154,0.36001249 0.1421102,0.17242702 0.3751709,0.17242702 0.153479,0 0.3145372,-0.09474 0.16105822,-0.0947402 0.26337756,-0.24632445 z"
      class="fCHGRD sCHGRD" style="stroke-width:0.16" id="path4543" />
   <path
      d="M 2.1921561,0.70053132 Q 2.125838,1.0851762 1.8889877,1.2651825 1.6521374,1.4432939 1.3527586,1.4432939 q -0.4376994,0 -0.67644452,-0.2861152 -0.23874512,-0.28800996 -0.23874512,-0.7617106 0,-0.39222412 0.13642578,-0.62717964 0.13832059,-0.23685032 0.34485407,-0.33159045 0.20653349,-0.0966349 0.43390979,-0.0966349 0.3107476,0 0.5305447,0.16105822 0.2216919,0.16105822 0.2728516,0.47370064 L 1.8264592,0.02598161 Q 1.7752996,-0.17676227 1.6597166,-0.2790816 1.5460285,-0.38140094 1.367917,-0.38140094 q -0.2861152,0 -0.43390977,0.20274387 -0.1477946,0.20274387 -0.1477946,0.56654596 0,0.3713813 0.14400499,0.57412518 Q 1.0761174,1.1628631 1.348969,1.1628631 q 0.2197971,0 0.3448541,-0.1250569 0.1269517,-0.1269518 0.1591634,-0.37896054 z"
      class="fCHGRD sCHGRD" style="stroke-width:0.16" id="path4545" />
</svg>
