<?xml version="1.0" encoding="UTF-8" standalone="no"?>
<?xml-stylesheet href="daySvgStyle.css" type="text/css"?>
<svg version="1.2" baseProfile="tiny" style="shape-rendering:geometricPrecision; fill-rule:evenodd;" width="8.7mm" height="5.14mm" viewBox="-0.37 -4.62 8.34 5.14" xmlns="http://www.w3.org/2000/svg">  
 
  <title id="title2">STRADC92</title>
  <desc id="desc4">Straddle carrier point symbol</desc>
  <metadata id="metadata6">
   <iho:S100SVG xmlns:iho="http://www.iho.int/SVGMetadata">
      <iho:Description iho:publisher="IHO" iho:creationDate="2022-12-31" iho:source="NIPWG" iho:format="S100SVG" iho:version="0.1" />
    </iho:S100SVG>
  </metadata>
  <rect class="symbolBox layout" x="-0.37" y="-4.62" height="5.14" width="8.7" id="rect8" style="fill:none" />
  <rect class="svgBox layout" x="-0.37" y="-4.62" height="5.14" width="8.7" id="rect10" style="fill:none" />
  <circle class="fLANDF" cx="0.02" cy="0.02"  r="0.31" id="circle12" />

 <path
  d="m 0.2442399,-2.0307299 0.2449463,-0.028939 0.2449464,-0.028939 0.1767332,0.4356324 0.3648358,0.1452108 0.2030884,-0.029456 0.1545125,-0.088367 0.097668,-0.133842 0.032556,-0.1617472 -0.011369,-0.095601 -0.034106,-0.080099 -0.057361,-0.065629 -0.081132,-0.052193 L 1.4203949,-2.2777439 1.12894,-2.371795 0.8514375,-2.4730808 0.659718,-2.5826349 0.5258761,-2.713893 0.4220064,-2.8802911 l -0.065112,-0.1927531 -0.021704,-0.206189 0.027905,-0.2356446 0.083716,-0.2108398 0.1348754,-0.1741496 0.1772502,-0.1255738 0.221692,-0.075964 0.2682007,-0.025321 0.390157,0.059428 0.294039,0.1782837 0.1881022,0.2888713 0.072347,0.3911906 -0.2511475,0.013436 -0.2511475,0.013436 -0.052194,-0.2072224 -0.090434,-0.133842 -0.1328085,-0.072864 -0.1793172,-0.024288 -0.1793172,0.021187 -0.1328085,0.063562 -0.082165,0.095085 -0.027388,0.1157552 0.024805,0.1142049 0.074414,0.094568 0.1638144,0.088883 0.2930053,0.097152 0.3255615,0.1126546 0.2201417,0.1188558 0.1493449,0.1379761 0.1090373,0.1741496 0.066662,0.2108399 0.022221,0.252181 -0.060978,0.3632851 -0.1829345,0.3002401 -0.3105754,0.201538 -0.4480347,0.0671793 -0.7110678,-0.2599324 z"
  class="sl fCHMGD sCHMGD"
  style="stroke-width:0.08"
  id="path14" />
<path
   d="m 3.5060565,-3.2358242 v 0.2315104 0.2315104 h -0.162264 -0.162264 v 0.4423503 0.4423503 l 0.00362,0.2268596 0.010852,0.1059366 0.043925,0.062012 0.073897,0.020671 0.080615,-0.013953 0.109554,-0.041858 0.020671,0.2253093 0.020671,0.2253092 -0.1762164,0.065112 -0.1979208,0.021704 -0.1638143,-0.021704 -0.1276408,-0.065112 -0.091467,-0.105937 -0.055294,-0.1441771 -0.021704,-0.1819011 -0.00723,-0.3059245 V -2.2942796 -2.7728034 H 2.5944839 2.4849299 v -0.2315104 -0.2315104 h 0.109554 0.1095541 v -0.2180746 -0.2180746 l 0.2387451,-0.1694987 0.2387452,-0.1694987 v 0.3875733 0.3875733 h 0.1622641 z"
   class="sl fCHMGD sCHMGD"
   style="stroke-width:0.08"
   id="path16" />
<path
    d="m 5.4346209,-2.1568205 0.2428792,0.094051 0.2428793,0.094051 -0.151412,0.4402832 -0.2268595,0.3038575 -0.2950725,0.1751831 -0.3560506,0.0583944 -0.4397665,-0.0935343 -0.3477824,-0.2806031 -0.2604492,-0.5074626 -0.086816,-0.6583578 0.087333,-0.6909139 0.2619995,-0.5224488 0.3560507,-0.2852539 0.460437,-0.095085 0.3834391,0.071314 0.3152263,0.2139405 0.1736328,0.2516642 0.1198893,0.3498495 -0.2480469,0.072347 -0.2480469,0.072347 -0.071313,-0.2170413 -0.1188557,-0.1591634 -0.153479,-0.099219 -0.1793173,-0.033073 -0.2495972,0.059945 -0.1989542,0.179834 -0.1302247,0.3178101 -0.043408,0.4738729 0.042375,0.4898926 0.127124,0.324528 0.1948202,0.1813843 0.2454631,0.060461 0.1850016,-0.038241 0.1581299,-0.1147217 0.1245402,-0.1999878 z"
    class="sl fCHMGD sCHMGD"
    style="stroke-width:0.08"
    id="path18" />
<path
     d="M 6.8030566,-1.0150001 H 6.5643115 6.3255664 V -2.1126076 -3.210215 h 0.2211751 0.2211752 v 0.1560628 0.1560628 l 0.1074869,-0.181901 0.095085,-0.107487 0.097668,-0.05426 0.1111046,-0.018087 0.1596802,0.027388 0.1524455,0.082165 -0.074414,0.2532145 -0.074414,0.2532145 -0.1147217,-0.071313 -0.1085205,-0.023771 -0.093535,0.018604 -0.082165,0.055811 -0.064079,0.1023193 -0.043408,0.162264 -0.024805,0.2728516 -0.00827,0.4340821 v 0.3389974 z"
     class="sl fCHMGD sCHMGD"
     style="stroke-width:0.08"
     id="path20" />
 <path class="sl f0 sCHMGD"
  style="stroke-width:0.16"
  d="m 0.1171875,-4.2773438 h 7.78125 v 3.50781255 h -7.78125 z"
  id="rect845" />
  <circle class="pivotPoint layout" fill="none" cx="0" cy="0" r="1" id="circle22" />
</svg>