<?xml version="1.0" encoding="UTF-8"?>
<?xml-stylesheet href="daySvgStyle.css" type="text/css"?>
<svg xmlns="http://www.w3.org/2000/svg" version="1.2" baseProfile="tiny" xml:space="preserve" style="shape-rendering:geometricPrecision; fill-rule:evenodd;" width="7.52mm" height="3.36mm" viewBox="-3.83 -1.58 7.52 3.36">
  <title>STRADC91</title>
  <desc>Straddle carrier area symbol</desc>
  <metadata>
    <iho:S100SVG xmlns:iho="http://www.iho.int/SVGMetadata">
      <iho:Description iho:publisher="IHO" iho:creationDate="2022-12-31" iho:source="NIPWG" iho:format="S100SVG" iho:version="0.1"/>
    </iho:S100SVG>
  </metadata>
  <rect class="symbolBox layout" fill="none" x="-3.67" y="-1.42" height="3.04" width="7.2"/>
  <rect class="svgBox layout" fill="none" x="-3.67" y="-1.42" height="3.04" width="7.2"/>
  <circle class="fLANDF" cx="0.02" cy="0.02" r="0.31"/>
  <path
     d="m -3.7804013,0.66427025 0.2449463,-0.0289388 0.2449464,-0.0289388 0.1767332,0.43563235 0.3648358,0.1452108 0.2030884,-0.029456 0.1545125,-0.088367 0.097668,-0.13384195 0.032556,-0.16174725 -0.011369,-0.0956014 -0.034106,-0.0800985 -0.057361,-0.0656291 -0.081132,-0.0521932 -0.1591636,-0.0630452 -0.2914549,-0.0940511 -0.2775025,-0.10128581 -0.1917195,-0.10955405 -0.1338419,-0.13125815 -0.1038697,-0.16639812 -0.065112,-0.1927531 -0.021704,-0.20618898 0.027905,-0.23564454 0.083716,-0.21083984 0.1348754,-0.1741496 0.1772502,-0.1255738 0.221692,-0.075964 0.2682007,-0.025321 0.390157,0.059428 0.294039,0.1782837 0.1881022,0.28887129 0.072347,0.39119064 -0.2511475,0.0134359 -0.2511475,0.0134358 -0.052194,-0.20722247 -0.090434,-0.13384196 -0.1328085,-0.0728638 -0.1793172,-0.0242879 -0.1793172,0.0211873 -0.1328085,0.063562 -0.082165,0.0950847 -0.027388,0.11575519 0.024805,0.11420492 0.074414,0.0945679 0.1638144,0.0888835 0.2930053,0.0971517 0.3255615,0.11265463 0.2201417,0.1188558 0.1493449,0.13797608 0.1090373,0.17414959 0.066662,0.21083986 0.022221,0.252181 L -1.8218645,1.1350426 -2.004799,1.4352827 -2.3153744,1.6368207 -2.7634091,1.704 -3.4744769,1.4440676 Z"
    class="sl f0 sCHMGD" style="stroke-width: 0.08;"/>
  <path
     d="m -0.51858471,-0.54082414 v 0.23151043 0.23151043 H -0.68084872 -0.84311273 V 0.36454701 0.8068973 l 0.003617,0.2268596 0.0108521,0.1059366 0.043925,0.062012 0.0738973,0.020671 0.0806152,-0.013953 0.10955406,-0.041858 0.0206706,0.2253093 0.0206706,0.2253092 L -0.65552732,1.682296 -0.85344807,1.704 -1.0172624,1.682296 -1.1449032,1.617184 -1.2363705,1.511247 -1.2916642,1.3670699 -1.3133685,1.1851688 -1.3206032,0.87924431 v -0.47852379 -0.4785238 h -0.1095541 -0.109554 v -0.23151043 -0.23151043 h 0.109554 0.1095541 v -0.21807455 -0.21807456 l 0.2387451,-0.16949875 0.23874517,-0.1694987 v 0.38757328 0.38757328 h 0.16226411 z"
     class="sl f0 sCHMGD" style="stroke-width: 0.08;"/>
  <path
     d="M 1.4099797,0.53817959 1.6528589,0.63223071 1.8957382,0.72628182 1.7443262,1.166565 1.5174667,1.4704225 1.2223942,1.6456056 0.86634361,1.704 0.42657714,1.6104657 0.07879473,1.3298626 -0.1816545,0.82239999 -0.26847091,0.1640422 l 0.0873332,-0.69091394 0.26199953,-0.52244876 0.35605064,-0.2852539 0.46043704,-0.095085 0.38343913,0.071314 0.3152263,0.2139405 0.1736328,0.25166421 0.1198893,0.34984945 -0.2480469,0.072347 -0.2480469,0.072347 L 1.3221297,-0.61523845 1.203274,-0.77440187 1.049795,-0.87362062 0.87047772,-0.90669354 0.62088054,-0.84674887 0.42192626,-0.66691488 0.29170164,-0.3491048 0.24829344,0.12476811 0.29066812,0.61466072 0.41779215,0.93918873 0.61261231,1.120573 0.85807538,1.1810344 1.043077,1.1427939 1.2012069,1.0280722 1.3257471,0.82808439 Z"
    class="sl f0 sCHMGD" style="stroke-width: 0.08;"/>
  <path
     d="M 2.7784154,1.68 H 2.5396703 2.3009252 V 0.58239253 -0.51521494 h 0.2211751 0.2211752 v 0.15606284 0.15606283 l 0.1074869,-0.18190105 0.095085,-0.10748699 0.097668,-0.0542603 0.1111046,-0.0180867 0.1596802,0.0273885 0.1524455,0.0821655 -0.074414,0.25321453 -0.074414,0.25321453 -0.1147217,-0.07131348 -0.1085205,-0.02377116 -0.093535,0.01860352 -0.082165,0.05581055 -0.064079,0.10231934 -0.043408,0.16226401 -0.024805,0.27285158 -0.00827,0.43408209 v 0.3389974 z"
    class="sl f0 sCHMGD" style="stroke-width: 0.08;"/>
  <circle class="pivotPoint layout" fill="none" cx="0" cy="0" r="1"/>
</svg>
