<?xml version="1.0" encoding="utf-8"?>
<?xml-stylesheet type='text/css' href='daySvgStyle.css'?>
<svg version="1.2" baseProfile="tiny" style="shape-rendering:geometricPrecision; fill-rule:evenodd;" width="5.36mm" height="5.36mm" viewBox="-2.68 -2.68 5.36 5.36" xmlns="http://www.w3.org/2000/svg">
  <title>TRMCHE91</title>
  <desc>terminal, Chemical for S131</desc>
  <metadata>
    <iho:S100SVG xmlns:iho="http://www.iho.int/SVGMetadata">
      <iho:Description iho:publisher="IHO" iho:creationDate="2022-12-31" iho:source="NIPWG, RMM, IEHG" iho:format="SVG" iho:version="0.1" />
    </iho:S100SVG>
  </metadata>
 
    <rect class="symbolBox layout" fill="none" x="-2.68" y="-2.68" height="5.36" width="5.36"/>
    <rect class="svgBox layout" fill="none" x="-2.68" y="-2.68" height="5.36" width="5.36"/>
    <circle cx="0.00" cy="0.00" r="2.60" class="f0 sCHMGD" style="stroke-width:0.16" />
    <path class="fCHMGD sCHMGD" style="stroke-width:0.08" d="M -0.73,-0.23 L -0.77,-0.35 L -0.82,-0.43 L -0.87,-0.47 L -0.92,-0.51 L -0.99,-0.55 L -1.08,-0.57 L -1.16,-0.57 L -1.23,-0.57 L -1.33,-0.55 L -1.41,-0.51 L -1.46,-0.48 L -1.51,-0.45 L -1.56,-0.38 L -1.61,-0.30 L -1.63,-0.22 L -1.65,-0.12 L -1.66,-0.02 L -1.66,0.08 L -1.65,0.14 L -1.63,0.25 L -1.58,0.34 L -1.54,0.40 L -1.46,0.48 L -1.37,0.53 L -1.29,0.55 L -1.20,0.56 L -1.12,0.56 L -1.06,0.55 L -0.96,0.52 L -0.89,0.48 L -0.84,0.44 L -0.78,0.36 L -0.75,0.30 L -0.73,0.26 L -0.72,0.17 L -0.89,0.14 L -0.91,0.22 L -0.94,0.28 L -0.98,0.34 L -1.01,0.36 L -1.04,0.39 L -1.10,0.41 L -1.18,0.41 L -1.23,0.41 L -1.29,0.39 L -1.36,0.34 L -1.41,0.29 L -1.44,0.22 L -1.46,0.10 L -1.47,0.02 L -1.47,-0.06 L -1.45,-0.16 L -1.42,-0.25 L -1.39,-0.31 L -1.36,-0.35 L -1.29,-0.39 L -1.20,-0.42 L -1.12,-0.42 L -1.05,-0.40 L -0.99,-0.36 L -0.95,-0.31 L -0.93,-0.26 L -0.91,-0.20 L -0.73,-0.23 Z" />
    <path class="fCHMGD sCHMGD" style="stroke-width:0.08" d="M -0.55,-0.96 L -0.55,0.54 L -0.37,0.54 L -0.37,-0.14 L -0.36,-0.21 L -0.31,-0.29 L -0.26,-0.34 L -0.20,-0.38 L -0.12,-0.41 L -0.05,-0.41 L 0.01,-0.40 L 0.07,-0.36 L 0.12,-0.31 L 0.14,-0.22 L 0.14,-0.17 L 0.15,0.54 L 0.33,0.54 L 0.33,-0.22 L 0.32,-0.30 L 0.30,-0.37 L 0.26,-0.45 L 0.22,-0.50 L 0.16,-0.53 L 0.09,-0.56 L 0.01,-0.57 L -0.08,-0.57 L -0.16,-0.56 L -0.22,-0.54 L -0.28,-0.51 L -0.37,-0.44 L -0.37,-0.96 L -0.55,-0.96 Z" />
    <path class="fCHMGD sCHMGD" style="stroke-width:0.08" d="M 1.55,0.04 L 1.55,-0.11 L 1.52,-0.23 L 1.49,-0.31 L 1.46,-0.36 L 1.40,-0.44 L 1.33,-0.49 L 1.27,-0.53 L 1.19,-0.55 L 1.12,-0.57 L 1.04,-0.57 L 0.98,-0.57 L 0.90,-0.55 L 0.82,-0.53 L 0.75,-0.48 L 0.70,-0.43 L 0.65,-0.37 L 0.60,-0.29 L 0.57,-0.19 L 0.55,-0.11 L 0.55,-0.02 L 0.55,0.08 L 0.56,0.17 L 0.58,0.23 L 0.61,0.32 L 0.66,0.38 L 0.71,0.44 L 0.79,0.50 L 0.87,0.54 L 0.97,0.56 L 1.05,0.57 L 1.15,0.56 L 1.24,0.54 L 1.33,0.51 L 1.40,0.45 L 1.44,0.41 L 1.50,0.34 L 1.52,0.28 L 1.55,0.21 L 1.35,0.19 L 1.31,0.28 L 1.28,0.33 L 1.25,0.36 L 1.20,0.39 L 1.16,0.40 L 1.11,0.41 L 1.04,0.41 L 1.00,0.41 L 0.94,0.39 L 0.90,0.37 L 0.86,0.34 L 0.83,0.31 L 0.78,0.24 L 0.75,0.15 L 0.74,0.04 L 0.75,-0.11 L 0.75,-0.16 L 0.77,-0.23 L 0.81,-0.31 L 0.87,-0.36 L 0.94,-0.40 L 1.00,-0.42 L 1.07,-0.42 L 1.16,-0.41 L 1.21,-0.38 L 1.27,-0.33 L 1.31,-0.28 L 1.34,-0.22 L 1.35,-0.16 L 1.35,-0.11 L 0.75,-0.11 L 0.74,0.04 L 1.55,0.04 Z" />
    <circle class="pivotPoint layout" fill="none" cx="0" cy="0" r="1" />
 
</svg>