<?xml version="1.0" encoding="utf-8"?>
<?xml-stylesheet type='text/css' href='daySvgStyle.css'?>
<svg version="1.2" baseProfile="tiny" style="shape-rendering:geometricPrecision; fill-rule:evenodd;" width="5.36mm" height="5.36mm" viewBox="-2.68 -2.68 5.36 5.36" xmlns="http://www.w3.org/2000/svg">
  <title>TRMLPG91</title>
  <desc>terminal, liquefied petroleum gas, for S131</desc>
  <metadata>
    <iho:S100SVG xmlns:iho="http://www.iho.int/SVGMetadata">
      <iho:Description iho:publisher="IHO" iho:creationDate="2022-12-31" iho:source="NIPWG, RMM" iho:format="SVG" iho:version="0.1" />
    </iho:S100SVG>
  </metadata>
 
    <rect class="symbolBox layout" fill="none" x="-2.68" y="-2.68" height="5.36" width="5.36"/>
    <rect class="svgBox layout" fill="none" x="-2.68" y="-2.68" height="5.36" width="5.36"/>
    <circle cx="0.00" cy="0.00" r="2.60" class="f0 sCHMGD" style="stroke-width:0.16" />
  <path class="fCHMGD sCHMGD" style="stroke-width:0.04"
    d="M -2.1760684,0.97827154 V -1.025396 H -1.8425832 V 0.63789611 H -1.0102481 V 0.97827154 Z"
  />
  <path class="fCHMGD sCHMGD" style="stroke-width:0.04"
    d="M -0.74263307,0.97827154 V -1.0419325 H -0.20519817 Q 0.09521416,-1.0419325 0.18754272,-1.0129937 0.33499281,-0.96614036 0.43007744,-0.81317812 0.52654012,-0.66021588 0.52654012,-0.41905919 0.52654012,-0.19995112 0.44385782,-0.05112299 0.36117553,0.0963271 0.23715209,0.15696078 0.11312866,0.21621642 -0.19003975,0.21621642 H -0.40914782 V 0.97827154 Z M -0.40914782,-0.70017898 V -0.12691509 H -0.2244907 Q -0.03845555,-0.12691509 0.02769029,-0.15309782 0.09521416,-0.17928054 0.13793334,-0.24680442 0.18065253,-0.31570633 0.18065253,-0.41492508 0.18065253,-0.51552186 0.1365553,-0.58442377 0.09245808,-0.65332568 0.02769029,-0.67675233 -0.03707751,-0.70017898 -0.24653931,-0.70017898 Z"
  />
  <path class="fCHMGD sCHMGD" style="stroke-width:0.04"
    d="M 1.5989295,0.23550895 V -0.10486648 H 2.3196435 V 0.69990783 Q 2.2107785,0.82806538 2.0109629,0.92039394 1.8111474,1.0127225 1.6099538,1.0127225 1.364663,1.0127225 1.1772498,0.89283318 0.98983661,0.77156581 0.87959356,0.53178717 0.77072854,0.29063048 0.77072854,-0.03458653 0.77072854,-0.36807178 0.8809716,-0.60509435 0.99259269,-0.84211692 1.1689816,-0.95925016 1.3467485,-1.0763834 1.5934173,-1.0763834 1.8896956,-1.0763834 2.0674625,-0.92479921 2.2466075,-0.77459305 2.2975949,-0.48244895 L 1.9668657,-0.40665685 Q 1.9296587,-0.56237516 1.8304399,-0.64505746 1.7312212,-0.72773975 1.5934173,-0.72773975 1.3798214,-0.72773975 1.2475298,-0.56099712 1.1152381,-0.39563254 1.1152381,-0.05525711 1.1152381,0.30992302 1.2585541,0.50009229 1.3811995,0.66407883 1.5906613,0.66407883 1.688502,0.66407883 1.7932329,0.61860357 1.8993418,0.57175028 1.9820241,0.49182406 V 0.23550895 Z" />
  <circle class="pivotPoint layout" fill="none" cx="0" cy="0" r="1" />
 
</svg>