<?xml version="1.0" encoding="utf-8"?>
<?xml-stylesheet type='text/css' href='daySvgStyle.css'?>
<svg version="1.2" baseProfile="tiny" style="shape-rendering:geometricPrecision; fill-rule:evenodd;" width="5.36mm" height="5.36mm" viewBox="-2.68 -2.68 5.36 5.36" xmlns="http://www.w3.org/2000/svg">
  <title>TRMOIL91</title>
  <desc>terminal, Oil for S131</desc>
  <metadata>
    <iho:S100SVG xmlns:iho="http://www.iho.int/SVGMetadata">
      <iho:Description iho:publisher="IHO" iho:creationDate="2022-12-31" iho:source="NIPWG, RMM, IEHG" iho:format="SVG" iho:version="0.1" />
    </iho:S100SVG>
  </metadata>
 
  <rect class="symbolBox layout" fill="none" x="-2.68" y="-2.68" height="5.36" width="5.36"/>
  <rect class="svgBox layout" fill="none" x="-2.68" y="-2.68" height="5.36" width="5.36"/>
  <circle cx="0.00" cy="0.00" r="2.60" class="f0 sCHMGD" style="stroke-width:0.16" />
  <path class="fCHMGD sCHMGD" style="stroke-width:0.16" d="M -0.83,-0.48 L -0.92,-0.47 L -0.99,-0.46 L -1.06,-0.44 L -1.12,-0.40 L -1.16,-0.37 L -1.23,-0.30 L -1.26,-0.25 L -1.30,-0.16 L -1.33,-0.08 L -1.34,-0.01 L -1.34,0.10 L -1.34,0.20 L -1.32,0.28 L -1.30,0.36 L -1.27,0.42 L -1.23,0.48 L -1.17,0.53 L -1.11,0.59 L -1.05,0.61 L -1.00,0.64 L -0.90,0.66 L -0.81,0.66 L -0.73,0.65 L -0.64,0.62 L -0.57,0.59 L -0.52,0.56 L -0.46,0.52 L -0.42,0.46 L -0.36,0.34 L -0.33,0.25 L -0.32,0.12 L -0.32,0.02 L -0.33,-0.06 L -0.35,-0.16 L -0.38,-0.22 L -0.42,-0.29 L -0.50,-0.37 L -0.57,-0.42 L -0.63,-0.44 L -0.73,-0.47 L -0.83,-0.48 L -0.81,-0.33 L -0.74,-0.31 L -0.67,-0.28 L -0.61,-0.24 L -0.55,-0.15 L -0.52,-0.06 L -0.51,0.06 L -0.51,0.15 L -0.53,0.22 L -0.55,0.32 L -0.59,0.38 L -0.62,0.42 L -0.68,0.47 L -0.74,0.49 L -0.79,0.50 L -0.85,0.51 L -0.90,0.50 L -0.97,0.47 L -1.02,0.44 L -1.06,0.41 L -1.09,0.36 L -1.13,0.26 L -1.14,0.21 L -1.15,0.15 L -1.15,0.06 L -1.14,-0.01 L -1.12,-0.10 L -1.10,-0.16 L -1.06,-0.22 L -1.01,-0.27 L -0.95,-0.30 L -0.89,-0.32 L -0.81,-0.33 L -0.83,-0.48 Z" />
  <path class="fCHMGD sCHMGD" style="stroke-width:0.16" d="M 0.10,-0.46 L 0.28,-0.46 L 0.28,0.63 L 0.10,0.63 L 0.10,-0.46 Z" />
  <path class="fCHMGD sCHMGD" style="stroke-width:0.16" d="M 0.86,-1.37 L 1.04,-1.37 L 1.04,0.63 L 0.86,0.63 L 0.86,-1.37 Z" />
  <path class="fCHMGD sCHMGD" style="stroke-width:0.16" d="M 0.10,-1.07 L 0.28,-1.07 L 0.28,-0.86 L 0.10,-0.86 L 0.10,-1.07 Z" />
  <circle class="pivotPoint layout" fill="none" cx="0" cy="0" r="1" />

</svg>