<?xml version="1.0" encoding="utf-8"?>
<?xml-stylesheet type='text/css' href='daySvgStyle.css'?>
<svg version="1.2" baseProfile="tiny" style="shape-rendering:geometricPrecision; fill-rule:evenodd;" width="4.99mm" height="5.00mm" viewBox="-2.59 -2.51 5.01 5.02" xmlns="http://www.w3.org/2000/svg">
  <title>TRNBSN91</title>
  <desc>turning basin for S131</desc>
  <metadata>
    <iho:S100SVG xmlns:iho="http://www.iho.int/SVGMetadata">
      <iho:Description iho:publisher="IHO" iho:creationDate="2022-12-31" iho:source="IEHG" iho:format="adapted, IENC signs, Europe, SVG" iho:version="0.1" />
    </iho:S100SVG>
  </metadata>
  <g>
    <path class="fCHMGD sCHMGD" style="stroke-width:0" d="M 1.41,1.91 L 1.21,1.67 L 1.11,1.76 L 1.01,1.83 L 0.90,1.90 L 0.79,1.97 L 0.67,2.02 L 0.55,2.07 L 0.43,2.11 L 0.30,2.14 L 0.18,2.17 L 0.05,2.18 L -0.08,2.19 L -0.20,2.19 L -0.33,2.19 L -0.46,2.17 L -0.59,2.15 L -0.71,2.12 L -0.83,2.08 L -0.95,2.03 L -1.07,1.98 L -1.18,1.92 L -1.29,1.85 L -1.40,1.78 L -1.50,1.70 L -1.60,1.61 L -1.69,1.52 L -1.78,1.42 L -1.86,1.32 L -1.93,1.21 L -2.00,1.09 L -2.06,0.98 L -2.11,0.86 L -2.16,0.73 L -2.20,0.61 L -2.23,0.48 L -2.25,0.35 L -2.27,0.22 L -2.28,0.09 L -2.28,-0.05 L -2.27,-0.18 L -2.26,-0.31 L -2.24,-0.44 L -2.21,-0.57 L -2.17,-0.70 L -2.12,-0.82 L -2.07,-0.94 L -2.01,-1.06 L -1.95,-1.17 L -1.88,-1.28 L -1.80,-1.39 L -1.71,-1.49 L -1.63,-1.58 L -1.53,-1.67 L -1.43,-1.75 L -1.33,-1.83 L -1.22,-1.90 L -1.10,-1.96 L -0.99,-2.02 L -0.87,-2.07 L -0.75,-2.11 L -0.62,-2.14 L -0.50,-2.17 L -0.37,-2.18 L -0.24,-2.19 L -0.11,-2.19 L 0.02,-2.19 L 0.14,-2.17 L 0.27,-2.15 L 0.39,-2.12 L 0.52,-2.08 L 0.64,-2.03 L 0.75,-1.98 L 0.87,-1.92 L 0.98,-1.85 L 1.08,-1.78 L 1.19,-1.70 L 1.28,-1.61 L 1.37,-1.52 L 1.46,-1.42 L 1.54,-1.32 L 1.61,-1.21 L 1.68,-1.10 L 1.71,-1.05 L 1.15,-0.87 L 2.21,-0.18 L 2.42,-1.55 L 1.96,-1.21 L 1.89,-1.33 L 1.82,-1.45 L 1.73,-1.56 L 1.65,-1.67 L 1.55,-1.77 L 1.45,-1.87 L 1.35,-1.96 L 1.24,-2.04 L 1.12,-2.12 L 1.01,-2.19 L 0.88,-2.26 L 0.76,-2.32 L 0.63,-2.37 L 0.50,-2.41 L 0.37,-2.44 L 0.23,-2.47 L 0.10,-2.49 L -0.04,-2.50 L -0.18,-2.50 L -0.31,-2.50 L -0.45,-2.48 L -0.58,-2.46 L -0.72,-2.43 L -0.85,-2.40 L -0.98,-2.35 L -1.11,-2.30 L -1.23,-2.24 L -1.35,-2.18 L -1.47,-2.10 L -1.58,-2.02 L -1.69,-1.94 L -1.79,-1.84 L -1.89,-1.74 L -1.98,-1.64 L -2.07,-1.53 L -2.15,-1.42 L -2.23,-1.30 L -2.29,-1.17 L -2.35,-1.05 L -2.41,-0.92 L -2.45,-0.79 L -2.49,-0.65 L -2.53,-0.51 L -2.55,-0.37 L -2.57,-0.23 L -2.58,-0.09 L -2.58,0.05 L -2.57,0.19 L -2.56,0.33 L -2.53,0.47 L -2.50,0.61 L -2.47,0.75 L -2.42,0.88 L -2.37,1.01 L -2.31,1.14 L -2.25,1.26 L -2.17,1.38 L -2.10,1.50 L -2.01,1.61 L -1.92,1.72 L -1.82,1.82 L -1.72,1.91 L -1.61,2.00 L -1.50,2.08 L -1.39,2.16 L -1.27,2.22 L -1.14,2.29 L -1.02,2.34 L -0.89,2.39 L -0.76,2.42 L -0.62,2.46 L -0.49,2.48 L -0.35,2.49 L -0.22,2.50 L -0.08,2.50 L 0.06,2.49 L 0.19,2.48 L 0.33,2.45 L 0.46,2.42 L 0.59,2.38 L 0.72,2.33 L 0.85,2.28 L 0.97,2.21 L 1.09,2.14 L 1.20,2.07 L 1.32,1.99 L 1.41,1.91 Z" />
    <path class="fCHMGD sCHMGD" style="stroke-width:0" d="M -0.76,0.57 L -0.81,0.50 L -0.85,0.43 L -0.89,0.36 L -0.92,0.28 L -0.95,0.20 L -0.96,0.12 L -0.97,0.03 L -0.97,-0.05 L -0.96,-0.13 L -0.95,-0.22 L -0.93,-0.30 L -0.90,-0.37 L -0.86,-0.45 L -0.82,-0.52 L -0.77,-0.59 L -0.71,-0.65 L -0.65,-0.70 L -0.59,-0.75 L -0.52,-0.79 L -0.44,-0.83 L -0.37,-0.86 L -0.29,-0.88 L -0.21,-0.89 L -0.13,-0.89 L -0.05,-0.89 L 0.04,-0.88 L 0.11,-0.86 L 0.19,-0.83 L 0.26,-0.80 L 0.33,-0.75 L 0.40,-0.71 L 0.46,-0.65 L 0.52,-0.59 L 0.57,-0.53 L 0.61,-0.45 L 0.65,-0.38 L 0.68,-0.30 L 0.70,-0.22 L 0.72,-0.14 L 0.73,-0.06 L 0.73,0.03 L 0.72,0.11 L 0.70,0.19 L 0.68,0.27 L 0.65,0.35 L 0.61,0.43 L 0.57,0.50 L 0.52,0.56 L 0.46,0.62 L 0.40,0.68 L 0.33,0.73 L 0.26,0.77 L 0.24,0.78 L 0.35,1.07 L 0.43,1.02 L 0.51,0.97 L 0.59,0.91 L 0.66,0.85 L 0.73,0.78 L 0.79,0.71 L 0.84,0.63 L 0.89,0.54 L 0.93,0.46 L 0.96,0.37 L 0.99,0.27 L 1.01,0.18 L 1.02,0.08 L 1.02,-0.02 L 1.02,-0.11 L 1.01,-0.21 L 0.99,-0.31 L 0.96,-0.40 L 0.93,-0.49 L 0.89,-0.58 L 0.84,-0.66 L 0.78,-0.74 L 0.72,-0.82 L 0.66,-0.88 L 0.59,-0.95 L 0.51,-1.00 L 0.43,-1.05 L 0.34,-1.10 L 0.26,-1.13 L 0.17,-1.16 L 0.07,-1.18 L -0.02,-1.20 L -0.11,-1.20 L -0.21,-1.20 L -0.30,-1.19 L -0.39,-1.17 L -0.48,-1.14 L -0.57,-1.11 L -0.66,-1.06 L -0.74,-1.01 L -0.82,-0.96 L -0.89,-0.90 L -0.96,-0.83 L -1.02,-0.76 L -1.07,-0.68 L -1.12,-0.59 L -1.17,-0.51 L -1.20,-0.42 L -1.23,-0.32 L -1.25,-0.23 L -1.26,-0.13 L -1.27,-0.04 L -1.27,0.06 L -1.26,0.16 L -1.24,0.25 L -1.21,0.35 L -1.18,0.44 L -1.14,0.53 L -1.10,0.61 L -1.04,0.69 L -0.98,0.77 L -0.97,0.79 L -1.39,1.10 L -0.18,1.28 L -0.44,0.12 L -0.76,0.57 Z" />
    <circle class="pivotPoint layout" fill="none" cx="0" cy="0" r="1" />
  </g>
</svg>