<?xml version="1.0" encoding="UTF-8"?>
<?xml-stylesheet href="daySvgStyle.css" type="text/css"?>
<svg xmlns="http://www.w3.org/2000/svg" version="1.2" baseProfile="tiny" xml:space="preserve" shape-rendering="geometricPrecision" fill-rule="evenodd" width="4.38mm" height="4.38mm" viewBox="-2.19 -2.19 4.38 4.38">
  <title>BOYNDM02</title>
  <desc>emergency wreck marking buoy, simplified</desc>
  <metadata>
    <iho:S100SVG xmlns:iho="http://www.iho.int/SVGMetadata/5.2">
      <iho:Description iho:publisher="IHB" iho:creationDate="2014-06-09" iho:source="S52Preslib4.0" iho:format="S100SVG" iho:version="0.1"/>
    </iho:S100SVG>
  </metadata>
  <rect class="symbolBox layout" fill="none" x="-2.03" y="-2.03" height="4.06" width="4.06" />
  <rect class="svgBox layout" fill="none" x="-2.03" y="-2.03" height="4.06" width="4.06" />
  <circle cx="0" cy="0" r="2" class="fCHYLW" stroke-width="0"  />
  <path d=" M -0.79,1.86 L -1.11,1.68 L -1.34,1.51 L -1.57,1.28 L -1.8,0.91 L -1.89,0.67 L -1.97,0.43 L -2.02,0.06 L -1.99,-0.36 L -1.92,-0.63 L -1.8,-0.91 L -1.6,-1.23 L -1.33,-1.52 L -1.06,-1.72 L -0.81,-1.85 L -0.49,-1.96 L -0.13,-2.02 L 0.18,-2.01 L 0.46,-1.96 L -0.45,1.97" class="fRESBL" stroke-width="0.064"  />
  <circle cx="0" cy="0" r="2.03" class="sl f0 sOUTLW" stroke-width="0.32"  />
  <circle cx="0" cy="0" r="0.15" class="fOUTLW" stroke-width="0"  />
  <circle class="pivotPoint layout" fill="none" cx="0" cy="0" r="0.4"/>
</svg>
