<?xml version="1.0" encoding="UTF-8"?>
<?xml-stylesheet href="daySvgStyle.css" type="text/css"?>
<svg xmlns="http://www.w3.org/2000/svg" version="1.2" baseProfile="tiny" xml:space="preserve" shape-rendering="geometricPrecision" fill-rule="evenodd" width="6.29mm" height="5.23mm" viewBox="-3.23 -4.48 6.29 5.23">
  <title>BOYPIL31</title>
  <desc>pillar buoy, lateral, green, red, green, paper-chart</desc>
  <metadata>
    <iho:S100SVG xmlns:iho="http://www.iho.int/SVGMetadata/5.2">
      <iho:Description iho:publisher="IHB" iho:creationDate="2023-01-23" iho:source="7Cs" iho:format="S100SVG" iho:version="0.1"/>
    </iho:S100SVG>
  </metadata>
  <rect class="symbolBox layout" fill="none" x="-3.07" y="-4.32" height="4.91" width="5.97"/>
  <rect class="svgBox layout" fill="none" x="-3.07" y="-4.32" height="4.91" width="5.97"/>
  <path d=" M -2.41,0 L -1.1,-1.44 L 1.6,-1.44 L 2.34,0 Z" class="fCHGRN"/>
  <path d=" M -2.41,0 M -1.1,-1.44 L -0.22,-2.35 L -0.1,-2.88 L 1.4,-2.88 L 1.6,-1.44 Z" class="fCHRED"/>
  <path d=" M -1.1,-1.44 M -0.1,-2.88 L 0.43,-4.32 L 1.4,-4.32 L 1.4,-2.88 Z" class="fCHGRN"/>
  <circle class="f0 sOUTLW" stroke-width="0.32"  cx="0" cy="0" r="0.59"/>
  <path d=" M -3.07,0 L -0.57,0" class="sl f0 sOUTLW" stroke-width="0.32" />
  <path d=" M 0.53,0 L 2.9,0" class="sl f0 sOUTLW" stroke-width="0.32" />
  <path d=" M -2.41,0 L -0.22,-2.35 L 0.43,-4.32 L 1.4,-4.32 L 1.4,-1.94 L 2.34,0" class="sl f0 sOUTLW" stroke-width="0.32" />
  <circle class="fDEPDW" cx="0" cy="0" r="0.45"/>
  <circle class="pivotPoint layout" fill="none" cx="0" cy="0" r="0.2"/>
</svg>
