<?xml version="1.0" encoding="utf-8" standalone="yes"?>
<?xml-stylesheet href="daySvgStyle.css" type="text/css"?>
<svg xmlns="http://www.w3.org/2000/svg" version="1.2" baseProfile="tiny" xml:space="preserve" shape-rendering="geometricPrecision" fill-rule="evenodd" width="7.65mm" height="6.91mm" viewBox="-3.78 -5.39 7.65 6.91">
  <title>BOYSPH50</title>
  <desc>spherical buoy, safe water, red, white, paper-chart</desc>
  <metadata>
    <iho:S100SVG xmlns:iho="http://www.iho.int/SVGMetadata/5.2">
      <iho:Description iho:publisher="IHO" iho:creationDate="2024-03-28" iho:source="S52Preslib4.0" iho:format="S100SVG" iho:version="1.0" />
    </iho:S100SVG>
  </metadata>
  <rect class="symbolBox layout" fill="none" x="-3.78" y="1.52" height="6.91" width="7.65" />
  <rect class="svgBox layout" fill="none" x="-3.78" y="-5.39" height="6.91" width="7.65" />
  <path d=" M 0.01,-0.01 L 0.94,-4.26 L 0.4,-4.39 L -0.16,-4.38 L -0.66,-4.26 L -1.15,-4.09 L -1.58,-3.79 L -2,-3.37 L -2.31,-2.97 L -2.51,-2.47 L -2.63,-1.84 L -2.46,-0.7 L -2.18,-0.01 L -0.03,-0.01" class="fCHRED" />
  <path d=" M -0.01,0 L 0.9,-4.27 L 1.56,-3.99 L 1.99,-3.65 L 2.29,-3.22 L 2.61,-2.72 L 2.8,-2.21 L 2.84,-1.58 L 2.77,-0.89 L 2.56,-0.39 L 2.33,-0.02 L 0.05,-0.03" class="fCHWHT" />
  <path d=" M 0.56,0 L 2.87,0" class="sl f0 sOUTLW" stroke-width="0.32" />
  <path d=" M -2.19,0 L -2.47,-0.69 L -2.56,-1.25 L -2.63,-1.85 L -2.5,-2.5 L -2.31,-2.97 L -1.97,-3.41 L -1.59,-3.79 L -1.13,-4.1 L -0.69,-4.25 L -0.16,-4.38 L 0.41,-4.38 L 0.97,-4.25 L 1.59,-3.97 L 2,-3.66 L 2.28,-3.25 L 2.62,-2.72 L 2.81,-2.19 L 2.84,-1.6 L 2.78,-0.88 L 2.56,-0.38 L 2.33,0" class="sl f0 sOUTLW" stroke-width="0.32" />
  <path d=" M -2.78,0 L -0.52,0" class="sl f0 sOUTLW" stroke-width="0.32" />
  <circle cx="0" cy="0" r="0.52" class="fDEPDW" />
  <circle cx="0" cy="0" r="0.52" class="sl f0 sOUTLW" stroke-width="0.32" />
  <circle class="pivotPoint layout" fill="none" cx="0" cy="0" r="0.2"/>
</svg>
