<?xml version="1.0" encoding="UTF-8"?>
<?xml-stylesheet href="daySvgStyle.css" type="text/css"?><svg xmlns="http://www.w3.org/2000/svg" version="1.2" baseProfile="tiny" xml:space="preserve" style="shape-rendering:geometricPrecision; fill-rule:evenodd;" width="4.32mm" height="4.32mm" viewBox="-2.16 -2.16 4.32 4.32">
  <title>BUIREL13</title>
  <desc>conspicuous religious building, Christian</desc>
  <metadata>
    <iho:S100SVG xmlns:iho="http://www.iho.int/SVGMetadata/5.0">
      <iho:Description iho:publisher="IHB" iho:creationDate="2014-06-09" iho:source="S52Preslib4.0" iho:format="S100SVG" iho:version="0.1"/>
    </iho:S100SVG>
  </metadata>
  <rect class="symbolBox layout" fill="none" x="-2" y="-2" height="4" width="4"/>
  <rect class="svgBox layout" fill="none" x="-2" y="-2" height="4" width="4"/>
  <path d=" M -1.1,-2.3 L 1,-2.3 L 0,-1 L -1.1,-2.3 Z" class="fCHBLK"/>
  <path d=" M 2,-1 L 2,1 L 1,0 L 2,-1 Z" class="fCHBLK"/>
  <path d=" M -1,2 L 1,2 L 0,1 L -1,2 Z" class="fCHBLK"/>
  <path d=" M -2,-1 L -2,1 L -1,0 L -2,-1 Z" class="fCHBLK"/>
  <path d=" M -1,0 L 1,0" class="sl f0 sCHBLK" style="stroke-width: 0.64;"/>
  <path d=" M 0,-1 L 0,1" class="sl f0 sCHBLK" style="stroke-width: 0.64;"/>
  <path d=" M -1,-2 L 1,-2 L 0,-1 L -1,-2" class="sl f0 sCHBLK" style="stroke-width: 0.64;"/>
  <path d=" M 2,-1 L 2,1 L 1,0 L 2,-1" class="sl f0 sCHBLK" style="stroke-width: 0.64;"/>
  <path d=" M 1,2 L -1,2 L 0,1 L 1,2" class="sl f0 sCHBLK" style="stroke-width: 0.64;"/>
  <path d=" M -2,-1 L -2,1 L -1,0 L -2,-1" class="sl f0 sCHBLK" style="stroke-width: 0.64;"/>
  <circle class="pivotPoint layout" fill="none" cx="0" cy="0" r="1"/>
</svg>
