<?xml version="1.0" encoding="UTF-8"?>
<?xml-stylesheet href="daySvgStyle.css" type="text/css"?><svg xmlns="http://www.w3.org/2000/svg" version="1.2" baseProfile="tiny" xml:space="preserve" style="shape-rendering:geometricPrecision; fill-rule:evenodd;" width="17.29mm" height="12.16mm" viewBox="-8.69 -5.77 17.29 12.16">
  <title>DQUALA11P</title>
  <desc>pattern of symbols for a chart of 5m accuracy with full seafloor coverage</desc>
  <metadata>
    <iho:S100SVG xmlns:iho="http://www.iho.int/SVGMetadata/5.0">
      <iho:Description iho:publisher="IHB" iho:creationDate="2015-03-04" iho:source="S52Preslib4.0" iho:format="S100SVG" iho:version="0.1"/>
    </iho:S100SVG>
  </metadata>
  <rect class="symbolBox layout" fill="none" x="-8.53" y="-5.61" height="11.84" width="16.97"/>
  <rect class="svgBox layout" fill="none" x="-8.529999999999999" y="-5.61" height="11.84" width="16.97"/>
  <path d=" M 3.56,-3.51 L 6.57,-3.51" class="sl f0 sCHGRD" style="stroke-width: 0.32;"/>
  <path d=" M 5.98,-4.7 L 4.17,-2.3" class="sl f0 sCHGRD" style="stroke-width: 0.32;"/>
  <path d=" M 4.18,-4.7 L 5.98,-2.31" class="sl f0 sCHGRD" style="stroke-width: 0.32;"/>
  <path d=" M -1.66,-3.51 L 1.35,-3.51" class="sl f0 sCHGRD" style="stroke-width: 0.32;"/>
  <path d=" M 0.76,-4.7 L -1.05,-2.3" class="sl f0 sCHGRD" style="stroke-width: 0.32;"/>
  <path d=" M -1.04,-4.7 L 0.76,-2.31" class="sl f0 sCHGRD" style="stroke-width: 0.32;"/>
  <path d=" M -6.95,-3.46 L -3.94,-3.46" class="sl f0 sCHGRD" style="stroke-width: 0.32;"/>
  <path d=" M -4.53,-4.65 L -6.34,-2.25" class="sl f0 sCHGRD" style="stroke-width: 0.32;"/>
  <path d=" M -6.33,-4.65 L -4.53,-2.26" class="sl f0 sCHGRD" style="stroke-width: 0.32;"/>
  <path d=" M -4.14,0.03 L -1.13,0.03" class="sl f0 sCHGRD" style="stroke-width: 0.32;"/>
  <path d=" M -1.72,-1.16 L -3.53,1.24" class="sl f0 sCHGRD" style="stroke-width: 0.32;"/>
  <path d=" M -3.52,-1.16 L -1.72,1.23" class="sl f0 sCHGRD" style="stroke-width: 0.32;"/>
  <path d=" M 1.14,-0.02 L 4.15,-0.02" class="sl f0 sCHGRD" style="stroke-width: 0.32;"/>
  <path d=" M 3.56,-1.21 L 1.75,1.19" class="sl f0 sCHGRD" style="stroke-width: 0.32;"/>
  <path d=" M 1.76,-1.21 L 3.56,1.18" class="sl f0 sCHGRD" style="stroke-width: 0.32;"/>
  <path d=" M -1.36,3.39 L 1.65,3.39" class="sl f0 sCHGRD" style="stroke-width: 0.32;"/>
  <path d=" M 1.06,2.2 L -0.75,4.6" class="sl f0 sCHGRD" style="stroke-width: 0.32;"/>
  <path d=" M -0.74,2.2 L 1.06,4.59" class="sl f0 sCHGRD" style="stroke-width: 0.32;"/>
  <path d=" M -8.23,-3.65 L -8.53,-4.46 L -8.42,-5 L -8.23,-5.38 L -7.76,-5.58 L -7.45,-5.61 L 6.82,-5.61 L 7.63,-5.54 L 8.13,-5.31 L 8.33,-5.03 L 8.44,-4.73 L 8.44,-4.49 L 8.44,-4.11 L 8.25,-3.8 L 1.38,5.34 L 1.11,5.65 L 0.84,5.96 L 0.57,6.12 L 0.38,6.15 L 0.19,6.23 L -0.16,6.19 L -0.35,6.15 L -0.74,6.04 L -0.93,5.88 L -1.13,5.65 L -1.36,5.38 L -8.23,-3.65" class="sl f0 sCHGRD" style="stroke-width: 0.32;"/>
  <circle class="pivotPoint layout" fill="none" cx="0" cy="0" r="1"/>
</svg>
