<?xml version="1.0" encoding="UTF-8"?>
<?xml-stylesheet href="daySvgStyle.css" type="text/css"?><svg xmlns="http://www.w3.org/2000/svg" version="1.2" baseProfile="tiny" xml:space="preserve" style="shape-rendering:geometricPrecision; fill-rule:evenodd;" width="17.29mm" height="12.16mm" viewBox="-8.47 -4.07 17.29 12.16">
  <title>DQUALA21P</title>
  <desc>pattern of symbols for a chart with 20m accuracy with full seafloor coverage</desc>
  <metadata>
    <iho:S100SVG xmlns:iho="http://www.iho.int/SVGMetadata/5.0">
      <iho:Description iho:publisher="IHB" iho:creationDate="2015-03-04" iho:source="S52Preslib4.0" iho:format="S100SVG" iho:version="0.1"/>
    </iho:S100SVG>
  </metadata>
  <rect class="symbolBox layout" fill="none" x="-8.31" y="-3.91" height="11.84" width="16.97"/>
  <rect class="svgBox layout" fill="none" x="-8.310000000000001" y="-3.91" height="11.84" width="16.97"/>
  <path d=" M 3.78,-1.81 L 6.79,-1.81" class="sl f0 sCHGRD" style="stroke-width: 0.32;"/>
  <path d=" M 6.2,-3 L 4.39,-0.6" class="sl f0 sCHGRD" style="stroke-width: 0.32;"/>
  <path d=" M 4.4,-3 L 6.2,-0.61" class="sl f0 sCHGRD" style="stroke-width: 0.32;"/>
  <path d=" M -1.44,-1.81 L 1.57,-1.81" class="sl f0 sCHGRD" style="stroke-width: 0.32;"/>
  <path d=" M 0.98,-3 L -0.83,-0.6" class="sl f0 sCHGRD" style="stroke-width: 0.32;"/>
  <path d=" M -0.82,-3 L 0.98,-0.61" class="sl f0 sCHGRD" style="stroke-width: 0.32;"/>
  <path d=" M -6.73,-1.76 L -3.72,-1.76" class="sl f0 sCHGRD" style="stroke-width: 0.32;"/>
  <path d=" M -4.31,-2.95 L -6.12,-0.55" class="sl f0 sCHGRD" style="stroke-width: 0.32;"/>
  <path d=" M -6.11,-2.95 L -4.31,-0.56" class="sl f0 sCHGRD" style="stroke-width: 0.32;"/>
  <path d=" M -3.92,1.73 L -0.91,1.73" class="sl f0 sCHGRD" style="stroke-width: 0.32;"/>
  <path d=" M -1.5,0.54 L -3.31,2.94" class="sl f0 sCHGRD" style="stroke-width: 0.32;"/>
  <path d=" M -3.3,0.54 L -1.5,2.93" class="sl f0 sCHGRD" style="stroke-width: 0.32;"/>
  <path d=" M 1.36,1.68 L 4.37,1.68" class="sl f0 sCHGRD" style="stroke-width: 0.32;"/>
  <path d=" M 3.78,0.49 L 1.97,2.89" class="sl f0 sCHGRD" style="stroke-width: 0.32;"/>
  <path d=" M 1.98,0.49 L 3.78,2.88" class="sl f0 sCHGRD" style="stroke-width: 0.32;"/>
  <path d=" M -8.01,-1.95 L -8.31,-2.76 L -8.2,-3.3 L -8.01,-3.68 L -7.54,-3.88 L -7.23,-3.91 L 7.04,-3.91 L 7.85,-3.84 L 8.35,-3.61 L 8.55,-3.33 L 8.66,-3.03 L 8.66,-2.79 L 8.66,-2.41 L 8.47,-2.1 L 1.6,7.04 L 1.33,7.35 L 1.06,7.66 L 0.79,7.82 L 0.6,7.85 L 0.41,7.93 L 0.06,7.89 L -0.13,7.85 L -0.52,7.74 L -0.71,7.58 L -0.91,7.35 L -1.14,7.08 L -8.01,-1.95" class="sl f0 sCHGRD" style="stroke-width: 0.32;"/>
  <circle class="pivotPoint layout" fill="none" cx="0" cy="0" r="1"/>
</svg>
