<?xml version="1.0" encoding="UTF-8"?>
<?xml-stylesheet href="daySvgStyle.css" type="text/css"?><svg xmlns="http://www.w3.org/2000/svg" version="1.2" baseProfile="tiny" xml:space="preserve" style="shape-rendering:geometricPrecision; fill-rule:evenodd;" width="2.52mm" height="4.75mm" viewBox="-1.19 -2.34 2.52 4.75">
  <title>EMQUESM3</title>
  <desc>Embedded symbol</desc>
  <metadata>
    <iho:S100SVG xmlns:iho="http://www.iho.int/SVGMetadata/5.0">
      <iho:Description iho:publisher="IHB" iho:creationDate="2014-06-09" iho:source="S52Preslib4.0" iho:format="S100SVG" iho:version="0.1"/>
    </iho:S100SVG>
  </metadata>
  <rect class="symbolBox layout" fill="none" x="-1.03" y="-2.18" height="4.43" width="2.2"/>
  <rect class="svgBox layout" fill="none" x="-1.03" y="-2.18" height="4.43" width="2.2"/>
  <path d=" M -1.03,-1.22 L -0.9,-1.5 L -0.77,-1.75 L -0.6,-1.92 L -0.43,-2.09 L -0.17,-2.18 L 0.06,-2.16 L 0.36,-2.07 L 0.64,-2.01 L 0.87,-1.67 L 1.05,-1.48 L 1.17,-1.26 L 1.17,-1.01 L 1.05,-0.77 L 0.92,-0.56 L 0.72,-0.32 L 0.49,-0.07 L 0.28,0.19 L 0.15,0.38 L 0.04,0.55 L 0.02,0.77 L 0.02,1 L 0.02,1.17 L 0.04,1.39 L 0.04,1.41" class="sl f0 sTRFCD" style="stroke-width: 0.32;"/>
  <path d=" M -0.17,2.25 L 0.36,2.25" class="sl f0 sTRFCD" style="stroke-width: 0.64;"/>
  <circle class="pivotPoint layout" fill="none" cx="0" cy="0" r="1"/>
</svg>
