<?xml version="1.0" encoding="UTF-8"?>
<?xml-stylesheet href="daySvgStyle.css" type="text/css"?><svg xmlns="http://www.w3.org/2000/svg" version="1.2" baseProfile="tiny" xml:space="preserve" style="shape-rendering:geometricPrecision; fill-rule:evenodd;" width="9.16mm" height="3.68mm" viewBox="-4.12 -1.84 9.16 3.68">
  <title>EMTIDIN1</title>
  <desc>Embedded symbol</desc>
  <metadata>
    <iho:S100SVG xmlns:iho="http://www.iho.int/SVGMetadata/5.0">
      <iho:Description iho:publisher="IHB" iho:creationDate="2014-06-09" iho:source="S52Preslib4.0" iho:format="S100SVG" iho:version="0.1"/>
    </iho:S100SVG>
  </metadata>
  <rect class="symbolBox layout" fill="none" x="-3.96" y="-1.68" height="3.36" width="8.84"/>
  <rect class="svgBox layout" fill="none" x="-3.96" y="-1.68" height="3.36" width="8.84"/>
  <path d=" M -3.96,0 L 4.88,0" class="sl f0 sCHGRD" style="stroke-width: 0.32;"/>
  <path d=" M -3.24,-0.01 L -3.24,-0.25 L -3.17,-0.56 L -3.02,-0.89 L -2.8,-1.17 L -2.51,-1.39 L -2.17,-1.55 L -1.84,-1.66 L -1.53,-1.68 L -1.2,-1.61 L -0.9,-1.51 L -0.62,-1.34 L -0.39,-1.15 L -0.17,-0.83 L 0,-0.45 L 0,-0.16 L 0,-0.01 L 0,0.25 L 0.05,0.54 L 0.12,0.77 L 0.27,1.06 L 0.57,1.31 L 0.69,1.41 L 0.86,1.51 L 1.06,1.6 L 1.37,1.66 L 1.72,1.68 L 2.11,1.6 L 2.4,1.47 L 2.73,1.26 L 2.97,1.02 L 3.16,0.68 L 3.27,0.36 L 3.32,0.19 L 3.32,-0.01" class="sl f0 sCHGRD" style="stroke-width: 0.32;"/>
  <circle class="pivotPoint layout" fill="none" cx="0" cy="0" r="1"/>
</svg>
