<?xml version="1.0" encoding="UTF-8"?>
<?xml-stylesheet href="daySvgStyle.css" type="text/css"?><svg xmlns="http://www.w3.org/2000/svg" version="1.2" baseProfile="tiny" xml:space="preserve" style="shape-rendering:geometricPrecision; fill-rule:evenodd;" width="11.68mm" height="5.13mm" viewBox="-7.07 -2.76 11.68 5.13">
  <title>FSHGRD01</title>
  <desc>fishing ground</desc>
  <metadata>
    <iho:S100SVG xmlns:iho="http://www.iho.int/SVGMetadata/5.0">
      <iho:Description iho:publisher="IHB" iho:creationDate="2014-06-09" iho:source="S52Preslib4.0" iho:format="S100SVG" iho:version="0.1"/>
    </iho:S100SVG>
  </metadata>
  <rect class="symbolBox layout" fill="none" x="-6.75" y="-2.44" height="4.49" width="11.04"/>
  <rect class="svgBox layout" fill="none" x="-6.75" y="-2.44" height="4.49" width="11.04"/>
  <path d=" M -5.03,-0.15 L -6.56,-2.03" class="sl f0 sCHGRD" style="stroke-width: 0.64;"/>
  <path d=" M -5.01,-0.12 L -6.75,1.61" class="sl f0 sCHGRD" style="stroke-width: 0.64;"/>
  <path d=" M -4.99,-0.15 L -4.22,-0.98 L -3.25,-1.68 L -2,-2.24 L -0.61,-2.44 L 0.65,-2.38 L 2.04,-2.1 L 3.23,-1.54 L 4.06,-0.92 L 4.27,-0.49" class="sl f0 sCHGRD" style="stroke-width: 0.64;"/>
  <path d=" M -5.05,-0.17 L -3.86,0.81 L -2.4,1.64 L -0.87,1.98 L 0.24,2.05 L 1.43,1.85 L 2.54,1.44 L 3.44,0.6 L 4.14,-0.38" class="sl f0 sCHGRD" style="stroke-width: 0.64;"/>
  <path d=" M 1.31,-2.25 L 0.85,-1.05 L 0.85,0.62 L 1.68,1.82" class="sl f0 sCHGRD" style="stroke-width: 0.64;"/>
  <path d=" M 4.29,-0.5 L 4.12,-0.36" class="sl f0 sCHGRD" style="stroke-width: 0.64;"/>
  <circle class="pivotPoint layout" fill="none" cx="0" cy="0" r="1"/>
</svg>
