<?xml version="1.0" encoding="UTF-8"?>
<?xml-stylesheet href="daySvgStyle.css" type="text/css"?><svg xmlns="http://www.w3.org/2000/svg" version="1.2" baseProfile="tiny" xml:space="preserve" style="shape-rendering:geometricPrecision; fill-rule:evenodd;" width="5.52mm" height="3.3mm" viewBox="-2.86 -1.73 5.52 3.3">
  <title>HULKES01</title>
  <desc>hulk</desc>
  <metadata>
    <iho:S100SVG xmlns:iho="http://www.iho.int/SVGMetadata/5.0">
      <iho:Description iho:publisher="IHB" iho:creationDate="2014-06-09" iho:source="S52Preslib4.0" iho:format="S100SVG" iho:version="0.1"/>
    </iho:S100SVG>
  </metadata>
  <rect class="symbolBox layout" fill="none" x="-2.54" y="-1.41" height="2.66" width="4.88"/>
  <rect class="svgBox layout" fill="none" x="-2.54" y="-1.41" height="2.66" width="4.88"/>
  <path d=" M -2.5,0.9 L -2,1.06 L -1.44,1.15 L -0.94,1.25 L -0.5,1.25 L 0,1.09 L 0.34,1.06 L 0.75,0.9 L 1.09,0.75 L 1.34,0.59 L 1.75,0.4 L 2,0.25 L 2.15,0.06 L 2.34,0 L 2.15,-0.25 L 1.9,-0.5 L 1.59,-0.66 L 1.31,-0.85 L 1,-1 L 0.65,-1.16 L 0.4,-1.25 L 0.03,-1.32 L -0.35,-1.41 L -0.69,-1.41 L -0.94,-1.41 L -1.25,-1.35 L -1.5,-1.35 L -1.85,-1.25 L -2.1,-1.19 L -2.25,-1.1 L -2.5,-1 L -2.5,0.9 L -2.5,0.9 Z" class="fCHBRN"/>
  <path d=" M -2.5,0.9 L -2.5,-1" class="sl f0 sCSTLN" style="stroke-width: 0.64;"/>
  <path d=" M -2.54,-0.97 L -1.91,-1.29 L -1.07,-1.41 L -0.32,-1.41 L 0.5,-1.25 L 1.28,-0.85 L 2.03,-0.41 L 2.34,-0.04 L 1.56,0.53 L 0.81,0.9 L 0.21,1.12 L -0.6,1.25 L -0.91,1.25 L -1.41,1.18 L -2.5,0.93" class="sl f0 sCSTLN" style="stroke-width: 0.64;"/>
  <circle class="pivotPoint layout" fill="none" cx="0" cy="0" r="1"/>
</svg>
