<?xml version="1.0" encoding="UTF-8"?>
<?xml-stylesheet href="daySvgStyle.css" type="text/css"?><svg xmlns="http://www.w3.org/2000/svg" version="1.2" baseProfile="tiny" xml:space="preserve" style="shape-rendering:geometricPrecision; fill-rule:evenodd;" width="2.52mm" height="4.75mm" viewBox="-1.26 -2.38 2.52 4.75">
  <title>QUESMRK1</title>
  <desc>object which is not sufficiently described to be symbolized, or for which no symbol exists in the symbol library</desc>
  <metadata>
    <iho:S100SVG xmlns:iho="http://www.iho.int/SVGMetadata/5.0">
      <iho:Description iho:publisher="IHB" iho:creationDate="2014-06-09" iho:source="S52Preslib4.0" iho:format="S100SVG" iho:version="0.1"/>
    </iho:S100SVG>
  </metadata>
  <rect class="symbolBox layout" fill="none" x="-1.1" y="-2.22" height="4.43" width="2.2"/>
  <rect class="svgBox layout" fill="none" x="-1.1" y="-2.22" height="4.43" width="2.2"/>
  <path d=" M -1.1,-1.26 L -0.97,-1.54 L -0.84,-1.79 L -0.67,-1.96 L -0.5,-2.13 L -0.24,-2.22 L -0.01,-2.2 L 0.29,-2.11 L 0.57,-2.05 L 0.8,-1.71 L 0.98,-1.52 L 1.1,-1.3 L 1.1,-1.05 L 0.98,-0.81 L 0.85,-0.6 L 0.65,-0.36 L 0.42,-0.11 L 0.21,0.15 L 0.08,0.34 L -0.03,0.51 L -0.05,0.73 L -0.05,0.96 L -0.05,1.13 L -0.03,1.35 L -0.03,1.37" class="sl f0 sCHMGD" style="stroke-width: 0.32;"/>
  <path d=" M -0.24,2.21 L 0.42,2.21" class="sl f0 sCHMGD" style="stroke-width: 0.64;"/>
  <circle class="pivotPoint layout" fill="none" cx="0" cy="0" r="1"/>
</svg>
