<?xml version="1.0" encoding="UTF-8"?>
<?xml-stylesheet href="daySvgStyle.css" type="text/css"?><svg xmlns="http://www.w3.org/2000/svg" version="1.2" baseProfile="tiny" xml:space="preserve" style="shape-rendering:geometricPrecision; fill-rule:evenodd;" width="7.44mm" height="7.44mm" viewBox="-3.64 -3.9 7.44 7.44">
  <title>RFNERY11</title>
  <desc>conspicuous refinery</desc>
  <metadata>
    <iho:S100SVG xmlns:iho="http://www.iho.int/SVGMetadata/5.0">
      <iho:Description iho:publisher="IHB" iho:creationDate="2014-06-09" iho:source="S52Preslib4.0" iho:format="S100SVG" iho:version="0.1"/>
    </iho:S100SVG>
  </metadata>
  <rect class="symbolBox layout" fill="none" x="-3.32" y="-3.58" height="6.8" width="6.8"/>
  <rect class="svgBox layout" fill="none" x="-3.32" y="-3.58" height="6.8" width="6.8"/>
  <path d=" M -0.51,2.3 L -0.51,-0.95 L 0.49,-0.95 L 0.49,2.3 L 0.36,1.92 L -0.01,1.8 L -0.33,1.92 L -0.51,2.3 Z" class="fCHBLK"/>
  <path d=" M 0.55,-3.27 L 0.24,-3.08 L -0.08,-2.89 L -0.33,-2.58 L -0.51,-2.2 L -0.51,-1.83 L -0.45,-1.64 L -0.2,-1.52 L 0.11,-1.52 L 0.3,-1.64 L 0.42,-1.89 L 0.36,-2.2 L 0.24,-2.33 L 0.24,-2.58 L 0.24,-2.83 L 0.42,-3.02 L 0.55,-3.27" class="sl f0 sCHBLK" style="stroke-width: 0.64;"/>
  <circle class="f0 sCHBLK" style="stroke-width: 0.64;" cx="0.08" cy="-0.18" r="3.7"/>
  <path d=" M -1.52,2.26 L 1.43,2.26" class="sl f0 sCHBLK" style="stroke-width: 0.64;"/>
  <circle class="pivotPoint layout" fill="none" cx="0" cy="0" r="1"/>
</svg>
