<?xml version="1.0" encoding="UTF-8"?>
<?xml-stylesheet href="daySvgStyle.css" type="text/css"?>
<svg xmlns="http://www.w3.org/2000/svg" version="1.2" baseProfile="tiny" xml:space="preserve" style="shape-rendering:geometricPrecision; fill-rule:evenodd;" width="3.88mm" height="3.46mm" viewBox="-3.88 -1.73 3.88 3.46">
  <title>SAFCON88</title>
  <desc>contour label</desc>
  <metadata>
    <iho:S100SVG xmlns:iho="http://www.iho.int/SVGMetadata/5.2">
      <iho:Description iho:publisher="IHO" iho:creationDate="2023-05-18" iho:source="S52Preslib4.0.3" iho:format="S100SVG" iho:version="1.0" />
    </iho:S100SVG>
  </metadata>
  <rect class="symbolBox layout" fill="none" x="-3.72" y="-1.57" height="3.14" width="1.89"/>
  <rect class="svgBox layout" fill="none" x="-3.72" y="-1.57" height="3.14" width="3.56"/>
  <path d="M -2.36,-1.25 L -3.11,-1.25 L -3.36,-1.00 L -3.36,-0.25 L -3.11,0.00 L -2.36,0.00 L -2.11,-0.25 L -2.11,-1.00 L -2.36,-1.25" class="sl f0 sDEPDW" stroke-width="0.96" />
  <path d="M -3.11,0.00 L -3.36,0.25 L -3.36,1.00 L -3.11,1.25 L -2.36,1.25 L -2.11,1.00 L -2.11,0.25 L -2.36,0.00" class="sl f0 sDEPDW" stroke-width="0.96" />
  <path d="M -2.36,-1.25 L -3.11,-1.25 L -3.36,-1.00 L -3.36,-0.25 L -3.11,0.00 L -2.36,0.00 L -2.11,-0.25 L -2.11,-1.00 L -2.36,-1.25" class="sl f0 sSNDG2" stroke-width="0.32" />
  <path d="M -3.11,0.00 L -3.36,0.25 L -3.36,1.00 L -3.11,1.25 L -2.36,1.25 L -2.11,1.00 L -2.11,0.25 L -2.36,0.00" class="sl f0 sSNDG2" stroke-width="0.32" />
  <circle class="pivotPoint layout" fill="none" cx="0" cy="0" r="1"/>
</svg>
