<?xml version="1.0" encoding="UTF-8"?>
<?xml-stylesheet href="daySvgStyle.css" type="text/css"?><svg xmlns="http://www.w3.org/2000/svg" version="1.2" baseProfile="tiny" xml:space="preserve" style="shape-rendering:geometricPrecision; fill-rule:evenodd;" width="4.06mm" height="3.46mm" viewBox="-0.48 -0.48 4.06 3.46">
  <title>SAFCON63</title>
  <desc>contour label</desc>
  <metadata>
    <iho:S100SVG xmlns:iho="http://www.iho.int/SVGMetadata/5.0">
      <iho:Description iho:publisher="IHB" iho:creationDate="2014-06-09" iho:source="S52Preslib4.0" iho:format="S100SVG" iho:version="0.1"/>
    </iho:S100SVG>
  </metadata>
  <rect class="symbolBox layout" fill="none" x="1.85" y="0" height="2.5" width="1.25"/>
  <rect class="svgBox layout" fill="none" x="0" y="0" height="2.5" width="3.1"/>
  <path d=" M 2.85,1.09 L 2.1,1.09" class="sl f0 sDEPDW" style="stroke-width: 0.96;"/>
  <path d=" M 2.85,1.09 L 3.1,1.34 L 3.1,2.25 L 2.85,2.5 L 2.1,2.5 L 1.85,2.25" class="sl f0 sDEPDW" style="stroke-width: 0.96;"/>
  <path d=" M 2.13,0 L 2.85,0 L 3.1,0.25 L 3.1,0.84 L 2.85,1.09" class="sl f0 sDEPDW" style="stroke-width: 0.96;"/>
  <path d=" M 1.88,0.25 L 2.13,0" class="sl f0 sDEPDW" style="stroke-width: 0.96;"/>
  <path d=" M 2.85,1.09 L 2.1,1.09" class="sl f0 sSNDG2" style="stroke-width: 0.32;"/>
  <path d=" M 2.85,1.09 L 3.1,1.34 L 3.1,2.25 L 2.85,2.5 L 2.1,2.5 L 1.85,2.25" class="sl f0 sSNDG2" style="stroke-width: 0.32;"/>
  <path d=" M 2.13,0 L 2.85,0 L 3.1,0.25 L 3.1,0.84 L 2.85,1.09" class="sl f0 sSNDG2" style="stroke-width: 0.32;"/>
  <path d=" M 1.88,0.25 L 2.13,0" class="sl f0 sSNDG2" style="stroke-width: 0.32;"/>
  <circle class="pivotPoint layout" fill="none" cx="0" cy="0" r="1"/>
</svg>
