<?xml version="1.0" encoding="utf-8" standalone="yes"?>
<?xml-stylesheet href="daySvgStyle.css" type="text/css"?>
<svg xmlns="http://www.w3.org/2000/svg" version="1.2" baseProfile="tiny" xml:space="preserve" style="shape-rendering:geometricPrecision; fill-rule:evenodd;" width="5.12mm" height="2.75mm" viewBox="-0.1 -0.1 5.12 2.75">
  <title>SAFCON56</title>
  <desc>pattern of symbol</desc>
  <metadata>
    <iho:S100SVG xmlns:iho="http://www.iho.int/SVGMetadata/5.0">
      <iho:Description iho:publisher="IHB" iho:creationDate="2019-01-30" iho:source="S52Preslib4.0" iho:format="S100SVG" iho:version="0.1" />
    </iho:S100SVG>
  </metadata>
  <rect class="symbolBox layout" fill="none" x="-0.1" y="2.65" height="2.75" width="5.12" />
  <rect class="svgBox layout" fill="none" x="-0.1" y="-0.1" height="2.75" width="5.12" />
  <path d=" M 4.68,0.06 L 3.93,0.06 L 3.69,0.3 L 3.69,2.31 L 3.93,2.55 L 4.68,2.55 L 4.92,2.31 L 4.92,1.35 L 4.68,1.11 L 3.93,1.11 L 3.69,1.35" class="sl f0 sDEPDW" style="stroke-width:0.96;" />
  <path d=" M 4.71,0.06 L 4.86,0.21" class="sl f0 sDEPDW" style="stroke-width:0.96;" />
  <path d=" M 4.71,0.06 L 3.93,0.06 L 3.69,0.3 L 3.69,2.31 L 3.93,2.55 L 4.68,2.55 L 4.92,2.31 L 4.92,1.35 L 4.68,1.11 L 3.93,1.11 L 3.69,1.35" class="sl f0 sSNDG2" style="stroke-width:0.32;" />
  <path d=" M 4.71,0.06 L 4.86,0.21" class="sl f0 sSNDG2" style="stroke-width:0.32;" />
</svg>