<?xml version="1.0" encoding="UTF-8"?>
<?xml-stylesheet href="daySvgStyle.css" type="text/css"?>
<svg xmlns="http://www.w3.org/2000/svg" version="1.2" baseProfile="tiny" xml:space="preserve" style="shape-rendering:geometricPrecision; fill-rule:evenodd;" width="3.83mm" height="3.46mm" viewBox="0.00 -1.73 3.83 3.46">
  <title>SAFCON99</title>
  <desc>contour label</desc>
  <metadata>
    <iho:S100SVG xmlns:iho="http://www.iho.int/SVGMetadata/5.2">
      <iho:Description iho:publisher="IHO" iho:creationDate="2023-05-18" iho:source="S52Preslib4.0.3" iho:format="S100SVG" iho:version="1.0" />
    </iho:S100SVG>
  </metadata>
  <rect class="symbolBox layout" fill="none" x="1.78" y="-1.57" height="3.14" width="1.89"/>
  <rect class="svgBox layout" fill="none" x="0.16" y="-1.57" height="3.14" width="3.51"/>
  <path d="M 2.14,1.04 L 2.39,1.29 L 3.14,1.29 L 3.39,1.04 L 3.39,-0.96 L 3.14,-1.21 L 2.39,-1.21 L 2.14,-0.96 L 2.14,-0.12 L 2.39,0.13 L 3.14,0.13 L 3.39,-0.12" class="sl f0 sDEPDW" stroke-width="0.96" />
  <path d="M 2.14,1.04 L 2.39,1.29 L 3.14,1.29 L 3.39,1.04 L 3.39,-0.96 L 3.14,-1.21 L 2.39,-1.21 L 2.14,-0.96 L 2.14,-0.12 L 2.39,0.13 L 3.14,0.13 L 3.39,-0.12" class="sl f0 sSNDG2" stroke-width="0.32" />
  <circle class="pivotPoint layout" fill="none" cx="0" cy="0" r="1"/>
</svg>
