<?xml version="1.0" encoding="utf-8" standalone="yes"?>
<?xml-stylesheet href="daySvgStyle.css" type="text/css"?>
<svg xmlns="http://www.w3.org/2000/svg" version="1.2" baseProfile="tiny" xml:space="preserve" shape-rendering="geometricPrecision" fill-rule="evenodd" width="5.8mm" height="3.85mm" viewBox="-0.5 -1.3 5.8 3.85">
  <title>SAFCON59</title>
  <desc>pattern of symbol</desc>
  <metadata>
    <iho:S100SVG xmlns:iho="http://www.iho.int/SVGMetadata/5.2">
      <iho:Description iho:publisher="IHO" iho:creationDate="2024-02-21" iho:source="S52Preslib4.0" iho:format="S100SVG" iho:version="1.0" />
    </iho:S100SVG>
  </metadata>
  <circle class="pivotPoint layout" fill="none" cx="0.00" cy="0.00" r="0.1" />
  <rect class="symbolBox layout" fill="none" x="-0.5" y="-1.3" height="3.85" width="5.8" />
  <rect class="svgBox layout" fill="none" x="-0.5" y="-1.3" height="3.85" width="5.8" />
  <path d=" M 3.42,1.66 L 3.66,1.91 L 4.4,1.91 L 4.65,1.66 L 4.65,-0.34 L 4.4,-0.58 L 3.66,-0.58 L 3.42,-0.34 L 3.42,0.53 L 3.66,0.77 L 4.4,0.77 L 4.65,0.53" class="sl f0 sDEPDW" stroke-width="0.96"  />
  <path d=" M 3.42,1.66 L 3.66,1.91 L 4.4,1.91 L 4.65,1.66 L 4.65,-0.34 L 4.4,-0.58 L 3.66,-0.58 L 3.42,-0.34 L 3.42,0.53 L 3.66,0.77 L 4.4,0.77 L 4.65,0.53" class="sl f0 sSNDG2" stroke-width="0.32"  />
</svg>
