<?xml version="1.0" encoding="UTF-8"?>
<?xml-stylesheet href="daySvgStyle.css" type="text/css"?>
<svg xmlns="http://www.w3.org/2000/svg" version="1.2" baseProfile="tiny" xml:space="preserve" shape-rendering="geometricPrecision" fill-rule="evenodd" width="3.96mm" height="4.46mm" viewBox="-1.98 -3.98 3.96 4.46">
  <title>SPRING02</title>
  <desc>spring</desc>
  <metadata>
    <iho:S100SVG xmlns:iho="http://www.iho.int/SVGMetadata/5.2">
      <iho:Description iho:publisher="IHO" iho:creationDate="2023-05-01" iho:source="S52Preslib4.0" iho:format="S100SVG" iho:version="1.0"/>
    </iho:S100SVG>
  </metadata>
  <rect class="symbolBox layout" fill="none" x="-1.5" y="-3.5" height="3.5" width="3"/>
  <rect class="svgBox layout" fill="none" x="-1.5" y="-3.5" height="3.5" width="3"/>
  <circle class="fCHGRD" cx="0" cy="0" r="0.48"/>
  <circle class="fCHGRD" cx="0.5" cy="0" r="0.48"/>
  <circle class="fCHGRD" cx="1" cy="0" r="0.48"/>
  <circle class="fCHGRD" cx="-0.5" cy="0" r="0.48"/>
  <circle class="fCHGRD" cx="-1" cy="0" r="0.48"/>
  <circle class="fCHGRD" cx="0" cy="-0.5" r="0.48"/>
  <circle class="fCHGRD" cx="0" cy="-1" r="0.48"/>
  <circle class="fCHGRD" cx="0" cy="-1.5" r="0.48"/>
  <circle class="fCHGRD" cx="0" cy="-2" r="0.48"/>
  <circle class="fCHGRD" cx="0" cy="-2.5" r="0.48"/>
  <circle class="fCHGRD" cx="0" cy="-3" r="0.48"/>
  <circle class="fCHGRD" cx="0.5" cy="-3.5" r="0.48"/>
  <circle class="fCHGRD" cx="1" cy="-3.5" r="0.48"/>
  <circle class="fCHGRD" cx="1.5" cy="-3" r="0.48"/>
  <circle class="fCHGRD" cx="1.5" cy="-2.5" r="0.48"/>
  <circle class="fCHGRD" cx="-0.5" cy="-3.5" r="0.48"/>
  <circle class="fCHGRD" cx="-1" cy="-3.5" r="0.48"/>
  <circle class="fCHGRD" cx="-1.5" cy="-3" r="0.48"/>
  <circle class="fCHGRD" cx="-1.5" cy="-2.5" r="0.48"/>
  <circle class="pivotPoint layout" fill="none" cx="0" cy="0" r="1"/>
</svg>
