<?xml version="1.0" encoding="utf-8" standalone="yes"?>
<?xml-stylesheet href="daySvgStyle.css" type="text/css"?>
<svg xmlns="http://www.w3.org/2000/svg" version="1.2" baseProfile="tiny" xml:space="preserve" style="shape-rendering:geometricPrecision; fill-rule:evenodd;" width="7.15mm" height="7.7mm" viewBox="-3.67 -6.71 7.15 7.7">
  <title>WATFAL02</title>
  <desc>Waterfall (non-conspicuous)</desc>
  <metadata>
    <iho:S100SVG xmlns:iho="http://www.iho.int/SVGMetadata/5.2">
      <iho:Description iho:publisher="IHO" iho:creationDate="2024-04-12" iho:source="S-101 PSWG" iho:format="S100SVG" iho:version="1.0" />
    </iho:S100SVG>
  </metadata>
  <rect class="symbolBox layout" fill="none" x="-3.67" y="0.9899998" height="7.7" width="7.15" />
  <rect class="svgBox layout" fill="none" x="-3.67" y="-6.71" height="7.7" width="7.15" />
  <path d=" M -3.17,0.42 L -2.83,0.33 L -2.43,0.02 L -2.04,-0.55 L -1.65,-0.74 L -1.23,-0.71 L -1.65,-0.32 L -1.65,0.07 L -1.22,0.49 L -0.85,0.32 L -0.5,0.09 L -0.11,-0.55 L 0.32,-0.74 L 0.66,-0.72 L 0.27,-0.32 L 0.24,0.11 L 0.7,0.49 L 1.08,0.29 L 1.41,0.09 L 1.8,-0.52 L 2.24,-0.73 L 2.58,-0.71 L 2.18,-0.2 L 2.19,0.11 L 2.54,0.49" class="sl f0 sLANDF" stroke-width="0.32"  />
  <path d=" M 1.16,-6.2 L 0.87,-6.2 L 0.3,-5.91 L 0.02,-5.29 L -0.68,-1.45" class="sl f0 sLANDF" stroke-width="0.32"  />
  <path d=" M 2.98,-6.16 L 2.7,-6.17 L 2.13,-5.87 L 1.84,-5.24 L 1.15,-1.43" class="sl f0 sLANDF" stroke-width="0.32"  />
  <path d=" M -0.69,-6.21 L -0.96,-6.21 L -1.53,-5.91 L -1.83,-5.27 L -2.52,-1.46" class="sl f0 sLANDF" stroke-width="0.32"  />
  <circle class="pivotPoint layout" fill="none" cx="0" cy="0" r="1"/>
</svg>
