<?xml version="1.0" encoding="UTF-8" standalone="yes"?>
<?xml-stylesheet href="daySvgStyle.css" type="text/css"?>
<svg xmlns="http://www.w3.org/2000/svg" version="1.2" baseProfile="tiny" xml:space="preserve" style="shape-rendering:geometricPrecision; fill-rule:evenodd;" width="7.32mm" height="3.32mm" viewBox="-3.66 -1.16 7.32 3.32">
  <title>EMUKCARE</title>
  <desc>Embedded complex line symbol for Under Keel Clearance Plan Area</desc>
  <metadata>
    <iho:S100SVG xmlns:iho="http://www.iho.int/SVGMetadata/5.2">
      <iho:Description iho:publisher="IHO" iho:creationDate="2023-12-21" iho:source="S129PT" iho:format="S100SVG" iho:version="0.1" />
    </iho:S100SVG>
  </metadata>
  <rect class="symbolBox layout" fill="none" x="-3.5" y="-1" height="3" width="7" />
  <rect class="svgBox layout" fill="none" x="-3.5" y="-1" height="3" width="7" />
  <path d=" M -1.5,2 L -1.5,-1" class="sl f0 sCHMGD" stroke-width="0.32" fill-opacity="0.5" />
  <path d=" M -3.5,-1 L -3.5,1.5 L -3.1,2 L -2.4,2 L -2.1,1.5 L -2.1,-1" class="sl f0 sCHMGD" stroke-width="0.32" fill-opacity="0.5" />
  <path d=" M -1.5,0.5 L -0.1,-1" class="sl f0 sCHMGD" stroke-width="0.32" fill-opacity="0.5" />
  <path d=" M -1.5,0.5 L -0.1,2" class="sl f0 sCHMGD" stroke-width="0.32" fill-opacity="0.5" />
  <path d=" M 1.6,-0.5 L 1.2,-1 L 0.6,-1 L 0.2,-0.5 L 0.2,1.5 L 0.6,2 L 1.2,2 L 1.6,1.5" class="sl f0 sCHMGD" stroke-width="0.32" fill-opacity="0.5" />
  <path d=" M 2.1,2 L 2.1,-1 L 2.2,-1 L 2.8,0.4 L 3.4,-1 L 3.5,-1 L 3.5,2" class="sl f0 sCHMGD" stroke-width="0.32" fill-opacity="0.5" />
  <circle class="pivotPoint layout" fill="none" cx="0" cy="0" r="0.4" />
</svg>