<?xml version="1.0" encoding="UTF-8" standalone="yes"?>
<?xml-stylesheet href="SVGStyle.css" type="text/css"?>
<svg xmlns="http://www.w3.org/2000/svg" version="1.2" baseProfile="tiny" xml:space="preserve" style="shape-rendering:geometricPrecision; fill-rule:evenodd;" width="10mm" height="10mm" viewBox="-5 -5 10 10">
	<title>CAUTID01</title>
	<desc>must be defined</desc>
	<metadata>
  	  <S100SVG xmlns:iho="http://www.iho.int/SVGMetadata">
  	    <Description iho:publisher="IHB" iho:creationDate="11/06/2018" iho:source="S52Preslib4.0" iho:format="S100SVG" iho:version="0.1"/>
  	  </S100SVG>
    </metadata>
	<rect class="symbolBox layout" fill="none" x="-5" y="-5" height="10" width="10" />
    <rect class="svgBox layout" fill="none" x="-5" y="-5" height="10" width="10" />

	<circle class="f0 sl sCHGRD" style="stroke-width: 0.1" cx="0" cy="0" r="4.69"/>
    
	<path d="M -2.88,-1.95 L -2.83,-2.02 L -2.69,-2.19 L -2.44,-2.35 L -2.12,-2.42 L -1.81,-2.35 L -1.58,-2.19 L -1.34,-2.02 L -1.03,-1.95 L -0.73,-2.02 L -0.49,-2.19 L -0.26,-2.35 L 0.05,-2.42 L 0.35,-2.35 L 0.59,-2.19 L 0.82,-2.02 L 1.14,-1.95 L 1.44,-2.02 L 1.68,-2.19 L 1.91,-2.35 L 2.22,-2.42 L 2.54,-2.35 L 2.79,-2.19 L 2.94,-2.02 L 2.98,-1.95" class="sl f0 sCHGRD" style="stroke-width: 1.0;"/>
    <path d="M -2.88,0.35 L -2.83,0.28 L -2.69,0.11 L -2.44,-0.05 L -2.12,-0.12 L -1.81,-0.05 L -1.58,0.11 L -1.34,0.28 L -1.03,0.35 L -0.73,0.28 L -0.49,0.11 L -0.26,-0.05 L 0.05,-0.12 L 0.35,-0.05 L 0.59,0.11 L 0.82,0.28 L 1.14,0.35 L 1.44,0.28 L 1.68,0.11 L 1.91,-0.05 L 2.22,-0.12 L 2.54,-0.05 L 2.79,0.11 L 2.94,0.28 L 2.98,0.35" class="sl f0 sCHGRD" style="stroke-width: 1.0;"/>
    <path d="M -2.88,2.64 L -2.83,2.57 L -2.69,2.40 L -2.44,2.25 L -2.12,2.17 L -1.81,2.25 L -1.58,2.40 L -1.34,2.57 L -1.03,2.64 L -0.73,2.57 L -0.49,2.40 L -0.26,2.25 L 0.05,2.17 L 0.35,2.25 L 0.59,2.40 L 0.82,2.57 L 1.14,2.64 L 1.44,2.57 L 1.68,2.40 L 1.91,2.25 L 2.22,2.17 L 2.54,2.25 L 2.79,2.40 L 2.94,2.57 L 2.98,2.64" class="sl f0 sCHGRD" style="stroke-width: 1.0;"/>

    <path d="M 0.05,-2.01 L -2.04,1.61 L 2.14,1.61 Z" class="sl fCHGRF sCHGRD" style="stroke-width: 0.2;"/>

    <path d="M 0.24,0.52 L -0.14,0.52 L -0.20,-0.04 L -0.24,-0.64 L 0.34,-0.64 L 0.30,-0.04 Z" class="fCHGRD"/>
	<path d="M -0.17,0.78 L 0.27,0.78 L 0.27,1.09 L -0.17,1.09 Z" class="fCHGRD"/>
</svg>