<?xml version="1.0" encoding="UTF-8" standalone="yes"?>
<?xml-stylesheet href="SVGStyle.css" type="text/css"?>
<svg xmlns="http://www.w3.org/2000/svg" version="1.2" baseProfile="tiny" xml:space="preserve" style="shape-rendering:geometricPrecision; fill-rule:evenodd;" width="10mm" height="10mm" viewBox="-5 -5 10 10">
	<title>COLDEDD1</title>
	<desc>must be defined</desc>
	<metadata>
  	  <S100SVG xmlns:iho="http://www.iho.int/SVGMetadata">
  	    <Description iho:publisher="KHOA" iho:creationDate="11/06/2018" iho:format="S100SVG" iho:version="0.1"/>
  	  </S100SVG>
    </metadata>
	<rect class="symbolBox layout" fill="none" x="-5" y="-5" height="10" width="10" />
    <rect class="svgBox layout" fill="none" x="-5" y="-5" height="10" width="10" />

	<path d="M 4.74,-0.07 L 4.64,-1.01 L 4.37,-1.90 L 3.94,-2.69 L 3.37,-3.38 L 2.67,-3.96 L 1.88,-4.39 L 0.99,-4.67 L 0.05,-4.76 L -0.90,-4.67 L -1.77,-4.39 L -2.57,-3.96 L -3.27,-3.38 L -3.83,-2.69 L -4.27,-1.90 L -4.54,-1.01 L -4.64,-0.07 L -4.54,0.87 L -4.27,1.75 L -3.83,2.55 L -3.27,3.24 L -2.57,3.81 L -1.77,4.25 L -0.90,4.52 L 0.05,4.62 L 0.99,4.52 L 1.88,4.25 L 2.67,3.81 L 3.37,3.24 L 3.94,2.55 L 4.37,1.75 L 4.64,0.87 Z" class="fMARBL"/>
	
	<path d="M 1.69,-0.40 L 1.57,-0.47 L 1.45,-0.45 L 1.36,-0.35 L 1.35,-0.23 L 1.44,0.13 L 1.46,0.53 L 1.39,0.96 L 1.20,1.41 L 0.59,2.04 L -0.15,2.31 L -0.95,2.31 L -1.73,2.10 L -2.25,1.80 L -2.73,1.43 L -3.06,1.10 L -3.19,0.96 L -3.15,1.09 L -2.98,1.44 L -2.56,1.93 L -1.84,2.49 L -1.29,2.75 L -0.67,2.90 L -0.04,2.90 L 0.56,2.75 L 1.31,2.29 L 1.80,1.64 L 2.04,0.93 L 2.01,0.25 L 1.95,0.04 L 1.87,-0.13 L 1.78,-0.28 Z" class="fCHWHT"/>
	<path d="M 0.38,1.57 L 0.45,1.45 L 0.42,1.33 L 0.34,1.24 L 0.20,1.24 L -0.15,1.31 L -0.56,1.33 L -0.99,1.26 L -1.43,1.07 L -2.06,0.47 L -2.33,-0.27 L -2.33,-1.07 L -2.12,-1.85 L -1.82,-2.38 L -1.45,-2.85 L -1.12,-3.18 L -0.98,-3.31 L -1.11,-3.27 L -1.46,-3.10 L -1.95,-2.69 L -2.52,-1.97 L -2.77,-1.41 L -2.92,-0.80 L -2.92,-0.16 L -2.78,0.43 L -2.31,1.19 L -1.66,1.69 L -0.95,1.92 L -0.27,1.89 L -0.07,1.82 L 0.10,1.75 L 0.26,1.66 Z" class="fCHWHT"/>
	<path d="M -1.59,0.26 L -1.48,0.32 L -1.35,0.30 L -1.26,0.21 L -1.25,0.08 L -1.33,-0.28 L -1.35,-0.68 L -1.29,-1.11 L -1.09,-1.55 L -0.49,-2.18 L 0.25,-2.45 L 1.05,-2.44 L 1.83,-2.24 L 2.35,-1.95 L 2.82,-1.57 L 3.16,-1.25 L 3.29,-1.10 L 3.25,-1.24 L 3.07,-1.58 L 2.67,-2.07 L 1.94,-2.63 L 1.39,-2.90 L 0.77,-3.04 L 0.14,-3.04 L -0.46,-2.90 L -1.21,-2.43 L -1.71,-1.78 L -1.94,-1.07 L -1.91,-0.40 L -1.84,-0.19 L -1.77,-0.01 L -1.69,0.13 Z" class="fCHWHT"/>
	<path d="M -0.28,-1.71 L -0.34,-1.59 L -0.33,-1.48 L -0.23,-1.39 L -0.10,-1.38 L 0.25,-1.46 L 0.66,-1.48 L 1.09,-1.41 L 1.53,-1.22 L 2.15,-0.61 L 2.43,0.13 L 2.42,0.93 L 2.21,1.71 L 1.93,2.23 L 1.54,2.70 L 1.22,3.04 L 1.08,3.17 L 1.22,3.12 L 1.55,2.95 L 2.04,2.54 L 2.62,1.82 L 2.88,1.26 L 3.02,0.65 L 3.02,0.01 L 2.88,-0.57 L 2.40,-1.33 L 1.76,-1.83 L 1.05,-2.06 L 0.37,-2.03 L 0.17,-1.97 L -0.01,-1.89 L -0.15,-1.80 Z" class="fCHWHT"/>
</svg>