<?xml version="1.0" encoding="UTF-8" standalone="yes"?>
<?xml-stylesheet href="SVGStyle.css" type="text/css"?>
<svg xmlns="http://www.w3.org/2000/svg" version="1.2" baseProfile="tiny" xml:space="preserve" style="shape-rendering:geometricPrecision; fill-rule:evenodd;" width="10mm" height="10mm" viewBox="-5 -5 10 10">
	<title>SEAFOG01</title>
	<desc>must be defined</desc>
	<metadata>
  	  <S100SVG xmlns:iho="http://www.iho.int/SVGMetadata">
  	    <Description iho:publisher="KHOA" iho:creationDate="11/06/2018" iho:format="S100SVG" iho:version="0.1"/>
  	  </S100SVG>
    </metadata>
	<rect class="symbolBox layout" fill="none" x="-5" y="-5" height="10" width="10" />
    <rect class="svgBox layout" fill="none" x="-5" y="-5" height="10" width="10" />

	<circle class="f0 sl sCHGRD" style="stroke-width: 0.1" cx="0" cy="0" r="4.69"/>

	<path d="M 4.62,-0.49 L 4.64,0.00 L 4.62,0.49 L 4.55,0.97 L 4.43,1.43 L 4.28,1.87 L 4.08,2.29 L 3.85,2.69 L 3.58,3.06 L 3.29,3.40 L 2.96,3.71 L 2.60,3.99 L 2.21,4.23 L 1.81,4.43 L 1.38,4.59 L 0.94,4.71 L 0.47,4.79 L 0.00,4.81 L -0.47,4.79 L -0.94,4.71 L -1.38,4.59 L -1.81,4.43 L -2.21,4.23 L -2.60,3.99 L -2.96,3.71 L -3.29,3.40 L -3.58,3.06 L -3.85,2.69 L -4.08,2.29 L -4.28,1.87 L -4.43,1.43 L -4.55,0.97 L -4.62,0.49 L -4.64,0.00 L -4.62,-0.49 Z" class="fCHGRD"/>
	
    <path d="M 1.22,-1.23 L 1.18,-1.23 L 1.14,-1.23 L 1.10,-1.23 L 1.06,-1.23 L 0.94,-1.62 L 0.70,-1.96 L 0.35,-2.17 L -0.07,-2.25 L -0.48,-2.17 L -0.83,-1.95 L -1.08,-1.62 L -1.20,-1.22 L -1.45,-1.15 L -1.65,-0.98 L -1.78,-0.77 L -1.83,-0.51 L -1.77,-0.23 L -1.62,0.01 L -1.40,0.15 L -1.11,0.21 L -0.54,0.21 L 0.05,0.21 L 0.64,0.21 L 1.22,0.21 L 1.50,0.15 L 1.73,0.01 L 1.88,-0.23 L 1.94,-0.51 L 1.88,-0.79 L 1.73,-1.01 L 1.50,-1.17 Z" class="fCHWHT"/>
	
    <path d="M -0.53,-0.49 L -0.57,-0.73 L -0.71,-0.94 L -0.91,-1.07 L -1.16,-1.12 L -1.40,-1.07 L -1.60,-0.94 L -1.74,-0.73 L -1.79,-0.49 L -1.74,-0.24 L -1.60,-0.04 L -1.40,0.10 L -1.16,0.14 L -0.56,0.14 L 0.05,0.14 L 0.65,0.14 L 1.25,0.14 L 1.50,0.10 L 1.70,-0.04 L 1.84,-0.24 L 1.89,-0.49 L 1.84,-0.73 L 1.70,-0.94 L 1.50,-1.07 L 1.25,-1.12 L 1.19,-1.12 L 1.12,-1.12 L 1.06,-1.12 L 0.99,-1.12" class="sl f0 sCHGRD" style="stroke-width: 0.188"/>
	<path d="M 0.99,-1.12 L 0.91,-1.53 L 0.68,-1.87 L 0.34,-2.10 L -0.07,-2.19 L -0.48,-2.10 L -0.82,-1.87 L -1.05,-1.53 L -1.13,-1.12" class="sl f0 sCHGRD" style="stroke-width: 0.188"/>
	
    <path d="M -1.83,0.97 L 1.94,0.97" class="sl f0 sCHWHT" style="stroke-width: 0.5"/>
	<path d="M -1.83,1.95 L 1.94,1.95" class="sl f0 sCHGRF" style="stroke-width: 0.5"/>
</svg>