<?xml version="1.0" encoding="UTF-8"?>
<?xml-stylesheet href="SVGStyle.css" type="text/css"?><svg xmlns="http://www.w3.org/2000/svg" version="1.2" baseProfile="tiny" xml:space="preserve" style="shape-rendering:geometricPrecision; fill-rule:evenodd;" width="14.32mm" height="14.32mm" viewBox="-7.16 -7.16 14.32 14.32">
  <title>MSISYM01</title>
  <desc>Maritime Safety Information</desc>
  <metadata>
    <iho:S100SVG xmlns:iho="http://www.iho.int/SVGMetadata">
      <iho:Description iho:publisher="IHB" iho:creationDate="2014-06-09" iho:source="S52Preslib4.0" iho:format="S100SVG" iho:version="0.1"/>
    </iho:S100SVG>
  </metadata>
  <rect class="symbolBox layout" fill="none" x="-7" y="-7" height="14.5" width="14.5"/>
  <rect class="svgBox layout" fill="none" x="-7" y="-7" height="14.5" width="14.5"/>
  <circle class="pivotPoint layout" fill="none" cx="0" cy="0" r="1"/>
  <circle class="f0 sCHMGD" style="stroke-width: 0.64;" cx="0" cy="0" r="5"/>
  <path d="M -3.5,2.9 L -3.5,-2.8 L -3.0,-2.8 L -2.25,1.8 L -1.5,-2.8 L -1.0,-2.8 L -1.0,2.9 L -1.5,2.9 L -1.5,-0.2 L -2.1,2.9 L -2.4,2.9 L -3,-0.1 L -3,2.9 L -3.5,2.9 L -3.5,2.9" class="fCHMGD" style="stroke-width: 0.32;"/>
  <path d="M 2.3,-1.9 L 1.8,-1.9 L 1.8,-2.3 L 1.3,-2.8 L 0,-2.8 L -0.7,-2.1 L -0.7,-0.6 L 0,0.1 L 1.1,0.1 L 1.3,0.4 L 1.3,2.0 L 1.1,2.2 L 0,2.2 L -0.1,2.1 L -0.1,2.0 L -0.1,1.8 L -0.7,1.8 L -0.7,2.4 L -0.3,2.8 L 1.4,2.8 L 1.8,2.4 L 1.8,0.2 L 1.3,-0.4 L 0.3,-0.4 L -0.1,-0.8 L -0.1,-1.9 L 0.3,-2.2 L 1.0,-2.2 L 1.2,-2.1 L 1.2,-1.9" class="fCHMGD" style="stroke-width: 0.32;"/>
  <path d="M 2.2,-2.8 L 2.2,-2.3 L 2.6,-2.3 L 2.6,2.3 L 2.3,2.3 L 2.2,2.3 L 2.2,2.8 L 3.5,2.8 L 3.5,2.3 L 3.1,2.3 L 3.1,-2.3 L 3.5,-2.3 L 3.5,-2.8 L 2.2,-2.8 L 2.2,-2.8" class="fCHMGD" style="stroke-width: 0.32;"/>
</svg>
