<?xml version="1.0" encoding="utf-8" standalone="yes"?>
<?xml-stylesheet href="SVGStyle.css" type="text/css"?>
<svg xmlns="http://www.w3.org/2000/svg" version="1.2" baseProfile="tiny" xml:space="preserve" style="shape-rendering:geometricPrecision; fill-rule:evenodd;" width="6.16mm" height="6.01mm" viewBox="-3.07 -2.81 6.16 6.01">
  <title>ICESHR01</title>
  <desc>symbol for Ice Shear as a point</desc>
  <metadata>
    <S100SVG xmlns:iho="http://www.iho.int/SVGMetadata">
      <Description publisher="IHB" creationDate="2017-08-16" source="S52Preslib4.0" format="S100SVG" version="0.1" />
    </S100SVG>
  </metadata>
  <rect class="symbolBox layout" fill="none" x="-3.07" y="3.2" height="6.01" width="6.16" />
  <rect class="svgBox layout" fill="none" x="-3.07" y="-2.81" height="6.01" width="6.16" />
  <path d=" M -2.57,-1.1 L -1.1,-2.31 L -1.1,-1.33 L 2.59,-1.35 L 2.58,-0.81 L -1.11,-0.82 L -1.08,0.12 L -2.57,-1.12 L -2.57,-1.1" transform="rotate(0)" class="sl f0 fCHWHT" style="stroke-width:0.32;stroke-dasharray:0,0;" />
  <path d=" M -2.57,-1.1 L -1.1,-2.31 L -1.1,-1.33 L 2.59,-1.35 L 2.58,-0.81 L -1.11,-0.82 L -1.08,0.12 L -2.57,-1.12 L -2.57,-1.1" transform="rotate(0)" class="sl f0 fCHGRD" style="stroke-width:0.32;stroke-dasharray:0,0;" />
  <path d=" M 2.45,1.46 L 0.98,0.23 L 0.97,1.14 L -2.57,1.12 L -2.57,1.79 L 0.96,1.78 L 1,2.7 L 2.44,1.46 L 2.45,1.46" transform="rotate(0)" class="sl f0 fCHGRD" style="stroke-width:0.32;stroke-dasharray:0,0;" />
</svg>