<?xml version="1.0" encoding="UTF-8"?>
<?xml-stylesheet href="daySvgStyle.css" type="text/css"?><svg xmlns="http://www.w3.org/2000/svg" version="1.2" baseProfile="tiny" xml:space="preserve" style="shape-rendering:geometricPrecision; fill-rule:evenodd;" width="6.79mm" height="5.04mm" viewBox="-3.87 -4.22 6.79 5.04">
  <title>BOYBAR01</title>
  <desc>barrel buoy, paper-chart</desc>
  <metadata>
    <iho:S100SVG xmlns:iho="http://www.iho.int/SVGMetadata/5.0">
      <iho:Description iho:publisher="IHB" iho:creationDate="2014-06-09" iho:source="S52Preslib4.0" iho:format="S100SVG" iho:version="0.1"/>
    </iho:S100SVG>
  </metadata>
  <rect class="symbolBox layout" fill="none" x="-3.55" y="-3.9" height="4.4" width="6.15"/>
  <rect class="svgBox layout" fill="none" x="-3.55" y="-3.9" height="4.4" width="6.15"/>
  <circle class="f0 sCHBLK" style="stroke-width: 0.64;" cx="0" cy="0" r="0.5"/>
  <path d=" M -3,0 L -3,-1.55 L -2.9,-2.2 L -2.55,-2.9" class="sl f0 sCHBLK" style="stroke-width: 0.64;"/>
  <path d=" M -2.1,-3.35 L -1.65,-3.6 L -1.1,-3.8 L -0.65,-3.9 L -0.2,-3.9 L 0.3,-3.8 L 0.9,-3.45 L 1.35,-3.15 L 1.6,-2.85 L 1.85,-2.35 L 2,-1.9 L 2.05,-1.55 L 2.05,0" class="sl f0 sCHBLK" style="stroke-width: 0.64;"/>
  <path d=" M -2.25,-3.25 L -1.9,-2.7 L -1.55,-2.2 L -1.35,-1.65 L -1.2,-0.9 L -1.1,-0.45 L -1.1,0" class="sl f0 sCHBLK" style="stroke-width: 0.64;"/>
  <path d=" M 0.45,0 L 2.6,0" class="sl f0 sCHBLK" style="stroke-width: 0.64;"/>
  <path d=" M -2.55,-2.9 L -2.1,-3.35" class="sl f0 sCHBLK" style="stroke-width: 0.64;"/>
  <path d=" M -0.55,0 L -3.55,0" class="sl f0 sCHBLK" style="stroke-width: 0.64;"/>
  <circle class="pivotPoint layout" fill="none" cx="0" cy="0" r="1"/>
</svg>
