<?xml version="1.0" encoding="utf-8" standalone="yes"?>
<?xml-stylesheet href="daySvgStyle.css" type="text/css"?>
<svg xmlns="http://www.w3.org/2000/svg" version="1.2" baseProfile="tiny" xml:space="preserve" style="shape-rendering:geometricPrecision; fill-rule:evenodd;" width="11.99mm" height="11.99mm" viewBox="-5.98 -5.98 11.99 11.99">
  <title>BOYMOR51</title>
  <desc>Centred symbol for mooring buoy area</desc>
  <metadata>
    <iho:S100SVG xmlns:iho="http://www.iho.int/SVGMetadata/5.0">
      <iho:Description iho:publisher="IHO" iho:creationDate="2014-06-09" iho:source="S52Preslib4.0" iho:format="S100SVG" iho:version="0.1" />
    </iho:S100SVG>
  </metadata>
  <rect class="symbolBox layout" fill="none" x="-5.98" y="-5.98" height="11.99" width="11.99" />
  <rect class="svgBox layout" fill="none" x="-5.98" y="-5.98" height="11.99" width="11.99" />
  <circle cx="0" cy="0" r="4.99" class="sl f0 sCHGRF" style="stroke-width:0.64" />
  <circle cx="-0.03" cy="-2.52" r="0.63" class="sl f0 sCHGRF" style="stroke-width:0.64" />
  <path d=" M -0.23,2.03 L 2.98,2.03" class="sl f0 sCHGRF" style="stroke-width:0.64;" />
  <path d=" M -0.23,2.03 L -3.03,2.03" class="sl f0 sCHGRF" style="stroke-width:0.64;" />
  <path d=" M 2.51,2.03 L 2.51,0.73" class="sl f0 sCHGRF" style="stroke-width:0.64;" />
  <path d=" M -2.58,2.03 L -2.58,0.73 L -2.53,0.23 L -2.33,-0.37 L -2.03,-0.87 L -1.78,-1.12 L -1.41,-1.45 L -0.98,-1.65 L -0.56,-1.77 L -0.03,-1.85 L 0.44,-1.8 L 0.97,-1.62 L 1.49,-1.35 L 1.87,-1 L 2.22,-0.5 L 2.42,0 L 2.51,0.48 L 2.51,0.73" class="sl f0 sCHGRF" style="stroke-width:0.64;" />
  <path d=" M -1.78,-1.12 L -1.41,-0.57" class="sl f0 sCHGRF" style="stroke-width:0.64;" />
  <path d=" M -0.96,0.33 L -0.75,1.15 L -0.71,1.65 L -0.68,2.03" class="sl f0 sCHGRF" style="stroke-width:0.64;" />
  <path d=" M -1.41,-0.57 L -0.96,0.33" class="sl f0 sCHGRF" style="stroke-width:0.64;" />
  <circle class="pivotPoint layout" fill="none" cx="0" cy="0" r="0.4"/>
</svg>