<?xml version="1.0" encoding="UTF-8"?>
<?xml-stylesheet href="daySvgStyle.css" type="text/css"?><svg xmlns="http://www.w3.org/2000/svg" version="1.2" baseProfile="tiny" xml:space="preserve" style="shape-rendering:geometricPrecision; fill-rule:evenodd;" width="5.32mm" height="5.32mm" viewBox="-2.66 -2.66 5.32 5.32">
  <title>BOYNDM</title>
  <desc>Buoy, New Danger Marking (draft)</desc>
  <metadata>
    <iho:S100SVG xmlns:iho="http://www.iho.int/SVGMetadata/5.0">
      <iho:Description iho:publisher="IHB" iho:creationDate="2022-04-18" iho:source="S52Preslib4.0" iho:format="S100SVG" iho:version="0.1"/>
    </iho:S100SVG>
  </metadata>
  <rect class="symbolBox layout" fill="none" x="-2.66" y="-2.66" height="5.32" width="5.32"/>
  <rect class="svgBox layout" fill="none" x="-2.66" y="-2.66" height="5.32" width="5.32"/>
  <path class="fRESBL" d="M 0.9,-2.5 L -0.25,-2.5 L -0.94,-0.6 L -2.07,-0.6 L -2.5,0.6 L -1.37,0.6 L -2.06,2.5 L -0.91,2.5 L -0.22,0.6 L -0.22,0.6 L 0.22,-0.6 L 0.22,-0.6 Z"/>
  <path class="fCHYLW" d="M 2.5,-0.6 L 1.37,-0.6 L 2.06,-2.5 L 0.9,-2.5 L -0.91,2.5 L 0.25,2.5 L 0.94,0.6 L 2.07,0.6 Z"/>
  <path class="sl f0 sOUTLW" style="stroke-width: 0.32;" d="M -0.25,-2.5 L -0.94,-0.6 L -2.07,-0.6 L -2.5,0.6 L -1.37,0.6 L -2.06,2.5 L 0.25,2.5 L 0.94,0.6 L 2.07,0.6 L 2.5,-0.6 L 1.37,-0.6 L 2.06,-2.5 L -0.25,-2.5 Z"/>
  <circle class="fOUTLW" cx="0" cy="0" r="0.16"/>
  <circle class="pivotPoint layout" fill="none" cx="0" cy="0" r="1"/>
</svg>
