<?xml version="1.0" encoding="UTF-8"?>
<?xml-stylesheet href="daySvgStyle.css" type="text/css"?><svg xmlns="http://www.w3.org/2000/svg" version="1.2" baseProfile="tiny" xml:space="preserve" style="shape-rendering:geometricPrecision; fill-rule:evenodd;" width="5mm" height="5.09mm" viewBox="-2.56 -4.56 5 5.09">
  <title>CAIRNS01</title>
  <desc>cairn</desc>
  <metadata>
    <iho:S100SVG xmlns:iho="http://www.iho.int/SVGMetadata/5.0">
      <iho:Description iho:publisher="IHB" iho:creationDate="2014-06-09" iho:source="S52Preslib4.0" iho:format="S100SVG" iho:version="0.1"/>
    </iho:S100SVG>
  </metadata>
  <rect class="symbolBox layout" fill="none" x="-2.4" y="-4.4" height="4.77" width="4.68"/>
  <rect class="svgBox layout" fill="none" x="-2.4" y="-4.4" height="4.77" width="4.68"/>
  <path d=" M 0.18,-4.38 L 0.59,-4.25 L 0.84,-4.13 L 1.09,-3.82 L 1.18,-3.57 L 1.25,-3.38 L 1.25,-3.07 L 1.12,-2.82 L 1.03,-2.63 L 0.87,-2.41 L 0.78,-2.32 L 0.87,-2.57 L 1,-2.82 L 1.03,-3 L 1.03,-3.32 L 0.93,-3.63 L 0.84,-3.82 L 0.68,-4 L 0.43,-4.22 L 0.18,-4.38 Z" class="fLANDF"/>
  <path d=" M -0.75,-2.38 L -0.5,-2.16 L -0.25,-1.97 L -0.16,-1.82 L -0.07,-1.57 L 0,-1.32 L 0,-1.13 L -0.13,-0.82 L -0.22,-0.57 L -0.38,-0.38 L -0.66,-0.16 L -0.5,-0.41 L -0.38,-0.66 L -0.25,-1.16 L -0.25,-1.41 L -0.38,-1.72 L -0.47,-1.91 L -0.66,-2.22 L -0.75,-2.38 Z" class="fLANDF"/>
  <path d=" M 1.28,-2.25 L 1.53,-2.22 L 1.78,-2.13 L 2.03,-1.88 L 2.12,-1.72 L 2.25,-1.47 L 2.28,-1.22 L 2.25,-0.97 L 2.18,-0.75 L 2.09,-0.57 L 1.93,-0.41 L 1.75,-0.16 L 1.93,-0.5 L 2.03,-0.82 L 2.09,-1.16 L 2,-1.57 L 1.84,-1.82 L 1.62,-2.07 L 1.43,-2.16 L 1.28,-2.25 Z" class="fLANDF"/>
  <circle class="f0 sLANDF" style="stroke-width: 0.32;" cx="0" cy="0" r="0.37"/>
  <circle class="f0 sLANDF" style="stroke-width: 0.32;" cx="-1.22" cy="-1.22" r="1.18"/>
  <circle class="f0 sLANDF" style="stroke-width: 0.32;" cx="0.06" cy="-3.25" r="1.15"/>
  <circle class="f0 sLANDF" style="stroke-width: 0.32;" cx="1.18" cy="-1.16" r="1.09"/>
  <path d=" M -2.22,0 L -0.41,0" class="sl f0 sLANDF" style="stroke-width: 0.32;"/>
  <path d=" M 0.37,0 L 2.12,0" class="sl f0 sLANDF" style="stroke-width: 0.32;"/>
  <circle class="pivotPoint layout" fill="none" cx="0" cy="0" r="1"/>
</svg>
