<?xml version="1.0" encoding="UTF-8"?>
<?xml-stylesheet href="daySvgStyle.css" type="text/css"?><svg xmlns="http://www.w3.org/2000/svg" version="1.2" baseProfile="tiny" xml:space="preserve" style="shape-rendering:geometricPrecision; fill-rule:evenodd;" width="16.36mm" height="4.62mm" viewBox="-8.19 -2.34 16.36 4.62">
  <title>DQUALU01P</title>
  <desc>pattern of symbols for a chart with quality not assessed</desc>
  <metadata>
    <iho:S100SVG xmlns:iho="http://www.iho.int/SVGMetadata/5.0">
      <iho:Description iho:publisher="IHB" iho:creationDate="2015-03-04" iho:source="S52Preslib4.0" iho:format="S100SVG" iho:version="0.1"/>
    </iho:S100SVG>
  </metadata>
  <rect class="symbolBox layout" fill="none" x="-8.03" y="-2.18" height="4.3" width="16.04"/>
  <rect class="svgBox layout" fill="none" x="-8.029999999999999" y="-2.18" height="4.3" width="16.04"/>
  <path d=" M -6.11,-2.18 L -6.56,-2.04 L -6.91,-1.9 L -7.26,-1.65 L -7.54,-1.3 L -7.79,-0.88 L -7.93,-0.5 L -8.03,-0.01 L -7.96,0.51 L -7.86,0.93 L -7.68,1.39 L -7.23,1.77 L -6.67,2.02 L -6.18,2.12" class="sl f0 sCHGRD" style="stroke-width: 0.32;"/>
  <path d=" M -6.25,-2.14 L 6.3,-2.14 L 6.72,-2 L 7.24,-1.72 L 7.56,-1.41 L 7.84,-1.02 L 7.91,-0.74 L 7.98,-0.36 L 8.01,-0.01 L 7.98,0.44 L 7.91,0.86 L 7.73,1.28 L 7.56,1.53 L 7.17,1.88 L 6.89,2.05 L 6.65,2.12 L 6.3,2.09 L -6.21,2.09" class="sl f0 sCHGRD" style="stroke-width: 0.32;"/>
  <path d=" M -0.86,-1.13 L -0.85,0.78 L -0.75,1.07 L -0.54,1.27 L -0.23,1.42 L 0.11,1.44 L 0.34,1.34 L 0.63,1.16 L 0.81,0.99 L 0.91,0.75 L 0.91,-1.13" class="sl f0 sCHGRD" style="stroke-width: 0.32;"/>
  <circle class="pivotPoint layout" fill="none" cx="0" cy="0" r="1"/>
</svg>
