<?xml version="1.0" encoding="UTF-8"?>
<?xml-stylesheet href="daySvgStyle.css" type="text/css"?><svg xmlns="http://www.w3.org/2000/svg" version="1.2" baseProfile="tiny" xml:space="preserve" style="shape-rendering:geometricPrecision; fill-rule:evenodd;" width="16.36mm" height="4.62mm" viewBox="-8.32 -2.41 16.36 4.62">
  <title>DQUALC01P</title>
  <desc>pattern of symbols for a low accuracy or incomplete chart</desc>
  <metadata>
    <iho:S100SVG xmlns:iho="http://www.iho.int/SVGMetadata/5.0">
      <iho:Description iho:publisher="IHB" iho:creationDate="2015-03-04" iho:source="S52Preslib4.0" iho:format="S100SVG" iho:version="0.1"/>
    </iho:S100SVG>
  </metadata>
  <rect class="symbolBox layout" fill="none" x="-8.16" y="-2.25" height="4.3" width="16.04"/>
  <rect class="svgBox layout" fill="none" x="-8.16" y="-2.25" height="4.3" width="16.04"/>
  <path d=" M 6.14,-1.15 L 4.33,1.25" class="sl f0 sCHGRD" style="stroke-width: 0.32;"/>
  <path d=" M 4.34,-1.15 L 6.14,1.24" class="sl f0 sCHGRD" style="stroke-width: 0.32;"/>
  <path d=" M 0.92,-1.15 L -0.89,1.25" class="sl f0 sCHGRD" style="stroke-width: 0.32;"/>
  <path d=" M -0.88,-1.15 L 0.92,1.24" class="sl f0 sCHGRD" style="stroke-width: 0.32;"/>
  <path d=" M -4.37,-1.1 L -6.18,1.3" class="sl f0 sCHGRD" style="stroke-width: 0.32;"/>
  <path d=" M -6.17,-1.1 L -4.37,1.29" class="sl f0 sCHGRD" style="stroke-width: 0.32;"/>
  <path d=" M -6.24,-2.25 L -6.69,-2.11 L -7.04,-1.97 L -7.39,-1.72 L -7.67,-1.37 L -7.92,-0.95 L -8.06,-0.57 L -8.16,-0.08 L -8.09,0.44 L -7.99,0.86 L -7.81,1.32 L -7.36,1.7 L -6.8,1.95 L -6.31,2.05" class="sl f0 sCHGRD" style="stroke-width: 0.32;"/>
  <path d=" M -6.38,-2.21 L 6.17,-2.21 L 6.59,-2.07 L 7.11,-1.79 L 7.43,-1.48 L 7.71,-1.09 L 7.78,-0.81 L 7.85,-0.43 L 7.88,-0.08 L 7.85,0.37 L 7.78,0.79 L 7.6,1.21 L 7.43,1.46 L 7.04,1.81 L 6.76,1.98 L 6.52,2.05 L 6.17,2.02 L -6.34,2.02" class="sl f0 sCHGRD" style="stroke-width: 0.32;"/>
  <path d=" M -6.76,0.07 L -3.76,0.07" class="sl f0 sCHGRD" style="stroke-width: 0.32;"/>
  <path d=" M 3.73,0.04 L 6.73,0.04" class="sl f0 sCHGRD" style="stroke-width: 0.32;"/>
  <path d=" M -1.58,0.02 L 1.42,0.02" class="sl f0 sCHGRD" style="stroke-width: 0.32;"/>
  <circle class="pivotPoint layout" fill="none" cx="0" cy="0" r="1"/>
</svg>
