<?xml version="1.0" encoding="UTF-8"?>
<?xml-stylesheet href="daySvgStyle.css" type="text/css"?><svg xmlns="http://www.w3.org/2000/svg" version="1.2" baseProfile="tiny" xml:space="preserve" style="shape-rendering:geometricPrecision; fill-rule:evenodd;" width="6.97mm" height="4.25mm" viewBox="-3.86 -1.47 6.97 4.25">
  <title>EMFSHRE1</title>
  <desc>Embedded symbol</desc>
  <metadata>
    <iho:S100SVG xmlns:iho="http://www.iho.int/SVGMetadata/5.0">
      <iho:Description iho:publisher="IHB" iho:creationDate="2014-06-09" iho:source="S52Preslib4.0" iho:format="S100SVG" iho:version="0.1"/>
    </iho:S100SVG>
  </metadata>
  <rect class="symbolBox layout" fill="none" x="-3.7" y="-1.31" height="3.93" width="6.65"/>
  <rect class="svgBox layout" fill="none" x="-3.7" y="-1.31" height="3.93" width="6.65"/>
  <path d=" M -3.7,1.53 L -2.52,0.54 L -2.02,-0.01 L -1.44,-0.39 L -0.83,-0.62 L -0.26,-0.79 L 0.37,-0.79 L 0.9,-0.73 L 1.54,-0.51 L 2.12,-0.25 L 2.64,0.14 L 2.95,0.54 L 2.56,0.9 L 2.19,1.23 L 1.73,1.46 L 1.12,1.69 L 0.51,1.81 L -0.18,1.81 L -0.83,1.69 L -1.47,1.46 L -2.02,1.09 L -2.4,0.78" class="sl f0 sCHMGD" style="stroke-width: 0.32;"/>
  <path d=" M -2.68,0.43 L -3.51,-0.65" class="sl f0 sCHMGD" style="stroke-width: 0.32;"/>
  <path d=" M -2.42,0.77 L -2.69,0.47" class="sl f0 sCHMGD" style="stroke-width: 0.32;"/>
  <path d=" M 2.34,-1.31 L -1.59,2.62" class="sl f0 sCHMGD" style="stroke-width: 0.32;"/>
  <circle class="pivotPoint layout" fill="none" cx="0" cy="0" r="1"/>
</svg>
