<?xml version="1.0" encoding="UTF-8"?>
<?xml-stylesheet href="daySvgStyle.css" type="text/css"?><svg xmlns="http://www.w3.org/2000/svg" version="1.2" baseProfile="tiny" xml:space="preserve" style="shape-rendering:geometricPrecision; fill-rule:evenodd;" width="7.37mm" height="4.35mm" viewBox="-3.69 -2.18 7.37 4.35">
  <title>MARCUL02</title>
  <desc>fish farm</desc>
  <metadata>
    <iho:S100SVG xmlns:iho="http://www.iho.int/SVGMetadata/5.0">
      <iho:Description iho:publisher="IHB" iho:creationDate="2014-06-09" iho:source="S52Preslib4.0" iho:format="S100SVG" iho:version="0.1"/>
    </iho:S100SVG>
  </metadata>
  <rect class="symbolBox layout" fill="none" x="-3.53" y="-2.02" height="4.03" width="7.05"/>
  <rect class="svgBox layout" fill="none" x="-3.53" y="-2.02" height="4.03" width="7.05"/>
  <path d=" M -2.64,0.77 L -1.28,-0.45 L -0.55,-0.86 L 0.02,-1.02 L 0.53,-1.08 L 1.13,-0.97 L 1.75,-0.77 L 2.15,-0.53 L 2.49,-0.26 L 2.7,0.04 L 2.35,0.33 L 1.99,0.61 L 1.45,0.85 L 1.02,0.99 L 0.5,1.01 L -0.06,0.99 L -0.6,0.87 L -0.99,0.65 L -2.64,-0.72" class="sl f0 sCHGRD" style="stroke-width: 0.32;"/>
  <path d=" M -3.53,-1.01 L -3.53,-2 L 3.48,-2 L 3.48,-1.04" class="sl f0 sCHGRD" style="stroke-width: 0.32;"/>
  <path d=" M -3.53,1.01 L -3.53,2.01 L 3.51,2.01 L 3.52,1.01" class="sl f0 sCHGRD" style="stroke-width: 0.32;"/>
  <path d=" M -2.05,1.01 L -2.05,2.01" class="sl f0 sCHGRD" style="stroke-width: 0.32;"/>
  <path d=" M 1.96,1.01 L 1.96,2.01" class="sl f0 sCHGRD" style="stroke-width: 0.32;"/>
  <path d=" M -0.04,1 L -0.04,1.98" class="sl f0 sCHGRD" style="stroke-width: 0.32;"/>
  <path d=" M -2.05,-1.99 L -2.05,-0.98" class="sl f0 sCHGRD" style="stroke-width: 0.32;"/>
  <path d=" M 1.96,-2.01 L 1.96,-1" class="sl f0 sCHGRD" style="stroke-width: 0.32;"/>
  <path d=" M -0.05,-2.02 L -0.05,-1.02" class="sl f0 sCHGRD" style="stroke-width: 0.32;"/>
  <circle class="pivotPoint layout" fill="none" cx="0" cy="0" r="1"/>
</svg>
