<?xml version="1.0" encoding="UTF-8"?>
<?xml-stylesheet href="daySvgStyle.css" type="text/css"?><svg xmlns="http://www.w3.org/2000/svg" version="1.2" baseProfile="tiny" xml:space="preserve" style="shape-rendering:geometricPrecision; fill-rule:evenodd;" width="7.12mm" height="7.12mm" viewBox="-3.57 -3.69 7.12 7.12">
  <title>RFNERY01</title>
  <desc>refinery</desc>
  <metadata>
    <iho:S100SVG xmlns:iho="http://www.iho.int/SVGMetadata/5.0">
      <iho:Description iho:publisher="IHB" iho:creationDate="2014-06-09" iho:source="S52Preslib4.0" iho:format="S100SVG" iho:version="0.1"/>
    </iho:S100SVG>
  </metadata>
  <rect class="symbolBox layout" fill="none" x="-3.41" y="-3.53" height="6.8" width="6.8"/>
  <rect class="svgBox layout" fill="none" x="-3.41" y="-3.53" height="6.8" width="6.8"/>
  <path d=" M -0.6,2.35 L -0.6,-0.9 L 0.4,-0.9 L 0.4,2.35 L 0.27,1.97 L -0.1,1.85 L -0.42,1.97 L -0.6,2.35 Z" class="fLANDF"/>
  <path d=" M 0.46,-3.22 L 0.15,-3.03 L -0.17,-2.84 L -0.42,-2.53 L -0.6,-2.15 L -0.6,-1.78 L -0.54,-1.59 L -0.29,-1.47 L 0.02,-1.47 L 0.21,-1.59 L 0.33,-1.84 L 0.27,-2.15 L 0.15,-2.28 L 0.15,-2.53 L 0.15,-2.78 L 0.33,-2.97 L 0.46,-3.22" class="sl f0 sLANDF" style="stroke-width: 0.64;"/>
  <circle class="f0 sLANDF" style="stroke-width: 0.32;" cx="-0.01" cy="-0.13" r="3.4"/>
  <path d=" M -1.61,2.31 L 1.34,2.31" class="sl f0 sLANDF" style="stroke-width: 0.32;"/>
  <circle class="pivotPoint layout" fill="none" cx="0" cy="0" r="1"/>
</svg>
