<?xml version="1.0" encoding="UTF-8"?>
<?xml-stylesheet href="daySvgStyle.css" type="text/css"?><svg xmlns="http://www.w3.org/2000/svg" version="1.2" baseProfile="tiny" xml:space="preserve" style="shape-rendering:geometricPrecision; fill-rule:evenodd;" width="7.52mm" height="3.36mm" viewBox="-3.83 -1.58 7.52 3.36">
  <title>ROLROL01</title>
  <desc>RoRo terminal</desc>
  <metadata>
    <iho:S100SVG xmlns:iho="http://www.iho.int/SVGMetadata/5.0">
      <iho:Description iho:publisher="IHB" iho:creationDate="2014-06-09" iho:source="S52Preslib4.0" iho:format="S100SVG" iho:version="0.1"/>
    </iho:S100SVG>
  </metadata>
  <rect class="symbolBox layout" fill="none" x="-3.67" y="-1.42" height="3.04" width="7.2"/>
  <rect class="svgBox layout" fill="none" x="-3.67" y="-1.42" height="3.04" width="7.2"/>
  <path d=" M -3.66,-1.4 L -3.66,1.61" class="sl f0 sCHBLK" style="stroke-width: 0.32;"/>
  <path d=" M 0.31,-1.38 L 0.31,1.62" class="sl f0 sCHBLK" style="stroke-width: 0.32;"/>
  <path d=" M -3.67,-1.41 L -2.67,-1.41" class="sl f0 sCHBLK" style="stroke-width: 0.32;"/>
  <path d=" M -3.66,0.11 L -2.67,0.11" class="sl f0 sCHBLK" style="stroke-width: 0.32;"/>
  <path d=" M 0.31,-1.38 L 1.3,-1.38" class="sl f0 sCHBLK" style="stroke-width: 0.32;"/>
  <path d=" M 0.31,0.13 L 1.3,0.13" class="sl f0 sCHBLK" style="stroke-width: 0.32;"/>
  <path d=" M -2.67,0.09 L -2.3,1.59" class="sl f0 sCHBLK" style="stroke-width: 0.32;"/>
  <path d=" M 1.3,0.11 L 1.66,1.62" class="sl f0 sCHBLK" style="stroke-width: 0.32;"/>
  <path d=" M 1.65,-0.16 L 1.65,-1.16" class="sl f0 sCHBLK" style="stroke-width: 0.32;"/>
  <path d=" M -2.32,-0.18 L -2.32,-1.18" class="sl f0 sCHBLK" style="stroke-width: 0.32;"/>
  <path d=" M -2.67,-1.42 L -2.33,-1.17" class="sl f0 sCHBLK" style="stroke-width: 0.32;"/>
  <path d=" M -2.67,0.09 L -2.33,-0.18" class="sl f0 sCHBLK" style="stroke-width: 0.32;"/>
  <path d=" M 1.3,0.11 L 1.65,-0.15" class="sl f0 sCHBLK" style="stroke-width: 0.32;"/>
  <path d=" M 1.29,-1.39 L 1.65,-1.14" class="sl f0 sCHBLK" style="stroke-width: 0.32;"/>
  <circle class="f0 sCHBLK" style="stroke-width: 0.32;" cx="-1.06" cy="0.83" r="0.74"/>
  <circle class="f0 sCHBLK" style="stroke-width: 0.32;" cx="2.8" cy="0.83" r="0.73"/>
  <circle class="pivotPoint layout" fill="none" cx="0" cy="0" r="1"/>
</svg>
