<?xml version="1.0" encoding="UTF-8"?>
<?xml-stylesheet href="daySvgStyle.css" type="text/css"?><svg xmlns="http://www.w3.org/2000/svg" version="1.2" baseProfile="tiny" xml:space="preserve" style="shape-rendering:geometricPrecision; fill-rule:evenodd;" width="2.96mm" height="3.46mm" viewBox="-2.48 -1.73 2.96 3.46">
  <title>SAFCON26</title>
  <desc>contour label</desc>
  <metadata>
    <iho:S100SVG xmlns:iho="http://www.iho.int/SVGMetadata/5.0">
      <iho:Description iho:publisher="IHB" iho:creationDate="2014-06-09" iho:source="S52Preslib4.0" iho:format="S100SVG" iho:version="0.1"/>
    </iho:S100SVG>
  </metadata>
  <rect class="symbolBox layout" fill="none" x="-2" y="-1.25" height="2.5" width="1.25"/>
  <rect class="svgBox layout" fill="none" x="-2" y="-1.25" height="2.5" width="2"/>
  <path d=" M -0.98,-1.28 L -1.73,-1.28 L -1.98,-1.03 L -1.98,0.97 L -1.73,1.22 L -0.98,1.22 L -0.73,0.97 L -0.73,0 L -0.98,-0.25 L -1.73,-0.25 L -1.98,0" class="sl f0 sDEPDW" style="stroke-width: 0.96;"/>
  <path d=" M -0.98,-1.28 L -0.86,-1.16" class="sl f0 sDEPDW" style="stroke-width: 0.96;"/>
  <path d=" M -0.98,-1.28 L -1.73,-1.28 L -1.98,-1.03 L -1.98,0.97 L -1.73,1.22 L -0.98,1.22 L -0.73,0.97 L -0.73,0 L -0.98,-0.25 L -1.73,-0.25 L -1.98,0" class="sl f0 sSNDG2" style="stroke-width: 0.32;"/>
  <path d=" M -0.98,-1.28 L -0.86,-1.16" class="sl f0 sSNDG2" style="stroke-width: 0.32;"/>
  <circle class="pivotPoint layout" fill="none" cx="0" cy="0" r="1"/>
</svg>
