<?xml version="1.0" encoding="utf-8" standalone="yes"?>
<?xml-stylesheet href="daySvgStyle.css" type="text/css"?>
<svg xmlns="http://www.w3.org/2000/svg" version="1.2" baseProfile="tiny" xml:space="preserve" style="shape-rendering:geometricPrecision; fill-rule:evenodd;" width="5.15mm" height="2.69mm" viewBox="-0.1 -0.1 5.15 2.69">
  <title>SAFCON58</title>
  <desc>pattern of symbol</desc>
  <metadata>
    <iho:S100SVG xmlns:iho="http://www.iho.int/SVGMetadata/5.0">
      <iho:Description iho:publisher="IHB" iho:creationDate="2019-01-30" iho:source="S52Preslib4.0" iho:format="S100SVG" iho:version="0.1" />
    </iho:S100SVG>
  </metadata>
  <rect class="symbolBox layout" fill="none" x="-0.1" y="2.59" height="2.69" width="5.15" />
  <rect class="svgBox layout" fill="none" x="-0.1" y="-0.1" height="2.69" width="5.15" />
  <path d=" M 4.71,0.03 L 3.96,0.03 L 3.72,0.27 L 3.72,1.02 L 3.96,1.26 L 4.71,1.26 L 4.95,1.02 L 4.95,0.27 L 4.71,0.03" class="sl f0 sDEPDW" style="stroke-width:0.96;" />
  <path d=" M 3.96,1.26 L 3.72,1.5 L 3.72,2.25 L 3.96,2.49 L 4.71,2.49 L 4.95,2.25 L 4.95,1.5 L 4.71,1.26" class="sl f0 sDEPDW" style="stroke-width:0.96;" />
  <path d=" M 4.71,0.03 L 3.96,0.03 L 3.72,0.27 L 3.72,1.02 L 3.96,1.26 L 4.71,1.26 L 4.95,1.02 L 4.95,0.27 L 4.71,0.03" class="sl f0 sSNDG2" style="stroke-width:0.32;" />
  <path d=" M 3.96,1.26 L 3.72,1.5 L 3.72,2.25 L 3.96,2.49 L 4.71,2.49 L 4.95,2.25 L 4.95,1.5 L 4.71,1.26" class="sl f0 sSNDG2" style="stroke-width:0.32;" />
</svg>