<?xml version="1.0" encoding="UTF-8"?>
<?xml-stylesheet href="daySvgStyle.css" type="text/css"?><svg xmlns="http://www.w3.org/2000/svg" version="1.2" baseProfile="tiny" xml:space="preserve" style="shape-rendering:geometricPrecision; fill-rule:evenodd;" width="2.96mm" height="3.46mm" viewBox="-2.48 -1.73 2.96 3.46">
  <title>SAFCON29</title>
  <desc>contour label</desc>
  <metadata>
    <iho:S100SVG xmlns:iho="http://www.iho.int/SVGMetadata/5.0">
      <iho:Description iho:publisher="IHB" iho:creationDate="2014-06-09" iho:source="S52Preslib4.0" iho:format="S100SVG" iho:version="0.1"/>
    </iho:S100SVG>
  </metadata>
  <rect class="symbolBox layout" fill="none" x="-2" y="-1.25" height="2.5" width="1.25"/>
  <rect class="svgBox layout" fill="none" x="-2" y="-1.25" height="2.5" width="2"/>
  <path d=" M -1.96,1.04 L -1.71,1.29 L -0.96,1.29 L -0.71,1.04 L -0.71,-0.96 L -0.96,-1.21 L -1.71,-1.21 L -1.96,-0.96 L -1.96,-0.12 L -1.71,0.13 L -0.96,0.13 L -0.71,-0.12" class="sl f0 sDEPDW" style="stroke-width: 0.96;"/>
  <path d=" M -1.96,1.04 L -1.71,1.29 L -0.96,1.29 L -0.71,1.04 L -0.71,-0.96 L -0.96,-1.21 L -1.71,-1.21 L -1.96,-0.96 L -1.96,-0.12 L -1.71,0.13 L -0.96,0.13 L -0.71,-0.12" class="sl f0 sSNDG2" style="stroke-width: 0.32;"/>
  <circle class="pivotPoint layout" fill="none" cx="0" cy="0" r="1"/>
</svg>
