<?xml version="1.0" encoding="UTF-8"?>
<?xml-stylesheet href="daySvgStyle.css" type="text/css"?><svg xmlns="http://www.w3.org/2000/svg" version="1.2" baseProfile="tiny" xml:space="preserve" style="shape-rendering:geometricPrecision; fill-rule:evenodd;" width="7.12mm" height="7.17mm" viewBox="-3.56 -3.61 7.12 7.17">
  <title>SMCFAC02</title>
  <desc>yacht harbour, marina</desc>
  <metadata>
    <iho:S100SVG xmlns:iho="http://www.iho.int/SVGMetadata/5.0">
      <iho:Description iho:publisher="IHB" iho:creationDate="2014-06-09" iho:source="S52Preslib4.0" iho:format="S100SVG" iho:version="0.1"/>
    </iho:S100SVG>
  </metadata>
  <rect class="symbolBox layout" fill="none" x="-3.4" y="-3.45" height="6.85" width="6.8"/>
  <rect class="svgBox layout" fill="none" x="-3.4" y="-3.45" height="6.85" width="6.8"/>
  <path d=" M 0.8,-3.3 L 0,-2.05 L 0,1.8 L 3,1.15 L 2.7,0.9 L 2.4,0.65 L 2.1,0.35 L 1.8,-0.05 L 1.55,-0.45 L 1.3,-0.85 L 1.1,-1.3 L 0.95,-1.8 L 0.85,-2.25 L 0.8,-2.7 L 0.8,-3 L 0.8,-3.25 L 0.8,-3.3" class="sl f0 sCHMGD" style="stroke-width: 0.32;"/>
  <path d=" M 0,-2.45 L -0.3,-2.35 L -0.6,-2.1 L -0.85,-1.95 L -1.1,-1.7 L -1.3,-1.45 L -1.5,-1.15 L -1.7,-0.9 L -1.85,-0.55 L -2,-0.2 L -2.1,0.1 L -2.15,0.5 L -2.2,0.9 L -2.2,1.45 L -2.15,1.75 L -2.15,2.15 L -2.05,2 L -1.8,1.75 L -1.6,1.55 L -1.3,1.4 L -0.95,1.3 L -0.75,1.25 L -0.45,1.25 L -0.6,1.05 L -0.75,0.75 L -0.9,0.3 L -0.95,0 L -0.95,-0.25 L -0.95,-0.5 L -0.95,-0.8 L -0.85,-1.15 L -0.75,-1.5 L -0.55,-1.8 L -0.4,-2.05 L -0.2,-2.3 L -0.05,-2.45 L 0,-2.45" class="sl f0 sCHMGD" style="stroke-width: 0.32;"/>
  <circle class="f0 sCHMGD" style="stroke-width: 0.32;" cx="0" cy="0" r="3.4"/>
  <path d=" M 0,-3.45 L 0,2.4" class="sl f0 sCHMGD" style="stroke-width: 0.32;"/>
  <path d=" M -2.42,2.39 L 2.39,2.39" class="sl f0 sCHMGD" style="stroke-width: 0.32;"/>
  <circle class="pivotPoint layout" fill="none" cx="0" cy="0" r="1"/>
</svg>
