<?xml version="1.0" encoding="UTF-8"?>
<?xml-stylesheet href="daySvgStyle.css" type="text/css"?><svg xmlns="http://www.w3.org/2000/svg" version="1.2" baseProfile="tiny" xml:space="preserve" style="shape-rendering:geometricPrecision; fill-rule:evenodd;" width="9.16mm" height="3.68mm" viewBox="-4.12 -1.85 9.16 3.68">
  <title>TIDEHT01</title>
  <desc>point for which tide height information is available</desc>
  <metadata>
    <iho:S100SVG xmlns:iho="http://www.iho.int/SVGMetadata/5.0">
      <iho:Description iho:publisher="IHB" iho:creationDate="2014-06-09" iho:source="S52Preslib4.0" iho:format="S100SVG" iho:version="0.1"/>
    </iho:S100SVG>
  </metadata>
  <rect class="symbolBox layout" fill="none" x="-3.96" y="-1.69" height="3.36" width="8.84"/>
  <rect class="svgBox layout" fill="none" x="-3.96" y="-1.69" height="3.36" width="8.84"/>
  <path d=" M -3.96,-0.01 L 4.88,-0.01" class="sl f0 sCHGRD" style="stroke-width: 0.32;"/>
  <path d=" M -3.24,-0.02 L -3.24,-0.26 L -3.17,-0.57 L -3.02,-0.9 L -2.8,-1.18 L -2.51,-1.4 L -2.17,-1.56 L -1.84,-1.67 L -1.53,-1.69 L -1.2,-1.62 L -0.9,-1.52 L -0.62,-1.35 L -0.39,-1.16 L -0.17,-0.84 L 0,-0.46 L 0,-0.17 L 0,-0.02 L 0,0.24 L 0.05,0.53 L 0.12,0.76 L 0.27,1.05 L 0.57,1.3 L 0.69,1.4 L 0.86,1.5 L 1.06,1.59 L 1.37,1.65 L 1.72,1.67 L 2.11,1.59 L 2.4,1.46 L 2.73,1.25 L 2.97,1.01 L 3.16,0.67 L 3.27,0.35 L 3.32,0.18 L 3.32,-0.02" class="sl f0 sCHGRD" style="stroke-width: 0.32;"/>
  <circle class="pivotPoint layout" fill="none" cx="0" cy="0" r="1"/>
</svg>
