<?xml version="1.0" encoding="UTF-8"?>
<?xml-stylesheet href="daySvgStyle.css" type="text/css"?><svg xmlns="http://www.w3.org/2000/svg" version="1.2" baseProfile="tiny" xml:space="preserve" style="shape-rendering:geometricPrecision; fill-rule:evenodd;" width="5.72mm" height="5.72mm" viewBox="-2.76 -5.56 5.72 5.72">
  <title>VOLCANO01</title>
  <desc>Symbol for marking an active submarine volcano</desc>
  <metadata>
    <iho:S100SVG xmlns:iho="http://www.iho.int/SVGMetadata/5.0">
      <iho:Description iho:publisher="IHB" iho:creationDate="2022-07-14" iho:source="SevenCs GmbH" iho:format="S100SVG" iho:version="0.2"/>
    </iho:S100SVG>
  </metadata>
  <rect class="symbolBox layout" fill="none"  x="-2.76" y="-5.56" height="5.72" width="5.72"/>
  <rect class="svgBox layout" fill="none" x="-2.76" y="-5.56" height="5.72" width="5.72"/>
  <path class="sl f0 sCHBLK" style="stroke-width: 0.32;" d="M -2.6,-5 L -2.45,-5.03 L -2.3,-5.1 L -2.15,-5.2 L -2,-5.3 L -1.85,-5.37 L -1.7,-5.4 L -1.55,-5.37 L -1.4,-5.3 L -1.25,-5.2 L -1.1,-5.1 L -0.95,-5.03 L -0.8,-5 L -0.65,-5.03 L -0.5,-5.1 L -0.35,-5.2 L -0.2,-5.3 L -0.05,-5.37 L 0.1,-5.4 L 0.25,-5.37 L 0.4,-5.3 L 0.55,-5.2 L 0.7,-5.1 L 0.85,-5.03 L 1,-5 L 1.15,-5.03 L 1.3,-5.1 L 1.45,-5.2 L 1.6,-5.3 L 1.75,-5.37 L 1.9,-5.4 L 2.05,-5.37 L 2.2,-5.3 L 2.35,-5.2 L 2.5,-5.1 L 2.65,-5.03 L 2.8,-5"/>  
  <path class="sl f0 sCHBLK" style="stroke-width: 0.32;" d="M -1.6,0 L -1.4,-0.5 L -1.25,-0.9 L -1.1,-1.3 L -1,-1.7 L -0.9,-2.1 L -0.4,-1.8 L 0,-1.75 L 0.4,-1.8 L 0.9,-2.1 L 1,-1.7 L 1.1,-1.3 L 1.25,-0.9 L 1.4,-0.5 L 1.6,0"/>
  <path class="sl f0 sCHBLK" style="stroke-width: 0.32;" d="M -0.5,-2.5 L -1.1,-4.2"/>
  <path class="sl f0 sCHBLK" style="stroke-width: 0.32;" d="M 0,-2.3 L 0.2,-4.4"/>
  <path class="sl f0 sCHBLK" style="stroke-width: 0.32;" d="M 0.4,-2.4 L 1.2,-4"/>
  <path class="sl f0 sCHBLK" style="stroke-width: 0.32;" d="M -2.6,0 L 2.8,0"/>
  <circle class="pivotPoint layout" fill="none" cx="0" cy="0" r="0.4"/>
  <path class="pivotPoint layout" d="M -1.6,0 L 1.6,0"/>
  <path class="pivotPoint layout" d="M 0,-1.5 L 0,0"/>
</svg>
