<?xml version="1.0" encoding="utf-8" standalone="yes"?>
<?xml-stylesheet href="SVGStyle.css" type="text/css"?>
<svg xmlns="http://www.w3.org/2000/svg" version="1.2" baseProfile="tiny" xml:space="preserve" style="shape-rendering:geometricPrecision; fill-rule:evenodd;" width="7.21mm" height="9.73mm" viewBox="-3.45 -8.73 7.21 9.73">
  <title>LocalPortServiceArea</title>
  <desc>pattern of symbol</desc>
  <metadata>
    <S100SVG xmlns:iho="http://www.iho.int/SVGMetadata">
      <Description publisher="IHB" creationDate="2019-08-14" source="S52Preslib4.0" format="S100SVG" version="0.1" />
    </S100SVG>
  </metadata>
  <rect class="symbolBox layout" fill="none" x="-3.45" y="1" height="9.73" width="7.21" />
  <rect class="svgBox layout" fill="none" x="-3.45" y="-8.73" height="9.73" width="7.21" />
  <path d=" M 0.38,-7.73 L 0.26,-7.7 L 0.1,-7.66 L -0.07,-7.62 L -0.25,-7.56 L -0.46,-7.47 L -0.65,-7.37 L -0.77,-7.29 L -0.96,-7.16 L -1.16,-7 L -1.39,-6.78 L -1.57,-6.56 L -1.73,-6.36 L -1.87,-6.12 L -2.06,-5.78 L -2.15,-5.56 L -2.24,-5.3 L -2.33,-5.02 L -2.38,-4.77 L -2.42,-4.52 L -2.45,-4.26 L -2.45,-3.9 L -2.44,-3.64 L -2.41,-3.36 L -2.36,-3.15 L -0.55,-3.13 L -0.59,-3.3 L -0.63,-3.47 L -0.67,-3.64 L -0.69,-3.84 L -0.71,-4.02 L -0.71,-4.2 L -0.71,-4.4 L -0.72,-4.62 L -0.74,-4.83 L -0.74,-5.01 L -0.76,-5.17 L -0.76,-5.43 L -0.73,-5.66 L -0.69,-5.87 L -0.66,-6.09 L -0.6,-6.32 L -0.49,-6.61 L -0.39,-6.82 L -0.3,-6.99 L -0.17,-7.17 L -0.05,-7.32 L 0.06,-7.42 L 0.21,-7.54 L 0.31,-7.63 L 0.38,-7.72 L 0.38,-7.73" class="fTESTB" style="stroke-width:0.64;" />
  <path d=" M -2.28,-2.62 L 2.38,-2.62 L 2.44,-2.62 L 2.39,-2.55 L 2.33,-2.48 L 2.25,-2.4 L 2.16,-2.32 L 2.02,-2.21 L 1.92,-2.13 L 1.82,-2.06 L 1.69,-1.99 L 1.54,-1.9 L 1.38,-1.82 L 1.21,-1.75 L 1,-1.68 L 0.78,-1.62 L 0.56,-1.57 L 0.31,-1.54 L 0.1,-1.54 L -0.16,-1.56 L -0.38,-1.58 L -0.64,-1.62 L -0.87,-1.68 L -1,-1.73 L -1.17,-1.79 L -1.34,-1.88 L -1.54,-1.98 L -1.74,-2.11 L -1.91,-2.26 L -2.1,-2.39 L -2.23,-2.53 L -2.29,-2.63 L -2.28,-2.62" class="fTESTB" style="stroke-width:0.64;" />
  <path d=" M 0.53,-7.13 L 0.53,-7.01 L 0.53,-6.84 L 0.54,-6.69 L 0.55,-6.57 L 0.57,-6.42 L 0.59,-6.2 L 0.61,-6.04 L 0.64,-5.84 L 0.71,-5.66 L 0.78,-5.41 L 0.85,-5.23 L 0.94,-5.02 L 1.06,-4.78 L 1.13,-4.66 L 1.25,-4.44 L 1.36,-4.29 L 1.51,-4.12 L 1.66,-3.96 L 1.81,-3.81 L 1.99,-3.66 L 2.18,-3.53 L 2.37,-3.41 L 2.54,-3.31 L 2.76,-3.21 L 0.54,-3.18 L 0.53,-7.13" class="fTESTB" style="stroke-width:0.64;" />
  <path d=" M -0.03,-7.57 L 0.18,-7.56 L 0.17,-2.18 L -0.03,-2.18 L -0.03,-7.57" class="fTESTB" style="stroke-width:0.64;" />
</svg>