<?xml version="1.0" encoding="utf-8" standalone="yes"?>
<?xml-stylesheet href="SVGStyle.css" type="text/css"?>
<svg xmlns="http://www.w3.org/2000/svg" version="1.2" baseProfile="tiny" xml:space="preserve" style="shape-rendering:geometricPrecision; fill-rule:evenodd;" width="22.12mm" height="7.13mm" viewBox="-14.46 -6.07 22.12 7.13">
  <title>MarineProtectedarea_MPA</title>
  <desc>pattern of symbol</desc>
  <metadata>
    <S100SVG xmlns:iho="http://www.iho.int/SVGMetadata">
      <Description publisher="IHB" creationDate="2019-08-16" source="S52Preslib4.0" format="S100SVG" version="0.1" />
    </S100SVG>
  </metadata>
  <rect class="symbolBox layout" fill="none" x="-14.46" y="1.06" height="7.13" width="22.12" />
  <rect class="svgBox layout" fill="none" x="-14.46" y="-6.07" height="7.13" width="22.12" />
  <path d=" M 0.52,-2.75 L 0.6,-2.72 L 0.67,-2.7 L 0.74,-2.68 L 0.8,-2.67 L 0.86,-2.67 L 0.93,-2.67 L 1.04,-2.68 L 1.14,-2.71 L 1.2,-2.73 L 1.27,-2.77 L 1.33,-2.81 L 1.4,-2.85 L 1.45,-2.9 L 1.5,-2.96 L 1.54,-3.02 L 1.58,-3.07 L 1.63,-3.16 L 1.66,-3.22 L 1.67,-3.3 L 1.69,-3.36 L 1.7,-3.42 L 1.7,-3.48 L 1.7,-3.53 L 1.69,-3.59 L 1.68,-3.68 L 1.66,-3.75 L 1.61,-3.85 L 1.57,-3.93 L 1.52,-3.99 L 1.47,-4.06 L 1.38,-4.14 L 1.32,-4.17 L 1.23,-4.23 L 1.16,-4.26 L 1.08,-4.28 L 1.01,-4.3 L 0.93,-4.31 L 0.84,-4.31 L 0.75,-4.3 L 0.61,-4.27 L 0.5,-4.25 L 0.52,-5.06 L 0.63,-5.06 L 0.72,-5.05 L 0.82,-5.05 L 0.91,-5.05 L 1.03,-5.04 L 1.15,-5.03 L 1.26,-5 L 1.35,-4.98 L 1.48,-4.92 L 1.57,-4.88 L 1.66,-4.84 L 1.74,-4.78 L 1.82,-4.73 L 1.89,-4.67 L 1.96,-4.62 L 2.01,-4.56 L 2.05,-4.5 L 2.08,-4.44 L 2.14,-4.4 L 2.18,-4.34 L 2.22,-4.28 L 2.26,-4.21 L 2.29,-4.13 L 2.33,-4.05 L 2.33,-3.98 L 2.35,-3.91 L 2.39,-3.83 L 2.41,-3.76 L 2.42,-3.68 L 2.43,-3.6 L 2.43,-3.52 L 2.43,-3.43 L 2.42,-3.3 L 2.41,-3.22 L 2.39,-3.13 L 2.34,-3.02 L 2.33,-2.94 L 2.29,-2.84 L 2.24,-2.74 L 2.19,-2.65 L 2.14,-2.57 L 2.08,-2.52 L 2.04,-2.45 L 1.97,-2.35 L 1.89,-2.29 L 1.8,-2.23 L 1.73,-2.18 L 1.62,-2.09 L 1.55,-2.07 L 1.46,-2.04 L 1.37,-2.01 L 1.24,-1.96 L 1.16,-1.94 L 1.08,-1.93 L 0.98,-1.92 L 0.86,-1.92 L 0.76,-1.92 L 0.63,-1.94 L 0.52,-1.97 L 0.52,-2.74 L 0.56,-2.74" class="fTESTA" style="stroke-width:0.64;" />
  <path d=" M 0.52,-5.07 L -0.47,-5.07 L -0.47,-0.01 L 0.54,0 L 0.52,-5.07 L 0.52,-5.07" class="fTESTA" style="stroke-width:0.64;" />
  <path d=" M -6.36,0.05 L -5.44,0.06 L -5.44,-3.59 L -4.6,0.06 L -3.64,0.06 L -2.71,-3.59 L -2.71,0.05 L -1.78,0.05 L -1.78,-5.07 L -3.28,-5.06 L -4.06,-1.42 L -5.19,-5.06 L -6.37,-5.06 L -6.36,0.04 L -6.36,0.05" class="fTESTA" style="stroke-width:0.64;" />
  <path d=" M 3.48,-0.06 L 2.62,-0.05 L 3.23,-2.14 L 6.02,-2.14 L 6.66,-0.05 L 5.78,-0.06 L 5.37,-1.54 L 3.84,-1.53 L 3.51,-0.23 L 3.48,-0.09" class="fTESTA" style="stroke-width:0.64;" />
  <path d=" M 5.25,-2.13 L 4.89,-4.04 L 4.41,-4.05 L 3.95,-2.08 L 3.21,-2.07 L 4.1,-5.01 L 5.33,-5 L 6.02,-2.09 L 5.21,-2.09" class="fTESTA" style="stroke-width:0.64;" />
  <path d=" M -8.27,-0.03 L -10.29,-0.01 L -10.27,-0.76 L -8.27,-0.76 L -8.27,-0.03" class="fTESTA" style="stroke-width:0.64;" />
  <path d=" M -8.98,-0.04 L -8.97,-2.06 L -8.25,-2.04 L -8.25,-0.04 L -8.98,-0.04" class="fTESTA" style="stroke-width:0.64;" />
  <path d=" M -11.44,-0.03 L -13.46,-0.04 L -13.44,-0.76 L -11.42,-0.75 L -11.44,-0.03" class="fTESTA" style="stroke-width:0.64;" />
  <path d=" M -13.44,-0.05 L -13.43,-2.07 L -12.71,-2.05 L -12.71,-0.05 L -13.44,-0.05" class="fTESTA" style="stroke-width:0.64;" />
  <path d=" M -8.17,-4.31 L -10.19,-4.32 L -10.17,-5.04 L -8.17,-5.04 L -8.17,-4.31" class="fTESTA" style="stroke-width:0.64;" />
  <path d=" M -8.9,-3.03 L -8.89,-5.05 L -8.17,-5.03 L -8.17,-3.03 L -8.9,-3.03" class="fTESTA" style="stroke-width:0.64;" />
  <path d=" M -11.46,-4.32 L -13.44,-4.32 L -13.46,-5.05 L -11.46,-5.05 L -11.46,-4.32" class="fTESTA" style="stroke-width:0.64;" />
  <path d=" M -13.46,-3.04 L -13.45,-5.06 L -12.73,-5.04 L -12.73,-3.04 L -13.46,-3.04" class="fTESTA" style="stroke-width:0.64;" />
  <path d=" M -11.77,-3.47 L -9.8,-3.47 L -9.79,-1.57 L -11.78,-1.57 L -11.77,-3.47" class="fTESTA" style="stroke-width:0.64;" />
</svg>