<?xml version="1.0" encoding="utf-8" standalone="yes"?>
<?xml-stylesheet href="SVGStyle.css" type="text/css"?>
<svg xmlns="http://www.w3.org/2000/svg" version="1.2" baseProfile="tiny" xml:space="preserve" style="shape-rendering:geometricPrecision; fill-rule:evenodd;" width="17.18mm" height="6.65mm" viewBox="-9.6 -2.38 17.18 6.65">
  <title>2021_WaveFarm</title>
  <desc>pattern of symbol</desc>
  <metadata>
    <S100SVG xmlns:iho="http://www.iho.int/SVGMetadata">
      <Description publisher="IHB" creationDate="2021-09-01" source="S52Preslib4.0" format="S100SVG" version="0.1" />
    </S100SVG>
  </metadata>
  <rect class="symbolBox layout" fill="none" x="-9.6" y="4.27" height="6.65" width="17.18" />
  <rect class="svgBox layout" fill="none" x="-9.6" y="-2.38" height="6.65" width="17.18" />
  <path d=" M 6.52,3.27 L -8.58,3.27 L -8.58,1.62 L 6.52,1.63 L 6.52,3.27" class="sl f0 sCHGRD" style="stroke-width:0.32;" />
  <path d=" M -8.6,1.62 L -7.67,1.36 L -6.6,0.58 L -5.57,-0.87 L -4.56,-1.38 L -3.44,-1.28 L -4.56,-0.28 L -4.56,0.69 L -3.41,1.61 L -2.43,1.34 L -1.53,0.75 L -0.47,-0.87 L 0.65,-1.36 L 1.56,-1.31 L 0.51,-0.28 L 0.46,0.8 L 1.7,1.61 L 2.66,1.27 L 3.52,0.75 L 4.57,-0.8 L 5.72,-1.33 L 6.58,-1.26 L 5.55,0.04 L 5.6,0.8 L 6.49,1.62" class="sl f0 sCHGRD" style="stroke-width:0.32;" />
  <path d=" M -6.18,2.86 L -5.08,2.86 L -5.08,2.06 L -6.18,2.06 L -6.18,2.56 L -5.28,2.56" class="sl f0 sCHBLK" style="stroke-width:0.64;" />
  <path d=" M -1.2,2.86 L -0.1,2.86 L -0.1,2.06 L -1.2,2.06 L -1.2,2.56 L -0.3,2.56" class="sl f0 sCHBLK" style="stroke-width:0.64;" />
  <path d=" M 3.95,2.86 L 5.05,2.86 L 5.05,2.06 L 3.95,2.06 L 3.95,2.56 L 4.85,2.56" class="sl f0 sCHBLK" style="stroke-width:0.64;" />
</svg>