<?xml version="1.0" encoding="utf-8" standalone="yes"?>
<?xml-stylesheet href="SVGStyle.css" type="text/css"?>
<svg xmlns="http://www.w3.org/2000/svg" version="1.2" baseProfile="tiny" xml:space="preserve" style="shape-rendering:geometricPrecision; fill-rule:evenodd;" width="5.03mm" height="3.43mm" viewBox="-2.04 -2.92 5.03 3.43">
  <title>SEAGRASS</title>
  <desc>pattern of symbol</desc>
  <metadata>
    <S100SVG xmlns:iho="http://www.iho.int/SVGMetadata">
      <Description publisher="IHB" creationDate="2021-09-01" source="S52Preslib4.0" format="S100SVG" version="0.1" />
    </S100SVG>
  </metadata>
  <rect class="symbolBox layout" fill="none" x="-2.04" y="0.51" height="3.43" width="5.03" />
  <rect class="svgBox layout" fill="none" x="-2.04" y="-2.92" height="3.43" width="5.03" />
  <path d=" M -1.54,-2.42 L -1.54,-2.42 L -1.54,-2.42 L -1.54,-2.42 L -1.54,-2.42" class="sl f0 sCHBLK" style="stroke-width:0.32;" />
  <path d=" M -0.51,0 L -0.81,-0.4 L -1.41,-0.8 L -1.41,-1 L -0.81,-0.7 L -0.61,-0.8 L -0.71,-1.2 L -0.51,-1.1 L -0.41,-0.8 L -0.41,-0.6 L -0.31,-0.8 L -0.21,-1.3 L -0.11,-1.5 L -0.11,-2.3 L 0.29,-1.6 L 0.19,-1.4 L 0.29,-0.6 L 0.29,-1.2 L 0.79,-2.1 L 0.79,-1.6 L 0.59,-0.9 L 0.89,-0.8 L 1.19,-1.9 L 1.69,-2.3 L 1.49,-1.7 L 1.39,-1.2 L 1.29,-0.9 L 1.99,-1.2 L 2.49,-1.6 L 2.49,-1.2 L 1.99,-0.9 L 1.39,-0.5 L 1.08,-0.13 L 0.62,0.01 L -0.53,0" class="sl f0 sMARCY" style="stroke-width:0.32;" />
</svg>