<?xml version="1.0" encoding="utf-8" standalone="yes"?>
<?xml-stylesheet href="SVGStyle.css" type="text/css"?>
<svg xmlns="http://www.w3.org/2000/svg" version="1.2" baseProfile="tiny" xml:space="preserve" style="shape-rendering:geometricPrecision; fill-rule:evenodd;" width="24.6mm" height="27.61mm" viewBox="-12.3 -15.42 24.6 27.61">
  <title>STANSV03</title>
  <desc>pattern of symbol</desc>
  <metadata>
    <S100SVG xmlns:iho="http://www.iho.int/SVGMetadata">
      <Description publisher="IHB" creationDate="2019-06-13" source="S52Preslib4.0" format="S100SVG" version="0.1" />
    </S100SVG>
  </metadata>
  <rect class="symbolBox layout" fill="none" x="-12.3" y="12.19" height="27.61" width="24.6" />
  <rect class="svgBox layout" fill="none" x="-12.3" y="-15.42" height="27.61" width="24.6" />
  <path d=" M -4.4,5 L -1.9,0.9 L -0.6,-3.1 L 1.9,-3.1 L 2,1.9 L 4.6,5 L 0.6,5 L -1.9,5 L -4.4,5" class="fUINFF" style="stroke-width:0.32;" />
  <path d=" M 2.46,2.25 L 2.26,-0.27 L -1.67,-0.62 L -2.55,1.75 L 2.46,2.25 L 2.46,2.25" class="fLITRD" style="stroke-width:0.32;" />
  <path d=" M -4.5,4.89 L -2.4,1.76 L -0.7,-3.21 L 1.8,-3.21 L 2.48,2.14 L 4.5,4.89 L 0.5,4.89 L -2,4.89 L -4.5,4.89" class="sl f0 sUINFF" style="stroke-width:0.96;" />
  <path d=" M -6.3,5 L 0.9,5 L 6.3,5" class="sl f0 sUINFF" style="stroke-width:0.96;" />
  <path d=" M -2.18,-3.14 L -2.24,-2.43 L 3.07,-1.82 L 3.15,-2.33 L 3.27,-3.13 L -2.1,-3.74" class="fDEPSC" style="stroke-width:0.32;" />
  <circle cx="0.62" cy="-3.08" r="1.51" class="fUINFF" style="stroke-width:0.32" />
  <circle cx="0.68" cy="-3.41" r="0.47" class="fDEPDW" style="stroke-width:0.32" />
  <circle cx="1.26" cy="-6.16" r="0.8" class="fDEPSC" style="stroke-width:0.32" />
  <circle cx="1.9" cy="-8.62" r="0.8" class="fDEPSC" style="stroke-width:0.32" />
  <circle cx="-0.05" cy="4.97" r="1.21" class="fDEPDW" style="stroke-width:0.64" />
  <circle cx="-0.05" cy="4.97" r="1.21" class="sl f0 sUINFF" style="stroke-width:0.96" />
</svg>