<?xml version="1.0" encoding="utf-8" standalone="yes"?>
<?xml-stylesheet href="SVGStyle.css" type="text/css"?>
<svg xmlns="http://www.w3.org/2000/svg" version="1.2" baseProfile="tiny" xml:space="preserve" style="shape-rendering:geometricPrecision; fill-rule:evenodd;" width="19.89mm" height="22.75mm" viewBox="-9.94 -12.06 19.89 22.75">
  <title>STANSV12</title>
  <desc>pattern of symbol</desc>
  <metadata>
    <S100SVG xmlns:iho="http://www.iho.int/SVGMetadata">
      <Description publisher="IHB" creationDate="2019-06-13" source="S52Preslib4.0" format="S100SVG" version="0.1" />
    </S100SVG>
  </metadata>
  <rect class="symbolBox layout" fill="none" x="-9.94" y="10.69" height="22.75" width="19.89" />
  <rect class="svgBox layout" fill="none" x="-9.94" y="-12.06" height="22.75" width="19.89" />
  <path d=" M -4.47,5 L -1.97,0.9 L -0.67,-3.1 L 1.83,-3.1 L 2.01,1.95 L 4.53,5 L 0.53,5 L -1.97,5 L -4.47,5" class="fUINFF" style="stroke-width:0.32;" />
  <path d=" M 2.17,1.86 L 2.02,-0.41 L -1.47,-0.95 L -2.24,1.38 L 2.15,2.06 L 2.25,2.1" class="fLITRD" style="stroke-width:0.32;" />
  <path d=" M -4.49,4.97 L -2.25,1.36 L -0.69,-3.13 L 1.81,-3.13 L 2.14,2.02 L 4.51,4.97 L 0.51,4.97 L -1.99,4.97 L -4.49,4.97" class="sl f0 sUINFF" style="stroke-width:0.64;" />
  <path d=" M -5.44,5 L 0,5.01 L 5.45,5.01" class="sl f0 sUINFF" style="stroke-width:0.64;" />
  <path d=" M -2.06,-3.31 L -2.19,-2.55 L 3.12,-1.76 L 3.23,-2.33 L 3.35,-2.92 L -1.99,-3.73" class="fDEPSC" style="stroke-width:0.32;" />
  <circle cx="0.57" cy="-2.78" r="1.51" class="fUINFF" style="stroke-width:0.32" />
  <circle cx="0.68" cy="-3.41" r="0.47" class="fDEPDW" style="stroke-width:0.32" />
  <circle cx="1.31" cy="-6.54" r="1.02" class="sl f0 sUINFR" style="stroke-width:0.32" />
  <circle cx="-0.05" cy="4.97" r="1.21" class="fDEPDW" style="stroke-width:0.64" />
  <circle cx="-0.05" cy="4.97" r="1.21" class="sl f0 sUINFF" style="stroke-width:0.64" />
  <path d=" M 0.77,-5.74 L 1.92,-7.32" class="sl f0 sUINFR" style="stroke-width:0.32;" />
</svg>