<?xml version="1.0" encoding="utf-8" standalone="yes"?>
<?xml-stylesheet href="SVGStyle.css" type="text/css"?>
<svg xmlns="http://www.w3.org/2000/svg" version="1.2" baseProfile="tiny" xml:space="preserve" style="shape-rendering:geometricPrecision; fill-rule:evenodd;" width="8.25mm" height="4.64mm" viewBox="-4.13 -0.5 8.25 4.64">
  <title>FRONTS15</title>
  <desc>pattern of symbol</desc>
  <metadata>
    <S100SVG xmlns:iho="http://www.iho.int/SVGMetadata">
      <Description publisher="IHB" creationDate="2019-08-09" source="S52Preslib4.0" format="S100SVG" version="0.1" />
    </S100SVG>
  </metadata>
  <rect class="symbolBox layout" fill="none" x="-4.13" y="4.14" height="4.64" width="8.25" />
  <rect class="svgBox layout" fill="none" x="-4.13" y="-0.5" height="4.64" width="8.25" />
  <path d=" M -3.63,0 L 3.62,0 L 3.61,0.22 L 3.6,0.46 L 3.56,0.8 L 3.49,1.07 L 3.4,1.32 L 3.25,1.65 L 3.13,1.89 L 2.95,2.15 L 2.77,2.38 L 2.51,2.64 L 2.27,2.86 L 2,3.05 L 1.68,3.26 L 1.35,3.4 L 1.05,3.51 L 0.75,3.56 L 0.39,3.62 L 0.08,3.64 L -0.23,3.63 L -0.62,3.56 L -0.98,3.49 L -1.33,3.38 L -1.68,3.22 L -1.9,3.08 L -2.19,2.88 L -2.49,2.64 L -2.69,2.4 L -2.99,2.05 L -3.11,1.84 L -3.26,1.58 L -3.38,1.28 L -3.48,0.96 L -3.55,0.67 L -3.6,0.4 L -3.62,0.2 L -3.63,0 L -3.59,0" class="sl f0 sCHBRN" style="stroke-width:0.32;" />
</svg>