<?xml version="1.0" encoding="utf-8" standalone="yes"?>
<?xml-stylesheet href="SVGStyle.css" type="text/css"?>
<svg xmlns="http://www.w3.org/2000/svg" version="1.2" baseProfile="tiny" xml:space="preserve" style="shape-rendering:geometricPrecision; fill-rule:evenodd;" width="11.1mm" height="1.7mm" viewBox="-5.2 -1.6 11.1 1.7">
  <title>FRONTS05</title>
  <desc>pattern of symbol</desc>
  <metadata>
    <S100SVG xmlns:iho="http://www.iho.int/SVGMetadata">
      <Description publisher="IHB" creationDate="2015-11-01" source="S52Preslib4.0" format="S100SVG" version="0.1" />
    </S100SVG>
  </metadata>
  <rect class="symbolBox layout" fill="none" x="-5.2" y="-1.6" height="1.7" width="11.1" />
  <rect class="svgBox layout" fill="none" x="-5.2" y="-1.6" height="1.7" width="11.1" />
  <path d=" M -5.1,0 L -0.3,0" class="sl f0 sCHRED" style="stroke-width:0.32" />
  <path d=" M -5.1,0 L -0.3,0 M 0.3,0 L 5,0" class="sl f0 sCHRED" style="stroke-width:0.32" />
  <path d=" M -5.1,0 L -0.3,0 M 0.3,0 L 5,0 M -4.4,-0.2 L -4.3,-0.6 L -4.1,-0.9 L -3.8,-1.2 L -3.4,-1.4 L -3,-1.5 L -2.4,-1.5 L -1.9,-1.4 L -1.5,-1.2 L -1.3,-1 L -1.1,-0.8 L -1,-0.6 L -0.9,-0.2 L -0.9,0 L -4.4,0" class="sl f0 fCHRED" style="stroke-width:0.32" />
</svg>