<?xml version="1.0" encoding="utf-8" standalone="yes"?>
<?xml-stylesheet href="SVGStyle.css" type="text/css"?>
<svg xmlns="http://www.w3.org/2000/svg" version="1.2" baseProfile="tiny" xml:space="preserve" style="shape-rendering:geometricPrecision; fill-rule:evenodd;" width="9.8mm" height="3.1mm" viewBox="-4.9 -1.6 9.8 3.1">
  <title>FRONTS10</title>
  <desc>pattern of symbol</desc>
  <metadata>
    <S100SVG xmlns:iho="http://www.iho.int/SVGMetadata">
      <Description publisher="IHB" creationDate="2015-11-01" source="S52Preslib4.0" format="S100SVG" version="0.1" />
    </S100SVG>
  </metadata>
  <rect class="symbolBox layout" fill="none" x="-4.9" y="-1.6" height="3.1" width="9.8" />
  <rect class="svgBox layout" fill="none" x="-4.9" y="-1.6" height="3.1" width="9.8" />
  <path d=" M 0,0 L 4.8,0" class="sl f0 sCHRED" style="stroke-width:0.32" />
  <path d=" M 0,0 L 4.8,0 M 0.6,-0.2 L 0.7,-0.6 L 0.9,-0.9 L 1.2,-1.2 L 1.6,-1.4 L 2.1,-1.5 L 2.7,-1.5 L 3.2,-1.4 L 3.6,-1.2 L 3.8,-1 L 4,-0.8 L 4.1,-0.6 L 4.2,-0.2 L 4.2,0 L 0.6,0" class="sl f0 fCHRED" style="stroke-width:0.32" />
  <path d=" M -4.8,0 L 0,0" class="sl f0 sDEPVS" style="stroke-width:0.32" />
  <path d=" M -4.3,0 L -2.4,1.4 L -0.5,0 L -4.3,0" class="sl f0 fDEPVS" style="stroke-width:0.32" />
</svg>