<?xml version="1.0" encoding="utf-8" standalone="yes"?>
<?xml-stylesheet href="SVGStyle.css" type="text/css"?>
<svg xmlns="http://www.w3.org/2000/svg" version="1.2" baseProfile="tiny" xml:space="preserve" style="shape-rendering:geometricPrecision; fill-rule:evenodd;" width="12.5mm" height="5.8mm" viewBox="-5.6 -2.9 12.5 5.8">
  <title>FZSPRY05</title>
  <desc>pattern of symbol</desc>
  <metadata>
    <S100SVG xmlns:iho="http://www.iho.int/SVGMetadata">
      <Description publisher="IHB" creationDate="2015-11-01" source="S52Preslib4.0" format="S100SVG" version="0.1" />
    </S100SVG>
  </metadata>
  <rect class="symbolBox layout" fill="none" x="-5.6" y="-2.9" height="5.8" width="12.5" />
  <rect class="svgBox layout" fill="none" x="-5.6" y="-2.9" height="5.8" width="12.5" />
  <path d=" M -5.5,-2.1 L -5.5,2.1 L -3,2.1 L -3,-2.1 L -5.5,-2.1 M -2.5,-2.1 L -2.5,2.1 L -0.6,2.1 L -0.6,-2.1 L -2.5,-2.1 M 6.8,-2.1 L 0,-2.1 L 0.3,-0.7 L 0.5,0.1 L 0.9,0.8 L 1.8,1.6 L 2.6,2 L 3.4,2.1 L 4.3,2 L 5.2,1.6 L 5.9,0.8 L 6.3,0.1 L 6.5,-0.7 L 6.8,-2.1 M 2.8,-2.8 L 2.8,2.8 M 4,-2.8 L 4,2.8" class="sl f0 sLANDF" style="stroke-width:0.32" />
</svg>