<?xml version="1.0" encoding="utf-8" standalone="yes"?>
<?xml-stylesheet href="SVGStyle.css" type="text/css"?>
<svg xmlns="http://www.w3.org/2000/svg" version="1.2" baseProfile="tiny" xml:space="preserve" style="shape-rendering:geometricPrecision; fill-rule:evenodd;" width="2.45mm" height="5.48mm" viewBox="-1.24 -2.68 2.45 5.48">
  <title>TROCYC05</title>
  <desc>pattern of symbol</desc>
  <metadata>
    <S100SVG xmlns:iho="http://www.iho.int/SVGMetadata">
      <Description publisher="IHB" creationDate="2015-11-01" source="S52Preslib4.0" format="S100SVG" version="0.1" />
    </S100SVG>
  </metadata>
  <rect class="symbolBox layout" fill="none" x="-1.24" y="-2.68" height="5.48" width="2.45" />
  <rect class="svgBox layout" fill="none" x="-1.24" y="-2.68" height="5.48" width="2.45" />
  <path d=" M -0.12,-2.58 L -0.36,-2.13 L -0.66,-1.59 L -0.9,-1.02 L -1.14,-0.21 L -1.14,0.06 L -1.08,0.45 L -0.84,0.87 L -0.42,1.08 L 0.12,1.2 L 0.54,1.02 L 0.3,1.74 L 0,2.7 L 0.39,2.16 L 0.78,1.35 L 1.11,0.3 L 1.11,-0.06 L 1.05,-0.33 L 0.9,-0.57 L 0.72,-0.81 L 0.24,-1.05 L -0.18,-1.05 L -0.57,-0.9 L -0.33,-1.74 L -0.09,-2.52 L -0.12,-2.58" class="sl f0 fBKAJ1" style="stroke-width:0.32" />
</svg>