<?xml version="1.0" encoding="utf-8" standalone="yes"?>
<?xml-stylesheet href="SVGStyle.css" type="text/css"?>
<svg xmlns="http://www.w3.org/2000/svg" version="1.2" baseProfile="tiny" xml:space="preserve" style="shape-rendering:geometricPrecision; fill-rule:evenodd;" width="2.09mm" height="2mm" viewBox="-1.03 -1 2.09 2">
  <title>TROCYC09</title>
  <desc>pattern of symbol</desc>
  <metadata>
    <S100SVG xmlns:iho="http://www.iho.int/SVGMetadata">
      <Description publisher="IHB" creationDate="2015-11-01" source="S52Preslib4.0" format="S100SVG" version="0.1" />
    </S100SVG>
  </metadata>
  <rect class="symbolBox layout" fill="none" x="-1.03" y="-1" height="2" width="2.09" />
  <rect class="svgBox layout" fill="none" x="-1.03" y="-1" height="2" width="2.09" />
  <path d=" M 0,-0.9 L -0.27,-0.87 L -0.45,-0.78 L -0.66,-0.66 L -0.81,-0.48 L -0.9,-0.27 L -0.93,0 L -0.87,0.3 L -0.75,0.57 L -0.54,0.75 L -0.3,0.84 L 0,0.9 L 0.33,0.84 L 0.6,0.72 L 0.78,0.54 L 0.93,0.27 L 0.96,0.03 L 0.93,-0.27 L 0.81,-0.51 L 0.63,-0.72 L 0.39,-0.87 L 0,-0.9" class="sl f0 sLITRD" style="stroke-width:0.32" />
  <path d=" M -0.66,-0.63 L 0.66,0.63" class="sl f0 sCHRED" style="stroke-width:0.32" />
  <path d=" M -0.63,0.66 L 0.66,-0.66" class="sl f0 sCHRED" style="stroke-width:0.32" />
</svg>