<?xml version="1.0" encoding="utf-8" standalone="yes"?>
<?xml-stylesheet href="SVGStyle.css" type="text/css"?>
<svg xmlns="http://www.w3.org/2000/svg" version="1.2" baseProfile="tiny" xml:space="preserve" style="shape-rendering:geometricPrecision; fill-rule:evenodd;" width="7.81mm" height="7.79mm" viewBox="-3.79 -3.98 7.81 7.79">
   <title>CATREA04</title>
  <desc>symbol for nature reserve as a point</desc>
  <metadata>
    <S100SVG xmlns:iho="http://www.iho.int/SVGMetadata">
      <Description publisher="IHB" creationDate="2017-08-16" source="S52Preslib4.0" format="S100SVG" version="0.1" />
    </S100SVG>
  </metadata>
  <rect class="symbolBox layout" fill="none" x="-3.79" y="3.81" height="7.79" width="7.81" />
  <rect class="svgBox layout" fill="none" x="-3.79" y="-3.98" height="7.79" width="7.81" />
  <path d=" M 0.01,-3.48 L -0.59,-2.58 L -0.49,-1.68 L -1.21,-2.26 L -2.19,-2.48 L -1.99,-1.38 L -1.43,-0.73 L -2.39,-0.68 L -3.29,-0.08 L -2.39,0.52 L -1.49,0.52 L -2.19,1.12 L -2.43,2.09 L -1.27,2.05 L -0.55,1.45 L -0.49,2.42 L 0.09,3.31 L 0.71,2.42 L 0.71,1.52 L 1.41,2.12 L 1.86,2.26 L 2.34,2.38 L 2.31,1.32 L 1.71,0.62 L 2.69,0.55 L 3.04,0.36 L 3.28,0.17 L 3.52,-0.01 L 3.04,-0.4 L 2.69,-0.68 L 2.11,-0.68 L 1.71,-0.68 L 2.35,-1.48 L 2.46,-2.55 L 1.51,-2.38 L 0.79,-1.71 L 0.78,-2.58 L 0.01,-3.48 L 0.01,-3.48" transform="rotate(0)" class="sl f0 fMARMG" style="stroke-width:0.32;stroke-dasharray:0,0;" />
 
  <path d=" M -0.33,-1.6 L -0.32,-1.32 L -0.23,-1.08 L -0.15,-0.92 L 0.07,-0.69 L 0.26,-0.56 L 0.26,-0.49 L 0.31,-0.47 L 0.35,-0.47 L 0.39,-0.52 L 0.43,-0.52 L 0.42,-0.42 L 0.43,-0.34 L 0.47,-0.25 L 0.56,-0.09 L 0.56,0.02 L 0.34,0.01 L 0.08,-0.09 L -0.05,-0.14 L -0.27,-0.15 L -0.29,-0.17 L -0.32,-0.18 L -0.36,-0.18 L -0.38,-0.18 L -0.39,-0.15 L -0.38,-0.11 L -0.36,-0.09 L -0.41,-0.04 L -0.44,0.01 L -0.64,-0.16 L -0.69,-0.17 L -0.71,-0.18 L -0.76,-0.18 L -0.8,-0.16 L -0.83,-0.15 L -0.87,-0.13 L -0.9,-0.13 L -0.94,-0.12 L -0.97,-0.11 L -1.03,-0.08 L -1.1,-0.09 L -1.11,-0.09 L -1.16,-0.08 L -1.21,-0.05 L -1.26,-0.07 L -1.28,-0.07 L -1.34,-0.06 L -1.32,-0.02 L -1.22,0 L -1.18,0 L -1.1,-0.02 L -1.03,-0.03 L -0.99,-0.04 L -0.87,-0.04 L -0.85,-0.08 L -0.76,-0.09 L -0.72,-0.06 L -0.69,-0.02 L -0.67,0.01 L -0.65,0.06 L -0.67,0.06 L -0.69,0.01 L -0.74,0 L -0.78,0 L -0.8,-0.03 L -0.84,-0.03 L -0.9,-0.05 L -0.95,-0.04 L -1,-0.01 L -1.07,0.01 L -1.13,0.04 L -1.21,0.05 L -1.25,0.08 L -1.32,0.12 L -1.4,0.15 L -1.52,0.13 L -1.58,0.16 L -1.72,0.19 L -1.75,0.19 L -1.73,0.24 L -1.57,0.23 L -1.29,0.21 L -1.03,0.12 L -0.97,0.1 L -0.87,0.07 L -0.84,0.07 L -0.78,0.13 L -0.63,0.32 L -0.36,0.29 L -0.24,0.28 L -0.13,0.19 L -0.09,0.17 L -0.04,0.17 L 0.01,0.17 L 0.1,0.21 L 0.31,0.29 L 0.42,0.33 L 0.51,0.37 L 0.62,0.38 L 0.69,0.4 L 0.76,0.41 L 0.85,0.5 L 1.06,0.74 L 1.41,1.02 L 1.81,1.22 L 1.93,1.26 L 1.95,1.23 L 1.96,1.21 L 1.81,1.13 L 1.56,0.98 L 1,0.4 L 1.1,0.36 L 1.24,0.34 L 1.31,0.34 L 1.39,0.38 L 1.43,0.44 L 1.61,0.84 L 1.64,0.85 L 1.65,0.85 L 1.65,0.78 L 1.5,0.33 L 1.47,0.27 L 1.37,0.23 L 1.29,0.22 L 1.21,0.21 L 1.1,0.23 L 0.98,0.23 L 1.02,0.19 L 1.02,-0.01 L 0.99,-0.05 L 0.97,-0.09 L 0.91,-0.12 L 0.85,-0.16 L 0.79,-0.17 L 0.77,-0.19 L 0.71,-0.22 L 0.66,-0.29 L 0.52,-0.54 L 0.63,-0.64 L 0.63,-0.69 L 0.63,-0.73 L 0.43,-0.68 L 0.37,-0.71 L 0.24,-0.81 L 0.15,-0.95 L -0.03,-1.3 L -0.06,-1.43 L -0.1,-1.61 L -0.13,-1.64 L -0.12,-1.32 L -0.01,-1.07 L 0.22,-0.69 L -0.04,-0.93 L -0.15,-1.12 L -0.23,-1.26 L -0.27,-1.38 L -0.29,-1.6 L -0.31,-1.6 L -0.33,-1.6" transform="rotate(0)" class="sl f0 fDEPDW" style="stroke-width:0.32;stroke-dasharray:0,0;" />
</svg>