<?xml version="1.0" encoding="utf-8" standalone="yes"?>
<?xml-stylesheet href="SVGStyle.css" type="text/css"?>
<svg xmlns="http://www.w3.org/2000/svg" version="1.2" baseProfile="tiny" xml:space="preserve" style="shape-rendering:geometricPrecision; fill-rule:evenodd;" width="10.84mm" height="3.28mm" viewBox="-5.48 -1.64 10.84 3.28">
  <title>CATREA20</title>
  <desc>symbol for recsearch area as a point</desc>
  <metadata>
    <S100SVG xmlns:iho="http://www.iho.int/SVGMetadata">
      <Description publisher="IHB" creationDate="2017-08-16" source="S52Preslib4.0" format="S100SVG" version="0.1" />
    </S100SVG>
  </metadata>
  <rect class="symbolBox layout" fill="none" x="-5.48" y="1.64" height="3.28" width="10.84" />
  <rect class="svgBox layout" fill="none" x="-5.48" y="-1.64" height="3.28" width="10.84" />
  <path d=" M -1.44,0.81 L -1.38,0.93 L -1.35,0.99 L -0.45,0.45 L -0.39,0.42 L -0.18,0.66 L 0.12,0.84 L 0.48,0.84 L 0.78,0.66 L 0.9,0.27 L 0.78,-0.09 L 0.48,-0.42 L 0.12,-0.57 L -0.24,-0.48 L -0.48,-0.21 L -0.48,0.12 L -0.42,0.33 L -0.45,0.36 L -1.44,0.81 L -1.26,0.03 L -2.07,0.03 L -2.07,-0.51 L -1.98,-0.51 L -1.98,-0.69 L -3.33,-0.69 L -3.3,-0.48 L -2.28,-0.48 L -2.28,0.03 L -2.79,0.03 L -2.79,0.54 L -4.5,0.57 L -3.93,-0.15 L -3.99,-0.21 L -4.59,0.57 L -4.98,0.57 L -4.62,1.11 L 3.96,1.14 L 4.86,-0.21 L 2.79,-0.21 L 2.55,0.24 L 1.32,0.27 L 1.32,-0.99 L 0.33,-0.96 L 0.33,-0.69 L -0.15,-0.69 L -0.27,-1.14 L -0.99,-1.14 L -1.26,0.03 L -1.44,0.81" transform="rotate(0)" class="sl f0 fMARMG" style="stroke-width:0.32;stroke-dasharray:0,0;" />
  <path d=" M -0.24,-0.51 L -0.06,-0.54 L 0.09,-0.57 L 0.3,-0.51 L 0.45,-0.45 L 0.6,-0.3 L 0.75,-0.15 L 0.84,0.03 L 0.9,0.24 L 0.87,0.45 L 0.75,0.66 L 0.63,0.75 L 0.48,0.81 L 0.3,0.84 L 0.09,0.84 L -0.06,0.75 L -0.21,0.63 L -0.42,0.42 L -0.45,0.27 L -0.48,0.12 L -0.51,-0.06 L -0.48,-0.24 L -0.36,-0.39 L -0.21,-0.51" transform="rotate(0)" class="sl f0 sCHGRD" style="stroke-width:0.32;stroke-dasharray:0,0;" />
  
  <path d=" M -0.42,0.36 L -1.44,0.81 L -1.35,0.96 L -0.42,0.42 L -0.45,0.33" transform="rotate(0)" class="sl f0 sCHGRD" style="stroke-width:0.32;stroke-dasharray:0,0;" />
</svg>