<?xml version="1.0" encoding="utf-8" standalone="yes"?>
<?xml-stylesheet href="SVGStyle.css" type="text/css"?>
<svg xmlns="http://www.w3.org/2000/svg" version="1.2" baseProfile="tiny" xml:space="preserve" style="shape-rendering:geometricPrecision; fill-rule:evenodd;" width="7.86mm" height="3.32mm" viewBox="-4.19 -2.33 7.86 3.32">
  <title>CATREA22</title>
   <desc>symbol for fish sanctuary as a point</desc>
  <metadata>
    <S100SVG xmlns:iho="http://www.iho.int/SVGMetadata">
      <Description publisher="IHB" creationDate="2017-08-16" source="S52Preslib4.0" format="S100SVG" version="0.1" />
    </S100SVG>
  </metadata>
  <rect class="symbolBox layout" fill="none" x="-4.19" y="0.99" height="3.32" width="7.86" />
  <rect class="svgBox layout" fill="none" x="-4.19" y="-2.33" height="3.32" width="7.86" />
 
  <path d=" M -3.69,-0.67 L -2.98,-1.23 L -2.48,-1.5 L -1.75,-1.72 L -0.86,-1.82 L -0.16,-1.83 L 0.25,-1.76 L 0.7,-1.65 L 1.14,-1.5 L 1.71,-1.27 L 2.26,-0.95 L 2.48,-0.77 L 3.15,-1.31 L 3.17,-0.12 L 2.46,-0.74 L 1.88,-0.25 L 1.51,-0.06 L 0.98,0.21 L 0.35,0.37 L -0.19,0.47 L -1.04,0.49 L -1.89,0.29 L -2.52,0.12 L -3.14,-0.24 L -3.68,-0.66 L -3.69,-0.67" transform="rotate(0)" class="sl f0 fUINFM" style="stroke-width:0.32;stroke-dasharray:0,0;" />
</svg>