<?xml version="1.0" encoding="utf-8" standalone="yes"?>
<?xml-stylesheet href="SVGStyle.css" type="text/css"?>
<svg xmlns="http://www.w3.org/2000/svg" version="1.2" baseProfile="tiny" xml:space="preserve" style="shape-rendering:geometricPrecision; fill-rule:evenodd;" width="6.64mm" height="6.46mm" viewBox="-2.51 -2.67 6.64 6.46">
   <title>CATREA07</title>
  <desc>symbol for seal sanctuary as a point</desc>
  <metadata>
    <S100SVG xmlns:iho="http://www.iho.int/SVGMetadata">
      <Description publisher="IHB" creationDate="2017-08-16" source="S52Preslib4.0" format="S100SVG" version="0.1" />
    </S100SVG>
  </metadata>
  <rect class="symbolBox layout" fill="none" x="-2.51" y="3.79" height="6.46" width="6.64" />
  <rect class="svgBox layout" fill="none" x="-2.51" y="-2.67" height="6.46" width="6.64" />
 
  <path d=" M 1.86,-1.92 L 1.81,-1.83 L 1.76,-1.64 L 1.66,-1.43 L 1.61,-1.26 L 1.58,-1.18 L 1.58,-1.11 L 1.62,-1.06 L 1.6,-0.98 L 1.48,-0.81 L 1.32,-0.61 L 1.13,-0.44 L 1,-0.32 L 0.8,-0.14 L 0.61,0.09 L 0.43,0.26 L 0.12,0.45 L -0.24,0.62 L -0.59,0.77 L -0.75,0.83 L -0.93,0.95 L -1.13,1.12 L -1.36,1.28 L -1.61,1.38 L -1.76,1.52 L -1.84,1.62 L -1.88,1.69 L -1.91,1.81 L -1.94,1.9 L -1.98,2.09 L -1.98,2.18 L -1.99,2.41 L -2.01,2.73 L -1.96,2.86 L -1.89,2.95 L -1.79,2.99 L -1.76,2.91 L -1.72,2.87 L -1.66,2.87 L -1.64,2.88 L -1.49,2.93 L -1.42,2.95 L -1.33,2.98 L -1.22,3.05 L -1.13,3.08 L -0.99,3.1 L -0.64,3.19 L 0.01,3.21 L 0.41,3.2 L 0.67,3.2 L 0.74,3.18 L 0.72,3.14 L 0.61,3.13 L 0.61,3.12 L 0.86,3.11 L 0.87,3.08 L 0.86,3.05 L 0.69,3.02 L 0.68,3 L 0.75,3 L 1.19,2.99 L 1.19,2.94 L 1.11,2.92 L 0.2,2.87 L -0.05,2.84 L -0.21,2.82 L -0.35,2.82 L -0.48,2.78 L -0.67,2.73 L -0.83,2.62 L -0.9,2.58 L -0.9,2.52 L -0.87,2.47 L -0.82,2.39 L -0.75,2.32 L -0.67,2.27 L -0.61,2.24 L -0.34,2.26 L 0,2.33 L 0.09,2.34 L 0.28,2.35 L 0.35,2.35 L 0.5,2.31 L 0.61,2.25 L 0.81,2.19 L 0.98,2.13 L 1.14,2 L 1.34,1.89 L 1.38,1.84 L 1.43,1.84 L 1.46,1.88 L 1.43,1.95 L 1.4,2.01 L 1.41,2.05 L 1.41,2.12 L 1.46,2.17 L 1.55,2.19 L 1.68,2.23 L 1.74,2.25 L 1.78,2.27 L 1.88,2.3 L 2.02,2.35 L 2.11,2.38 L 2.16,2.44 L 2.17,2.52 L 2.19,2.61 L 2.18,2.7 L 2.19,2.77 L 2.27,2.82 L 2.36,2.85 L 2.41,2.94 L 2.43,2.99 L 2.46,3.05 L 2.53,3.17 L 2.61,3.27 L 2.67,3.29 L 2.7,3.26 L 2.74,3.18 L 2.77,3.03 L 2.84,2.73 L 2.83,2.52 L 2.78,2.29 L 2.69,2.16 L 2.59,2.03 L 2.54,1.93 L 2.55,1.91 L 2.63,1.96 L 2.68,1.95 L 2.69,1.89 L 2.68,1.83 L 2.59,1.61 L 2.54,1.44 L 2.53,1.1 L 2.62,0.98 L 2.73,0.85 L 2.87,0.6 L 2.96,0.41 L 3.1,0.07 L 3.19,-0.23 L 3.22,-0.49 L 3.26,-0.85 L 3.1,-1.08 L 3.17,-1.32 L 3.26,-1.54 L 3.59,-1.79 L 3.63,-1.99 L 3.6,-2.11 L 3.55,-2.17 L 3.48,-2.16 L 3.4,-2.13 L 3.3,-2.06 L 3.13,-2.04 L 2.71,-2.04 L 2.25,-2.03 L 2.17,-2.03 L 2.05,-2 L 1.95,-1.95 L 1.86,-1.92 L 1.86,-1.92" transform="rotate(0)" class="sl f0 fUINFM" style="stroke-width:0.32;stroke-dasharray:0,0;" />
</svg>