<?xml version="1.0" encoding="utf-8" standalone="yes"?>
<?xml-stylesheet href="SVGStyle.css" type="text/css"?>
<svg xmlns="http://www.w3.org/2000/svg" version="1.2" baseProfile="tiny" xml:space="preserve" style="shape-rendering:geometricPrecision; fill-rule:evenodd;" width="10.25mm" height="5.31mm" viewBox="-5.19 -2.61 10.25 5.31">
   <title>CATREA23</title>
  <desc>symbol for ecological reserve as a point</desc>
  <metadata>
    <S100SVG xmlns:iho="http://www.iho.int/SVGMetadata">
      <Description publisher="IHB" creationDate="2017-08-16" source="S52Preslib4.0" format="S100SVG" version="0.1" />
    </S100SVG>
  </metadata>
  <rect class="symbolBox layout" fill="none" x="-5.19" y="2.7" height="5.31" width="10.25" />
  <rect class="svgBox layout" fill="none" x="-5.19" y="-2.61" height="5.31" width="10.25" />
 
  <path d=" M -0.81,1.58 L -0.42,1.65 L -0.07,1.7 L 0.02,1.61 L -0.12,1.4 L -0.3,1.19 L -0.44,1.08 L -0.64,0.98 L -0.84,0.85 L -0.96,0.82 L -1.15,0.81 L -1.33,0.84 L -1.55,0.88 L -1.61,0.93 L -1.56,1.1 L -1.38,1.31 L -1.11,1.4 L -0.87,1.51 L -0.78,1.61 L 0.42,1.92 L 0.88,1.93 L 1.36,1.91 L 1.79,1.78 L 1.81,1.93 L 1.81,2.03 L 1.83,2.14 L 1.95,2.2 L 2.09,2.19 L 2.26,2.1 L 2.4,1.97 L 2.82,1.5 L 2.72,1.47 L 2.68,1.23 L 2.82,1.03 L 3.01,0.86 L 3.4,0.72 L 3.3,0.69 L 3.18,0.69 L 2.93,0.68 L 2.68,0.65 L 2.58,0.58 L 2.53,0.51 L 2.57,0.44 L 2.67,0.4 L 2.89,0.33 L 3.16,0.3 L 3.39,0.35 L 3.54,0.42 L 3.56,0.5 L 3.54,0.59 L 3.46,0.66 L 3.39,0.73 L 4,0.75 L 4.35,0.8 L 4.37,0.88 L 4.01,1.04 L 3.76,1.18 L 3.27,1.26 L 2.84,1.49 L 3.26,1.35 L 3.87,1.19 L 4.22,1.01 L 4.29,0.91 L 4.4,0.88 L 4.49,0.8 L 4.56,0.72 L 4.56,0.63 L 4.48,0.51 L 4.31,0.34 L 4.01,0.15 L 3.8,0.05 L 3.38,0 L 2.99,-0.06 L 2.52,-0.12 L 1,-0.1 L 0.84,-0.2 L 0.32,-0.73 L 0.22,-0.78 L 0.12,-0.82 L 0.02,-0.82 L -0.07,-0.81 L -0.1,-0.77 L -0.11,-0.73 L -0.05,-0.65 L -0.02,-0.58 L 0.02,-0.5 L 0.02,-0.33 L -0.13,-0.17 L -0.38,-0.08 L -1.43,-0.11 L -1.65,-0.2 L -1.73,-0.28 L -1.82,-0.32 L -1.99,-0.36 L -2.11,-0.41 L -2.24,-0.5 L -2.33,-0.6 L -2.44,-0.67 L -2.85,-0.87 L -3.36,-1.13 L -3.46,-1.22 L -3.5,-1.34 L -3.64,-1.59 L -3.7,-1.66 L -3.75,-1.72 L -3.77,-1.8 L -3.76,-1.87 L -3.8,-2.01 L -3.83,-2.08 L -3.87,-2.11 L -3.89,-2.07 L -3.92,-2 L -3.95,-1.85 L -4,-1.54 L -3.99,-1.1 L -4.14,-0.86 L -4.54,-0.59 L -4.69,-0.46 L -4.59,-0.44 L -4.36,-0.5 L -3.92,-0.62 L -3.65,-0.66 L -3.51,-0.67 L -3.38,-0.63 L -3.22,-0.5 L -2.51,0.53 L -2.26,0.84 L -1.99,1.06 L -1.79,1.19 L -1.54,1.31 L -0.89,1.55 L -0.81,1.58" transform="rotate(0)" class="sl f0 fMARMG" style="stroke-width:0.32;stroke-dasharray:0,0;" />
</svg>