<?xml version="1.0" encoding="utf-8" standalone="yes"?>
<?xml-stylesheet href="SVGStyle.css" type="text/css"?>
<svg xmlns="http://www.w3.org/2000/svg" version="1.2" baseProfile="tiny" xml:space="preserve" style="shape-rendering:geometricPrecision; fill-rule:evenodd;" width="10.99mm" height="10.99mm" viewBox="-5.48 -5.48 10.99 10.99">
  <desc>pattern of symbol</desc>
  <metadata>
    <S100SVG xmlns:iho="http://www.iho.int/SVGMetadata">
      <Description publisher="IHB" creationDate="2017-08-16" source="S52Preslib4.0" format="S100SVG" version="0.1" />
    </S100SVG>
  </metadata>
  <rect class="symbolBox layout" fill="none" x="-5.48" y="5.51" height="10.99" width="10.99" />
  <rect class="svgBox layout" fill="none" x="-5.48" y="-5.48" height="10.99" width="10.99" />
  <title>CATREA29CATREA29</title>
  <path d=" M -1.77,-4.89 L -1.59,-4.98 L -1.41,-4.89 L -1.35,-4.56 L -1.29,-4.38 L -1.29,-4.2 L -1.41,-4.02 L -1.53,-3.81 L -1.71,-3.6 L -1.77,-3.39 L -1.65,-3.15 L -1.5,-2.88 L -1.29,-2.7 L -1.2,-2.58 L -1.11,-2.46 L -1.08,-2.4 L -1.08,-2.28 L -1.05,-2.13 L -0.78,-2.04 L -0.48,-2.1 L 0.3,-2.49 L 1.02,-2.88 L 1.17,-3.06 L 1.2,-3.3 L 1.26,-3.54 L 1.2,-3.78 L 1.02,-4.29 L 0.81,-4.59 L 0.81,-4.68 L 0.9,-4.68 L 1.2,-4.59 L 1.62,-4.29 L 1.71,-4.05 L 1.8,-3.78 L 1.86,-3.54 L 1.92,-3.3 L 1.89,-2.94 L 1.71,-2.58 L 1.41,-2.46 L 1.08,-2.31 L 0.69,-2.13 L 0.3,-1.98 L -0.09,-1.8 L -0.48,-1.59 L -0.57,-1.44 L -0.6,-1.29 L -0.6,-0.96 L -0.48,-0.6 L -0.33,-0.48 L -0.18,-0.42 L 0.12,-0.39 L 1.62,-0.78 L 2.31,-1.2 L 3,-1.59 L 3.21,-1.98 L 3.3,-2.88 L 3.21,-3.78 L 3.24,-4.14 L 3.39,-4.23 L 3.63,-4.17 L 3.81,-3.78 L 3.9,-2.58 L 3.9,-1.29 L 3.72,-0.99 L 3.3,-0.78 L 2.4,-0.39 L 0.51,0.12 L 0.27,0.21 L 0.12,0.3 L -0.03,0.39 L -0.18,0.51 L -0.18,0.66 L -0.12,0.81 L 0.06,0.9 L 0.3,1.02 L 3.21,0.12 L 3.69,-0.12 L 3.81,-0.18 L 3.96,-0.15 L 4.11,-0.06 L 4.29,0 L 4.41,0.12 L 4.65,0.48 L 4.62,0.6 L 4.5,0.66 L 3.6,0.81 L 0.3,1.62 L 0.21,2.01 L 0.21,2.4 L 2.91,2.7 L 4.32,2.52 L 4.62,2.52 L 4.8,2.52 L 4.95,2.52 L 5.01,2.52 L 4.95,2.61 L 4.8,2.7 L 4.5,2.91 L 3.93,3.27 L 3.81,3.3 L 3.72,3.3 L 2.16,2.94 L 1.92,2.91 L 1.71,2.91 L 0.45,2.88 L 0.3,2.91 L 0.24,3 L 0.21,3.12 L 0.21,3.42 L 0.3,4.2 L 0.3,5.01 L 0,5.01 L -0.18,4.8 L -0.48,4.62 L -0.78,4.62 L -1.2,4.62 L -1.38,4.5 L -1.38,4.2 L -0.69,2.1 L -0.78,1.8 L -1.8,1.41 L -2.88,1.2 L -4.86,1.26 L -4.98,1.2 L -4.92,1.05 L -4.68,0.81 L -3.9,0.6 L -1.5,0.81 L -0.69,1.2 L -0.6,0.81 L -0.69,0.51 L -1.2,-0.39 L -3.18,-1.2 L -4.2,-1.59 L -4.23,-1.62 L -4.29,-1.68 L -4.2,-1.77 L -3.6,-1.98 L -3.06,-1.98 L -2.88,-1.98 L -2.67,-1.86 L -1.35,-1.02 L -1.2,-0.99 L -1.17,-1.08 L -1.2,-1.2 L -1.98,-2.49 L -2.19,-2.94 L -2.31,-3.18 L -2.37,-3.39 L -2.31,-3.6 L -2.19,-3.78 L -1.98,-4.2 L -1.86,-4.5 L -1.83,-4.68" transform="rotate(0)" class="sl f0 fMARMG" style="stroke-width:0.32;stroke-dasharray:0,0;" />
</svg>