<?xml version="1.0" encoding="utf-8" standalone="yes"?>
<?xml-stylesheet href="SVGStyle.css" type="text/css"?>
<svg xmlns="http://www.w3.org/2000/svg" version="1.2" baseProfile="tiny" xml:space="preserve" style="shape-rendering:geometricPrecision; fill-rule:evenodd;" width="7.4mm" height="5.24mm" viewBox="-0.74 -0.74 7.4 5.24">
  <title>CGKSTN99</title>
  <desc>pattern of symbol</desc>
  <metadata>
    <S100SVG xmlns:iho="http://www.iho.int/SVGMetadata">
      <Description publisher="IHB" creationDate="2018-11-13" source="S52Preslib4.0" format="S100SVG" version="0.1" />
    </S100SVG>
  </metadata>
  <rect class="symbolBox layout" fill="none" x="-0.74" y="4.5" height="5.24" width="7.4" />
  <rect class="svgBox layout" fill="none" x="-0.74" y="-0.74" height="5.24" width="7.4" />
  <path d=" M 0.1,0.3 L 6.1,0.3 L 6.1,4 L 0.1,4 L 0.1,0.3" class="fSNDG2" style="stroke-width:0.064;" />
  <path d=" M 6.1,0.3 L 6.1,4 L 0.1,4 L 0.1,0.3" class="sl f0 sCHWHT" style="stroke-width:0.064;" />
  <path d=" M 0.16,0.29 L 6.16,0.29" class="sl f0 sCHWHT" style="stroke-width:0.064;" />
  <circle cx="0.01" cy="0.01" r="0.25" class="fLANDF" style="stroke-width:0.0640000009536743" />
  <path d=" M 2.5,1.3 L 2,0.9 L 1.5,0.9 L 1,1.3 L 1,2.6 L 1.5,3 L 2,3 L 2.5,2.6" class="sl f0 sUIBCK" style="stroke-width:0.32;" />
  <path d=" M 5,1.3" class="sl f0 sUIBCK" style="stroke-width:0.32;" />
  <path d=" M 5.1,1.4 L 4.6,1 L 4.1,1 L 3.5,1.4 L 3.5,2.7 L 4.1,3.1 L 4.6,3.1 L 4.9,2.7 L 5.1,2.2 L 4.5,2.2 L 5.4,2.2 L 5.2,2.2 L 5.2,2.2 L 5.1,2.2 L 5.1,2.3 L 5.1,3.1" class="sl f0 sUIBCK" style="stroke-width:0.32;" />
</svg>