<?xml version="1.0" encoding="UTF-8"?>
<?xml-stylesheet href="SVGStyle.css" type="text/css"?><svg xmlns="http://www.w3.org/2000/svg" version="1.2" baseProfile="tiny" xml:space="preserve" style="shape-rendering:geometricPrecision; fill-rule:evenodd;" width="8.97mm" height="4.32mm" viewBox="-5.06 -2.78 8.97 4.32">
  <title>DISMAR03</title>
  <desc>distance mark</desc>
  <metadata>
    <iho:S100SVG xmlns:iho="http://www.iho.int/SVGMetadata">
      <iho:Description iho:publisher="IHB" iho:creationDate="2014-06-09" iho:source="S52Preslib4.0" iho:format="S100SVG" iho:version="0.1"/>
    </iho:S100SVG>
  </metadata>
  <rect class="symbolBox layout" fill="none" x="-4.9" y="-2.62" height="4" width="8.65"/>
  <rect class="svgBox layout" fill="none" x="-4.9" y="-2.62" height="4" width="8.65"/>
  <path d=" M -1.75,-2.62 L -1.75,1.38" class="sl f0 sCHMGD" style="stroke-width: 0.32;"/>
  <path d=" M -0.4,-1.12 L -1.75,0.38" class="sl f0 sCHMGD" style="stroke-width: 0.32;"/>
  <path d=" M -1.3,-0.12 L -0.25,1.38" class="sl f0 sCHMGD" style="stroke-width: 0.32;"/>
  <path d=" M 0.75,-1.12 L 0.75,1.38" class="sl f0 sCHMGD" style="stroke-width: 0.32;"/>
  <path d=" M 0.75,-0.72 L 1.1,-1.07 L 1.4,-1.17 L 1.6,-1.17 L 2.02,-0.97 L 2.25,-0.67 L 2.25,1.38" class="sl f0 sCHMGD" style="stroke-width: 0.32;"/>
  <path d=" M 2.25,-0.62 L 2.45,-1.02 L 2.85,-1.2 L 3.1,-1.2 L 3.52,-1.02 L 3.75,-0.62 L 3.75,1.38" class="sl f0 sCHMGD" style="stroke-width: 0.32;"/>
  <circle class="f0 sCHMGD" style="stroke-width: 0.32;" cx="-4.06" cy="0.09" r="0.84"/>
  <circle class="pivotPoint layout" fill="none" cx="0" cy="0" r="1"/>
</svg>
