<?xml version="1.0" encoding="UTF-8"?>
<?xml-stylesheet href="svgStyle.css" type="text/css"?>
<svg xmlns="http://www.w3.org/2000/svg" version="1.0" baseProfile="tiny" xml:space="preserve" style="shape-rendering:geometricPrecision; fill-rule:evenodd;" width="19.6mm" height="7.46mm" viewBox="-9.71 -6.83 19.6 7.46">
		<title>GMDSS_point</title>
		<desc>GMDSS_point description.</desc>
		<metadata>
			<S100SVG xmlns:iho="http://www.iho.int/SVGMetadata">
				<Description publisher="KHOA" creationDate="2020-03-01" source="S52Preslib4.0" format="S100SVG" version="0.1" />
			</S100SVG>
		</metadata>
		<rect class="symbolBox layout" fill="none" x="-9.44" y="-6.56" height="6.92" width="19.06" />
		<rect class="svgBox layout" fill="none" x="-9.44" y="-6.56" height="6.92" width="19.06" />
		<path d=" M -9.44,-6.56 L -9.44,-6.56 L -9.44,-1.19 L 9.62,-1.19 L 9.62,-6.56 L -9.44,-6.56 Z" class="f00014" />
		<path d=" M 1.19,-1.19 L 0,0 L -1.19,-1.19 L 1.19,-1.19 Z" class="f00014" />
		<path d=" M -5.89,-1.93 L -6.35,-1.97 L -6.73,-2.1 L -7.07,-2.32 L -7.27,-2.53 L -7.42,-2.74 L -7.56,-3.04 L -7.65,-3.34 L -7.7,-3.77 L -7.7,-3.9 L -7.66,-4.33 L -7.58,-4.65 L -7.44,-4.95 L -7.35,-5.09 L -7.15,-5.34 L -7.03,-5.45 L -6.79,-5.61 L -6.55,-5.72 L -6.28,-5.79 L -5.95,-5.83 L -5.63,-5.8 L -5.47,-5.77 L -5.29,-5.7 L -5.12,-5.62 L -4.86,-5.43 L -4.77,-5.34 L -5.13,-4.98 L -5.28,-5.11 L -5.49,-5.23 L -5.72,-5.3 L -5.95,-5.32 L -6.19,-5.29 L -6.47,-5.2 L -6.6,-5.12 L -6.85,-4.91 L -7,-4.7 L -7.09,-4.48 L -7.17,-4.13 L -7.19,-3.89 L -7.17,-3.56 L -7.08,-3.22 L -6.98,-3 L -6.74,-2.71 L -6.4,-2.52 L -5.95,-2.44 L -5.82,-2.44 L -5.29,-2.59 L -5.16,-2.68 L -5.16,-3.73 L -5.76,-3.73 L -5.76,-3.22 L -6.27,-3.22 L -6.27,-4.24 L -4.64,-4.24 L -4.64,-2.46 L -4.97,-2.19 L -5.34,-2.02 L -5.79,-1.93 L -5.89,-1.93 Z" class="f00015" />
		<path d=" M 2.89,-2.59 L 3.06,-2.44 L 3.22,-2.33 L 3.49,-2.2 L 3.7,-2.13 L 3.88,-2.1 L 4.12,-2.08 L 4.33,-2.1 L 4.49,-2.12 L 4.63,-2.16 L 4.76,-2.22 L 4.86,-2.27 L 4.94,-2.32 L 5.04,-2.41 L 5.12,-2.49 L 5.19,-2.59 L 5.25,-2.71 L 5.29,-2.81 L 5.32,-2.92 L 5.33,-3.04 L 5.33,-3.14 L 5.32,-3.28 L 5.29,-3.38 L 5.24,-3.5 L 5.21,-3.57 L 5.15,-3.65 L 5.07,-3.74 L 5,-3.8 L 4.93,-3.86 L 4.79,-3.94 L 4.63,-4.02 L 4.48,-4.08 L 4.41,-4.11 L 4.27,-4.17 L 4.16,-4.22 L 4.04,-4.27 L 3.85,-4.34 L 3.72,-4.43 L 3.65,-4.51 L 3.59,-4.64 L 3.58,-4.81 L 3.63,-4.94 L 3.72,-5.05 L 3.81,-5.11 L 3.91,-5.15 L 4.01,-5.17 L 4.09,-5.18 L 4.15,-5.18 L 4.24,-5.18 L 4.32,-5.17 L 4.42,-5.15 L 4.5,-5.12 L 4.6,-5.08 L 4.67,-5.05 L 4.74,-5 L 4.81,-4.96 L 4.86,-4.92 L 4.91,-4.87 L 4.96,-4.93 L 5.03,-5.01 L 5.08,-5.08 L 5.14,-5.15 L 5.2,-5.22 L 5.11,-5.3 L 5.04,-5.36 L 4.98,-5.4 L 4.91,-5.44 L 4.86,-5.47 L 4.83,-5.49 L 4.78,-5.52 L 4.71,-5.55 L 4.65,-5.57 L 4.61,-5.58 L 4.53,-5.6 L 4.46,-5.62 L 4.4,-5.63 L 4.32,-5.64 L 4.28,-5.65 L 4.2,-5.65 L 4.12,-5.65 L 4.06,-5.65 L 4,-5.65 L 3.94,-5.64 L 3.86,-5.63 L 3.78,-5.61 L 3.7,-5.58 L 3.63,-5.56 L 3.57,-5.53 L 3.5,-5.49 L 3.45,-5.46 L 3.39,-5.42 L 3.32,-5.37 L 3.27,-5.31 L 3.21,-5.25 L 3.17,-5.2 L 3.14,-5.15 L 3.11,-5.09 L 3.08,-5.02 L 3.06,-4.95 L 3.04,-4.89 L 3.03,-4.83 L 3.02,-4.74 L 3.02,-4.66 L 3.03,-4.61 L 3.04,-4.54 L 3.05,-4.46 L 3.07,-4.4 L 3.1,-4.34 L 3.13,-4.28 L 3.16,-4.23 L 3.19,-4.18 L 3.24,-4.13 L 3.27,-4.09 L 3.33,-4.04 L 3.36,-4.01 L 3.42,-3.97 L 3.47,-3.93 L 3.52,-3.9 L 3.58,-3.87 L 3.64,-3.84 L 3.69,-3.82 L 3.72,-3.8 L 3.79,-3.77 L 3.89,-3.73 L 3.97,-3.7 L 4.04,-3.66 L 4.12,-3.63 L 4.2,-3.6 L 4.26,-3.57 L 4.36,-3.53 L 4.41,-3.5 L 4.47,-3.47 L 4.54,-3.43 L 4.6,-3.39 L 4.63,-3.35 L 4.68,-3.29 L 4.72,-3.23 L 4.75,-3.13 L 4.75,-3.06 L 4.74,-2.94 L 4.72,-2.86 L 4.67,-2.78 L 4.61,-2.71 L 4.54,-2.66 L 4.45,-2.61 L 4.38,-2.59 L 4.28,-2.57 L 4.17,-2.56 L 4.09,-2.56 L 4.01,-2.56 L 3.91,-2.57 L 3.8,-2.6 L 3.72,-2.62 L 3.62,-2.66 L 3.55,-2.7 L 3.49,-2.73 L 3.41,-2.78 L 3.34,-2.83 L 3.28,-2.87 L 3.22,-2.93 L 3.19,-2.96 L 2.88,-2.61 L 2.89,-2.59 Z" class="f00015" />
		<path d=" M 5.64,-2.59 L 5.8,-2.44 L 5.96,-2.33 L 6.24,-2.2 L 6.45,-2.13 L 6.62,-2.1 L 6.87,-2.08 L 7.07,-2.1 L 7.23,-2.12 L 7.38,-2.16 L 7.51,-2.22 L 7.61,-2.27 L 7.69,-2.32 L 7.79,-2.41 L 7.87,-2.49 L 7.94,-2.59 L 8,-2.71 L 8.04,-2.81 L 8.06,-2.92 L 8.08,-3.04 L 8.08,-3.14 L 8.06,-3.28 L 8.04,-3.38 L 7.99,-3.5 L 7.96,-3.57 L 7.9,-3.65 L 7.82,-3.74 L 7.75,-3.8 L 7.67,-3.86 L 7.54,-3.94 L 7.38,-4.02 L 7.23,-4.08 L 7.15,-4.11 L 7.02,-4.17 L 6.9,-4.22 L 6.79,-4.27 L 6.6,-4.34 L 6.47,-4.43 L 6.4,-4.51 L 6.33,-4.64 L 6.33,-4.81 L 6.37,-4.94 L 6.46,-5.05 L 6.56,-5.11 L 6.66,-5.15 L 6.76,-5.17 L 6.83,-5.18 L 6.9,-5.18 L 6.98,-5.18 L 7.07,-5.17 L 7.17,-5.15 L 7.25,-5.12 L 7.35,-5.08 L 7.42,-5.05 L 7.49,-5 L 7.56,-4.96 L 7.61,-4.92 L 7.66,-4.87 L 7.71,-4.93 L 7.77,-5.01 L 7.83,-5.08 L 7.89,-5.15 L 7.95,-5.22 L 7.86,-5.3 L 7.79,-5.36 L 7.73,-5.4 L 7.66,-5.44 L 7.61,-5.47 L 7.58,-5.49 L 7.53,-5.52 L 7.45,-5.55 L 7.4,-5.57 L 7.35,-5.58 L 7.28,-5.6 L 7.21,-5.62 L 7.15,-5.63 L 7.07,-5.64 L 7.02,-5.65 L 6.95,-5.65 L 6.87,-5.65 L 6.81,-5.65 L 6.74,-5.65 L 6.68,-5.64 L 6.61,-5.63 L 6.53,-5.61 L 6.45,-5.58 L 6.38,-5.56 L 6.32,-5.53 L 6.25,-5.49 L 6.2,-5.46 L 6.13,-5.42 L 6.07,-5.37 L 6.02,-5.31 L 5.96,-5.25 L 5.92,-5.2 L 5.89,-5.15 L 5.86,-5.09 L 5.83,-5.02 L 5.8,-4.95 L 5.79,-4.89 L 5.78,-4.83 L 5.77,-4.74 L 5.77,-4.66 L 5.77,-4.61 L 5.78,-4.54 L 5.8,-4.46 L 5.82,-4.4 L 5.85,-4.34 L 5.88,-4.28 L 5.91,-4.23 L 5.94,-4.18 L 5.98,-4.13 L 6.02,-4.09 L 6.07,-4.04 L 6.11,-4.01 L 6.17,-3.97 L 6.22,-3.93 L 6.27,-3.9 L 6.33,-3.87 L 6.39,-3.84 L 6.43,-3.82 L 6.47,-3.8 L 6.53,-3.77 L 6.63,-3.73 L 6.72,-3.7 L 6.79,-3.66 L 6.87,-3.63 L 6.95,-3.6 L 7.01,-3.57 L 7.1,-3.53 L 7.16,-3.5 L 7.22,-3.47 L 7.28,-3.43 L 7.34,-3.39 L 7.38,-3.35 L 7.43,-3.29 L 7.46,-3.23 L 7.49,-3.13 L 7.5,-3.06 L 7.49,-2.94 L 7.46,-2.86 L 7.42,-2.78 L 7.36,-2.71 L 7.29,-2.66 L 7.19,-2.61 L 7.12,-2.59 L 7.03,-2.57 L 6.92,-2.56 L 6.83,-2.56 L 6.76,-2.56 L 6.65,-2.57 L 6.55,-2.6 L 6.47,-2.62 L 6.37,-2.66 L 6.29,-2.7 L 6.24,-2.73 L 6.16,-2.78 L 6.09,-2.83 L 6.03,-2.87 L 5.97,-2.93 L 5.93,-2.96 L 5.63,-2.61 L 5.64,-2.59 Z" class="f00015" />
		<path d=" M 0,-5.32 L 0,-2.44 L 0.86,-2.44 L 0.93,-2.44 L 1,-2.44 L 1.06,-2.45 L 1.12,-2.46 L 1.2,-2.47 L 1.27,-2.48 L 1.33,-2.5 L 1.39,-2.52 L 1.46,-2.55 L 1.51,-2.57 L 1.58,-2.6 L 1.63,-2.63 L 1.68,-2.66 L 1.74,-2.71 L 1.78,-2.74 L 1.84,-2.8 L 1.89,-2.85 L 1.94,-2.91 L 1.98,-2.97 L 2.02,-3.02 L 2.06,-3.08 L 2.09,-3.15 L 2.11,-3.2 L 2.13,-3.25 L 2.15,-3.32 L 2.17,-3.37 L 2.19,-3.45 L 2.2,-3.52 L 2.22,-3.6 L 2.24,-3.7 L 2.24,-3.77 L 2.23,-3.86 L 2.23,-4 L 2.23,-4.08 L 2.22,-4.14 L 2.2,-4.22 L 2.18,-4.35 L 2.16,-4.43 L 2.13,-4.52 L 2.08,-4.64 L 2.01,-4.75 L 1.96,-4.84 L 1.89,-4.91 L 1.83,-4.98 L 1.76,-5.04 L 1.69,-5.08 L 1.63,-5.13 L 1.56,-5.16 L 1.5,-5.19 L 1.44,-5.21 L 1.35,-5.24 L 1.28,-5.27 L 1.2,-5.28 L 1.14,-5.29 L 1.06,-5.3 L 0.99,-5.31 L 0.93,-5.31 L 0.85,-5.32 L 0.72,-5.32 L 0,-5.32 Z" class="f0 s00015" style="stroke-width:0.54;" />
		<path d=" M -3.8,-2.08 L -3.8,-5.24 L -3.55,-5.24 L -2.61,-2.59 L -2.46,-2.59 L -1.53,-5.24 L -1.28,-5.24 L -1.28,-2.08" class="f0 s00015" style="stroke-width:0.54;" />
		<circle class="pivotPoint layout" fill="none" cx="0" cy="0" r="0.36" />
	</svg>