<?xml version="1.0" encoding="UTF-8"?>
<?xml-stylesheet href="svgStyle.css" type="text/css"?>
<svg xmlns="http://www.w3.org/2000/svg" version="1.0" baseProfile="tiny" xml:space="preserve" style="shape-rendering:geometricPrecision; fill-rule:evenodd;" width="13.6mm" height="7.49mm" viewBox="-6.8 -6.86 13.6 7.49">
		<title>IORA_point</title>
		<desc>IORA_point description.</desc>
		<metadata>
			<S100SVG xmlns:iho="http://www.iho.int/SVGMetadata">
				<Description publisher="KHOA" creationDate="2020-03-01" source="S52Preslib4.0" format="S100SVG" version="0.1" />
			</S100SVG>
		</metadata>
		<rect class="symbolBox layout" fill="none" x="-6.53" y="-6.59" height="6.95" width="13.06" />
		<rect class="svgBox layout" fill="none" x="-6.53" y="-6.59" height="6.95" width="13.06" />
		<path d=" M -6.53,-6.59 L -6.53,-6.59 L -6.53,-1.22 L 6.53,-1.22 L 6.53,-6.59 L -6.53,-6.59 Z" class="f00011" />
		<path d=" M 1.19,-1.22 L 0,-0.03 L -1.19,-1.22 L 1.19,-1.22 Z" class="f00011" />
		<path d=" M 0.67,-3.92 L 0.67,-5.19 L 0.67,-5.63 L 0.12,-5.63 L 0.12,-2.18 L 0.67,-2.18 L 0.67,-3.48 L 0.67,-3.92 Z" class="f00015" />
		<path d=" M -4.29,-3.92 L -4.29,-5.19 L -4.29,-5.63 L -4.84,-5.63 L -4.84,-2.18 L -4.29,-2.18 L -4.29,-3.48 L -4.29,-3.92 Z" class="f00015" />
		<path d=" M 1.12,-5.19 L 1.33,-5.18 L 1.49,-5.15 L 1.66,-5.1 L 1.79,-5.02 L 1.91,-4.82 L 1.95,-4.59 L 1.91,-4.33 L 1.79,-4.12 L 1.66,-4.02 L 1.49,-3.96 L 1.33,-3.93 L 1.13,-3.92 L 0.67,-3.92 L 0.67,-3.48 L 1.19,-3.48 L 1.33,-3.49 L 1.49,-3.51 L 1.66,-3.54 L 1.79,-3.58 L 1.91,-3.63 L 2.07,-3.72 L 2.22,-3.85 L 2.36,-4.04 L 2.45,-4.29 L 2.48,-4.58 L 2.44,-4.92 L 2.36,-5.13 L 2.22,-5.31 L 2.07,-5.43 L 1.91,-5.51 L 1.79,-5.55 L 1.66,-5.58 L 1.49,-5.61 L 1.33,-5.62 L 1.17,-5.63 L 0.67,-5.63 L 0.67,-5.19 L 1.12,-5.19 Z" class="f00015" />
		<path d=" M 3.62,-3.59 L 3.76,-4.05 L 4.08,-5.2 L 4.09,-5.2 L 4.09,-5.63 L 3.79,-5.63 L 2.65,-2.18 L 3.2,-2.18 L 3.49,-3.16 L 4.09,-3.16 L 4.09,-3.59 L 3.62,-3.59 Z" class="f00015" />
		<path d=" M 4.98,-2.18 L 5.56,-2.18 L 4.42,-5.63 L 4.09,-5.63 L 4.09,-5.2 L 4.1,-5.2 L 4.42,-4.05 L 4.56,-3.59 L 4.09,-3.59 L 4.09,-3.16 L 4.69,-3.16 L 4.98,-2.18 Z" class="f00015" />
		<path d=" M 1.08,-3.48 L 1.85,-2.18 L 2.48,-2.18 L 1.68,-3.58 L 1.08,-3.48 Z" class="f00015" />
		<path d=" M -2,-2.36 L -1.64,-2.42 L -1.34,-2.61 L -1.19,-2.78 L -1.05,-3.03 L -0.98,-3.21 L -0.93,-3.41 L -0.9,-3.65 L -0.89,-3.82 L -0.89,-4.02 L -0.9,-4.19 L -0.91,-4.32 L -0.96,-4.55 L -1.03,-4.75 L -1.08,-4.86 L -1.15,-4.98 L -1.25,-5.11 L -1.36,-5.22 L -1.48,-5.31 L -1.63,-5.38 L -1.78,-5.43 L -1.95,-5.45 L -2.12,-5.44 L -2.25,-5.42 L -2.35,-5.39 L -2.49,-5.32 L -2.6,-5.25 L -2.69,-5.17 L -2.79,-5.07 L -2.87,-4.94 L -2.95,-4.78 L -3.04,-4.53 L -3.11,-4.03 L -3.11,-3.75 L -3.08,-3.52 L -3.04,-3.34 L -2.99,-3.16 L -2.95,-3.05 L -2.89,-2.93 L -2.8,-2.78 L -2.71,-2.67 L -2.59,-2.56 L -2.49,-2.49 L -2.39,-2.44 L -2.24,-2.39 L -2.11,-2.36 L -2,-2.36 Z" class="f0 s00015" style="stroke-width:0.54;" />
		<circle class="pivotPoint layout" fill="none" cx="0" cy="0" r="0.36" />
	</svg>