<?xml version="1.0" encoding="UTF-8"?>
<?xml-stylesheet href="SVGStyle.css" type="text/css"?><svg xmlns="http://www.w3.org/2000/svg" version="1.2" baseProfile="tiny" xml:space="preserve" style="shape-rendering:geometricPrecision; fill-rule:evenodd;" width="14.32mm" height="14.32mm" viewBox="-7.16 -7.16 14.32 14.32">
  <title>MSISYM01</title>
  <desc>Maritime Safety Information</desc>
  <metadata>
    <iho:S100SVG xmlns:iho="http://www.iho.int/SVGMetadata">
      <iho:Description iho:publisher="IHB" iho:creationDate="2014-06-09" iho:source="S52Preslib4.0" iho:format="S100SVG" iho:version="0.1"/>
    </iho:S100SVG>
  </metadata>
  <rect class="symbolBox layout" fill="none" x="-7" y="-7" height="14.5" width="14.5"/>
  <rect class="svgBox layout" fill="none" x="-7" y="-7" height="14.5" width="14.5"/>
  <circle class="f0 sCHMGD" style="stroke-width: 0.32;" cx="0" cy="0" r="5"/>
  <circle class="pivotPoint layout" fill="none" cx="0" cy="0" r="1"/>
  <path d="M -3.5,2.9 -3.5,-2.8 -3.0,-2.8 -2.25,1.8 -1.5,-2.8 -1.0,-2.8 -1.0,2.9 -1.5,2.9 -1.5,-0.2 -2.1,2.9 -2.4,2.9 -3,-0.1 -3,2.9 -3.5,2.9 -3.5,2.9" class="sl f0 fCHMGD" style="stroke-width: 0.32;"/>
  <path d="M 2.3,-1.9 1.8,-1.9 1.8,-2.3 1.3,-2.8 0,-2.8 -0.7,-2.1 -0.7,-0.6 0,0.1 1.1,0.1 1.3,0.4 1.3,2.0 1.1,2.2 0,2.2 -0.1,2.1 -0.1,2.0 -0.1,1.8 -0.7,1.8 -0.7,2.4 -0.3,2.8 1.4,2.8 1.8,2.4 1.8,0.2 1.3,-0.4 0.3,-0.4 -0.1,-0.8 -0.1,-1.9 0.3,-2.2 1.0,-2.2 1.2,-2.1 1.2,-1.9" class="sl f0 fCHMGD" style="stroke-width: 0.32;"/>
  <path d="M 2.2,-2.8 2.2,-2.3 2.6,-2.3 2.6,2.3 2.3,2.3 2.2,2.3 2.2,2.8 3.5,2.8 3.5,2.3 3.1,2.3 3.1,-2.3 3.5,-2.3 3.5,-2.8 2.2,-2.8 2.2,-2.8" class="sl f1 fCHMGD" style="stroke-width: 0.32;"/>
</svg>
