<?xml version="1.0" encoding="UTF-8"?>
<?xml-stylesheet href="svgStyle.css" type="text/css"?>
<svg xmlns="http://www.w3.org/2000/svg" version="1.0" baseProfile="tiny" xml:space="preserve" style="shape-rendering:geometricPrecision; fill-rule:evenodd;" width="10.98mm" height="6.92mm" viewBox="-5.49 -6.56 10.98 6.92">
		<title>NSA_point</title>
		<desc>NSA_point description.</desc>
		<metadata>
			<S100SVG xmlns:iho="http://www.iho.int/SVGMetadata">
				<Description publisher="KHOA" creationDate="2020-03-01" source="S52Preslib4.0" format="S100SVG" version="0.1" />
			</S100SVG>
		</metadata>
		<rect class="symbolBox layout" fill="none" x="-5.49" y="-6.56" height="6.92" width="10.98" />
		<rect class="svgBox layout" fill="none" x="-5.49" y="-6.56" height="6.92" width="10.98" />
		<path d=" M -5.49,-6.56 L -5.49,-6.56 L -5.49,-1.19 L 5.49,-1.19 L 5.49,-6.56 L -5.49,-6.56 Z" class="f00011" />
		<path d=" M 1.19,-1.19 L 0,0 L -1.19,-1.19 L 1.19,-1.19 Z" class="f00011" />
		<path d=" M 2.41,-3.56 L 2.55,-4.02 L 2.86,-5.17 L 2.88,-5.17 L 2.88,-5.6 L 2.57,-5.6 L 1.43,-2.15 L 1.98,-2.15 L 2.28,-3.13 L 2.88,-3.13 L 2.88,-3.56 L 2.41,-3.56 Z" class="f00015" />
		<path d=" M 3.77,-2.15 L 4.34,-2.15 L 3.2,-5.6 L 2.88,-5.6 L 2.88,-5.17 L 2.89,-5.17 L 3.21,-4.02 L 3.35,-3.56 L 2.88,-3.56 L 2.88,-3.13 L 3.48,-3.13 L 3.77,-2.15 Z" class="f00015" />
		<path d=" M -1.35,-2.59 L -1.19,-2.45 L -1.03,-2.34 L -0.76,-2.2 L -0.54,-2.14 L -0.37,-2.1 L -0.13,-2.09 L 0.08,-2.1 L 0.24,-2.13 L 0.38,-2.17 L 0.51,-2.22 L 0.62,-2.28 L 0.69,-2.33 L 0.79,-2.41 L 0.87,-2.5 L 0.94,-2.59 L 1.01,-2.71 L 1.04,-2.81 L 1.07,-2.93 L 1.08,-3.04 L 1.08,-3.14 L 1.07,-3.28 L 1.04,-3.38 L 1,-3.5 L 0.96,-3.57 L 0.9,-3.66 L 0.83,-3.74 L 0.75,-3.81 L 0.68,-3.86 L 0.54,-3.94 L 0.38,-4.02 L 0.24,-4.08 L 0.16,-4.12 L 0.02,-4.17 L -0.09,-4.22 L -0.21,-4.27 L -0.39,-4.35 L -0.52,-4.43 L -0.6,-4.51 L -0.66,-4.64 L -0.67,-4.81 L -0.62,-4.95 L -0.53,-5.05 L -0.44,-5.11 L -0.34,-5.15 L -0.24,-5.18 L -0.16,-5.18 L -0.09,-5.19 L -0.01,-5.18 L 0.08,-5.17 L 0.17,-5.15 L 0.26,-5.13 L 0.36,-5.09 L 0.42,-5.05 L 0.5,-5.01 L 0.56,-4.96 L 0.61,-4.92 L 0.67,-4.88 L 0.72,-4.94 L 0.78,-5.02 L 0.83,-5.08 L 0.89,-5.15 L 0.95,-5.22 L 0.87,-5.3 L 0.79,-5.36 L 0.73,-5.4 L 0.67,-5.45 L 0.62,-5.48 L 0.58,-5.49 L 0.53,-5.52 L 0.46,-5.55 L 0.41,-5.57 L 0.36,-5.59 L 0.29,-5.61 L 0.22,-5.62 L 0.15,-5.64 L 0.08,-5.65 L 0.03,-5.65 L -0.04,-5.66 L -0.12,-5.66 L -0.19,-5.66 L -0.25,-5.65 L -0.31,-5.64 L -0.38,-5.63 L -0.46,-5.61 L -0.54,-5.59 L -0.62,-5.56 L -0.68,-5.53 L -0.75,-5.5 L -0.8,-5.47 L -0.86,-5.42 L -0.92,-5.37 L -0.98,-5.32 L -1.03,-5.26 L -1.07,-5.2 L -1.1,-5.15 L -1.14,-5.09 L -1.17,-5.02 L -1.19,-4.96 L -1.2,-4.89 L -1.22,-4.83 L -1.22,-4.75 L -1.22,-4.67 L -1.22,-4.62 L -1.21,-4.54 L -1.19,-4.47 L -1.17,-4.41 L -1.15,-4.35 L -1.12,-4.29 L -1.09,-4.24 L -1.05,-4.19 L -1.01,-4.14 L -0.97,-4.09 L -0.92,-4.05 L -0.88,-4.01 L -0.83,-3.97 L -0.78,-3.94 L -0.72,-3.91 L -0.67,-3.87 L -0.61,-3.84 L -0.56,-3.82 L -0.52,-3.81 L -0.46,-3.77 L -0.36,-3.74 L -0.28,-3.7 L -0.2,-3.67 L -0.13,-3.63 L -0.04,-3.6 L 0.02,-3.57 L 0.11,-3.53 L 0.17,-3.5 L 0.23,-3.47 L 0.29,-3.43 L 0.35,-3.39 L 0.39,-3.36 L 0.44,-3.3 L 0.47,-3.24 L 0.5,-3.14 L 0.51,-3.06 L 0.5,-2.95 L 0.47,-2.86 L 0.43,-2.79 L 0.36,-2.72 L 0.29,-2.66 L 0.2,-2.62 L 0.13,-2.59 L 0.03,-2.57 L -0.08,-2.56 L -0.16,-2.56 L -0.24,-2.56 L -0.34,-2.58 L -0.44,-2.6 L -0.52,-2.63 L -0.63,-2.67 L -0.7,-2.7 L -0.75,-2.73 L -0.84,-2.78 L -0.9,-2.83 L -0.96,-2.88 L -1.02,-2.93 L -1.06,-2.97 L -1.36,-2.61 L -1.35,-2.59 Z" class="f00015" />
		<path d=" M -3.68,-2.14 L -4.22,-2.14 L -4.22,-5.6 L -3.59,-5.6 L -2.21,-3.16 L -2.21,-5.6 L -1.67,-5.6 L -1.67,-2.18 L -2.28,-2.18 L -3.68,-4.66 L -3.68,-2.14 Z" class="f00015" />
		<circle class="pivotPoint layout" fill="none" cx="0" cy="0" r="0.36" />
	</svg>