<?xml version="1.0" encoding="utf-8" standalone="yes"?>
<?xml-stylesheet href="SVGStyle.css" type="text/css"?>
<svg xmlns="http://www.w3.org/2000/svg" version="1.2" baseProfile="tiny" xml:space="preserve" style="shape-rendering:geometricPrecision; fill-rule:evenodd;" width="8.4mm" height="6.24mm" viewBox="-1.24 -1.24 8.4 6.24">
  <title>RDOSTA99</title>
  <desc>pattern of symbol</desc>
  <metadata>
    <S100SVG xmlns:iho="http://www.iho.int/SVGMetadata">
      <Description publisher="IHB" creationDate="2018-11-13" source="S52Preslib4.0" format="S100SVG" version="0.1" />
    </S100SVG>
  </metadata>
  <rect class="symbolBox layout" fill="none" x="-1.24" y="5" height="6.24" width="8.4" />
  <rect class="svgBox layout" fill="none" x="-1.24" y="-1.24" height="6.24" width="8.4" />
  <path d=" M 0.1,0.3 L 6.1,0.3 L 6.1,4 L 0.1,4 L 0.1,0.3" class="fSNDG2" style="stroke-width:0.064;" />
  <path d=" M 6.1,0.3 L 6.1,4 L 0.1,4 L 0.1,0.3" class="sl f0 sCHWHT" style="stroke-width:0.064;" />
  <path d=" M 4.8,1 L 4.5,0.8 L 3.7,0.8 L 3.3,1 L 3.3,1.5 L 3.8,1.8 L 4.3,1.8 L 4.8,2 L 4.8,2.7 L 4.5,3 L 3.5,3 L 3.1,2.6" class="sl f0 sCHWHT" style="stroke-width:0.64;" />
  <path d=" M 0.16,0.29 L 6.16,0.29" class="sl f0 sCHWHT" style="stroke-width:0.064;" />
  <circle cx="0.01" cy="0.01" r="0.25" class="fLANDF" style="stroke-width:0.0640000009536743" />
  <path d=" M 0.8,0.8 L 0.8,3 L 0.8,0.8 L 2,0.8 L 2.4,1.2 L 2.4,1.7 L 2,2 L 0.9,2 L 2.4,3 L 2.4,3 L 2.4,3" class="sl f0 sUIBCK" style="stroke-width:0.64;" />
</svg>