<?xml version="1.0" encoding="UTF-8"?>
<?xml-stylesheet href="SVGStyle.css" type="text/css"?><svg xmlns="http://www.w3.org/2000/svg" version="1.2" baseProfile="tiny" xml:space="preserve" style="shape-rendering:geometricPrecision; fill-rule:evenodd;" width="6.72mm" height="4.57mm" viewBox="-0.4 -0.4 6.72 4.57">
  <title>SISTAT02</title>
  <desc>signal station</desc>
  <metadata>
    <iho:S100SVG xmlns:iho="http://www.iho.int/SVGMetadata">
      <iho:Description iho:publisher="IHB" iho:creationDate="2014-06-09" iho:source="S52Preslib4.0" iho:format="S100SVG" iho:version="0.1"/>
    </iho:S100SVG>
  </metadata>
  <rect class="symbolBox layout" fill="none" x="-0.24" y="-0.24" height="4.25" width="6.4"/>
  <rect class="svgBox layout" fill="none" x="-0.24" y="-0.24" height="4.25" width="6.4"/>
  <path d=" M 0.16,0.29 L 6.16,0.29 L 6.16,4.01 L 0.16,4.01 L 0.16,0.29 Z" class="fCHWHT"/>
  <path d=" M 6.16,0.29 L 6.16,4.01 L 0.16,4.01 L 0.16,0.29" class="sl f0 sCHMGF" style="stroke-width: 0.64;"/>
  <path d=" M 2.41,1.17 L 2.16,0.92 L 1.66,0.92 L 1.41,1.17 L 1.41,1.67 L 1.66,1.92 L 2.06,1.92 L 2.41,2.17 L 2.41,2.67 L 2.16,3.01 L 1.5,3.01 L 1.22,2.7" class="sl f0 sCHMGF" style="stroke-width: 0.64;"/>
  <path d=" M 4.91,1.17 L 4.66,0.92 L 4.16,0.92 L 3.91,1.17 L 3.91,1.67 L 4.19,1.92 L 4.56,1.92 L 4.91,2.17 L 4.91,2.7 L 4.66,2.95 L 4,2.95 L 3.72,2.67" class="sl f0 sCHMGF" style="stroke-width: 0.64;"/>
  <path d=" M 0.16,0.29 L 6.16,0.29" class="sl f0 sCHMGF" style="stroke-width: 0.64;"/>
  <circle class="fLANDF" cx="0.01" cy="0.01" r="0.25"/>
  <circle class="pivotPoint layout" fill="none" cx="0" cy="0" r="1"/>
</svg>
