<?xml version="1.0" encoding="utf-8" standalone="yes"?>
<?xml-stylesheet href="SVGStyle.css" type="text/css"?>
<svg xmlns="http://www.w3.org/2000/svg" version="1.2" baseProfile="tiny" xml:space="preserve" style="shape-rendering:geometricPrecision; fill-rule:evenodd;" width="10.75mm" height="11.4mm" viewBox="-5.38 -6.27 10.75 11.4">
  <title>HIGCLD01</title>
  <desc>pattern of symbol</desc>
  <metadata>
    <S100SVG xmlns:iho="http://www.iho.int/SVGMetadata">
      <Description publisher="IHB" creationDate="2019-08-25" source="S52Preslib4.0" format="S100SVG" version="0.1" />
    </S100SVG>
  </metadata>
  <rect class="symbolBox layout" fill="none" x="-5.38" y="5.13" height="11.4" width="10.75" />
  <rect class="svgBox layout" fill="none" x="-5.38" y="-6.27" height="11.4" width="10.75" />
  <circle cx="0.09" cy="-0.92" r="2.8" class="fLITYW" style="stroke-width:0.32" />
  <path d=" M 0.05,-5.77 L -0.35,-5.57 L -0.35,-4.27 L 0.05,-4.07 L 0.45,-4.27 L 0.45,-5.57 L 0.05,-5.77 L 0.05,-5.77" class="fLITYW" style="stroke-width:0.32;" />
  <path d=" M 4.87,-0.97 L 4.67,-1.37 L 3.47,-1.37 L 3.27,-0.97 L 3.47,-0.57 L 4.67,-0.57 L 4.87,-0.97 L 4.87,-0.97" class="fLITYW" style="stroke-width:0.32;" />
  <path d=" M -4.68,-1.02 L -4.48,-0.62 L -3.28,-0.62 L -3.08,-1.02 L -3.28,-1.42 L -4.48,-1.42 L -4.68,-1.02 L -4.68,-1.02" class="fLITYW" style="stroke-width:0.32;" />
  <path d=" M -3.43,-4.29 L -3.55,-3.87 L -2.61,-2.98 L -2.19,-3.14 L -2.07,-3.56 L -3.02,-4.45 L -3.43,-4.29 L -3.43,-4.29" class="fLITYW" style="stroke-width:0.32;" />
  <path d=" M 3.4,-4.5 L 2.97,-4.61 L 2.13,-3.63 L 2.3,-3.21 L 2.72,-3.1 L 3.57,-4.08 L 3.4,-4.5 L 3.4,-4.5" class="fLITYW" style="stroke-width:0.32;" />
  <path d=" M -2.52,1.41 L -1.98,0.87 L -1.32,0.47 L -0.44,0.15 L 0.4,0.13 L 1.08,0.37 L 1.9,0.93 L 2.28,1.69 L 2.4,2.25 L 3.02,2.27 L 3.52,2.61 L 3.84,3.11 L 3.88,3.65 L 3.5,4.15 L 3.1,4.43 L 2.54,4.63 L -3.3,4.61 L -3.96,4.37 L -4.38,4.07 L -4.64,3.65 L -4.88,3.23 L -4.82,2.67 L -4.46,2.15 L -3.58,1.49 L -3.16,1.41 L -2.52,1.43 L -2.52,1.41" class="fCHWHT" style="stroke-width:0.32;" />
  <path d=" M -1.66,-0.65 L -1.12,-1.19 L -0.46,-1.59 L 0.42,-1.91 L 1.26,-1.93 L 1.94,-1.69 L 2.76,-1.13 L 3.14,-0.37 L 3.26,0.19 L 3.88,0.21 L 4.38,0.55 L 4.7,1.05 L 4.74,1.59 L 4.36,2.09 L 3.96,2.37 L 3.4,2.57 L -2.44,2.55 L -3.1,2.31 L -3.52,2.01 L -3.78,1.59 L -4.02,1.17 L -3.96,0.61 L -3.6,0.09 L -2.72,-0.57 L -2.3,-0.65 L -1.66,-0.63 L -1.66,-0.65" class="fCHWHT" style="stroke-width:0.32;" />
</svg>