<?xml version="1.0" encoding="utf-8" standalone="yes"?>
<?xml-stylesheet href="SVGStyle.css" type="text/css"?>
<svg xmlns="http://www.w3.org/2000/svg" version="1.2" baseProfile="tiny" xml:space="preserve" style="shape-rendering:geometricPrecision; fill-rule:evenodd;" width="8mm" height="8mm" viewBox="-4 -4 8 8">
  <title>WAVEHT01</title>
  <desc>pattern of symbol</desc>
  <metadata>
    <S100SVG xmlns:iho="http://www.iho.int/SVGMetadata">
      <Description publisher="IHB" creationDate="2019-08-02" source="S52Preslib4.0" format="S100SVG" version="0.1" />
    </S100SVG>
  </metadata>
  <rect class="symbolBox layout" fill="none" x="-4" y="4" height="8" width="8" />
  <rect class="svgBox layout" fill="none" x="-4" y="-4" height="8" width="8" />
  <circle cx="0" cy="0" r="3.5" class="sl f0 sCHBLK" style="stroke-width:0.32" />
  <path d=" M -1.16,1.96 L 0.02,1.89 L 0.87,1.73 L 1.27,1.63 L 1.7,1.6 L 2.16,1.62 L 2.55,1.72 L 3.01,1.78 L 2.67,2.23 L 2.49,2.43 L 2.23,2.68 L 1.98,2.87 L 1.67,3.06 L 1.2,3.27 L 0.76,3.4 L 0.42,3.46 L -0.01,3.48 L -0.47,3.46 L -0.81,3.39 L -1.44,3.2 L -1.92,2.94 L -2.33,2.58 L -2.71,2.21 L -3,1.78 L -2.99,1.76 L -2.23,1.87" class="fMARBL" style="stroke-width:0.32;" />
  <path d=" M 3.01,1.79 L 1.7,1.59 L 0.98,1.72 L 0.03,1.9 L -1.15,1.96 L -2.24,1.88 L -2.7,1.8 L -3,1.76 L -3.26,1.26 L -3.43,0.62 L -3.49,0.14 L -3.44,-0.58 L -3.26,-1.25 L -2.96,-1.85 L -2.64,-2.28 L -2.15,-2.75 L -1.74,-3.03 L -1.26,-3.25 L -0.73,-3.41 L -0.23,-3.47 L 0.31,-3.48 L 0.91,-3.37 L 1.41,-3.19 L 1.94,-2.89 L 2.32,-2.61 L 2.7,-2.2 L 3.01,-1.74 L 3.3,-1.21 L 3.46,-0.4 L 3.49,0.17 L 3.37,0.94 L 3.21,1.36 L 3.11,1.58" class="fCHWHT" style="stroke-width:0.32;" />
</svg>