<?xml version="1.0" encoding="utf-8" standalone="yes"?>
<?xml-stylesheet href="SVGStyle.css" type="text/css"?>
<svg xmlns="http://www.w3.org/2000/svg" version="1.2" baseProfile="tiny" xml:space="preserve" style="shape-rendering:geometricPrecision; fill-rule:evenodd;" width="8mm" height="8mm" viewBox="-4 -4 8 8">
  <title>WAVEHT02</title>
  <desc>pattern of symbol</desc>
  <metadata>
    <S100SVG xmlns:iho="http://www.iho.int/SVGMetadata">
      <Description publisher="IHB" creationDate="2019-08-02" source="S52Preslib4.0" format="S100SVG" version="0.1" />
    </S100SVG>
  </metadata>
  <rect class="symbolBox layout" fill="none" x="-4" y="4" height="8" width="8" />
  <rect class="svgBox layout" fill="none" x="-4" y="-4" height="8" width="8" />
  <circle cx="0" cy="0" r="3.5" class="sl f0 sCHBLK" style="stroke-width:0.32" />
  <path d=" M -3.36,0.14 L -3.17,0.25 L -2.71,0.45 L -2.19,0.55 L -1.7,0.52 L -1.29,0.49 L -0.9,0.37 L -0.46,0.18 L -0.01,-0.01 L 0.4,-0.23 L 0.85,-0.41 L 1.29,-0.54 L 1.75,-0.62 L 2.22,-0.6 L 2.67,-0.42 L 3.07,-0.25 L 3.49,0 L 3.45,0.57 L 3.28,1.16 L 3,1.8 L 2.68,2.23 L 2.24,2.69 L 1.71,3.08 L 0.94,3.35 L 0.27,3.5 L -0.67,3.43 L -1.51,3.16 L -2.21,2.73 L -2.81,2.08 L -3.2,1.42 L -3.42,0.73 L -3.47,0.34 L -3.49,0.02" class="fMARBL" style="stroke-width:0.32;" />
  <path d=" M -3.48,-0.31 L -3.43,-0.57 L -3.35,-0.95 L -3.19,-1.43 L -2.95,-1.86 L -2.65,-2.26 L -2.3,-2.62 L -1.82,-2.97 L -1.33,-3.22 L -0.8,-3.4 L -0.19,-3.49 L 0.47,-3.46 L 1.07,-3.32 L 1.52,-3.12 L 1.98,-2.88 L 2.37,-2.55 L 2.73,-2.16 L 3.05,-1.7 L 3.31,-1.08 L 3.44,-0.55 L 3.48,0 L 3.08,-0.23 L 2.22,-0.6 L 1.74,-0.61 L 1.28,-0.52 L 0.83,-0.39 L 0.36,-0.21 L -0.07,0.02 L -0.78,0.33 L -1.28,0.49 L -1.81,0.54 L -2.23,0.56 L -2.73,0.46 L -3.17,0.28 L -3.5,0.01" class="fCHWHT" style="stroke-width:0.32;" />
</svg>